<svg xmlns="http://www.w3.org/2000/svg" width="129.937" height="97.272" viewBox="0 0 129.937 97.272">
  <g id="Group_346" data-name="Group 346" transform="translate(-193.101 -603.178)" style="mix-blend-mode: luminosity;isolation: isolate">
    <path id="Path_651" data-name="Path 651" d="M337.343,892.3l-79.718,5.168a8.938,8.938,0,0,1-2.515-.194l-38.665-8.584a.556.556,0,0,1,.083-1.084s73.019-4.219,73.429-4.159l47.432,7.441A.72.72,0,0,1,337.343,892.3Z" transform="translate(-21.04 -197.032)" fill="#97b8ba"/>
    <g id="Group_330" data-name="Group 330" transform="translate(236.389 638.778)">
      <path id="Path_652" data-name="Path 652" d="M497.067,731.36c1.815,0,3-1.86,3-4.154s-1.187-4.153-3-4.153-3.286,1.859-3.286,4.153S495.252,731.36,497.067,731.36Z" transform="translate(-493.781 -723.053)" fill="#ced9db"/>
      <ellipse id="Ellipse_281" data-name="Ellipse 281" cx="2.656" cy="4.153" rx="2.656" ry="4.153" transform="translate(0)" fill="#a8c0c3"/>
      <path id="Path_653" data-name="Path 653" d="M503.6,723.663c-.234,1.421-.215,4.189,2.285,7.388a2.068,2.068,0,0,1-1.51.738c-1.467,0-2.656-1.86-2.656-4.154C501.725,725.764,502.517,724.182,503.6,723.663Z" transform="translate(-501.725 -723.482)" fill="#88a4a7"/>
    </g>
    <ellipse id="Ellipse_282" data-name="Ellipse 282" cx="10.615" cy="15.394" rx="10.615" ry="15.394" transform="translate(200.951 659.443)" fill="#674541"/>
    <rect id="Rectangle_530" data-name="Rectangle 530" width="5.338" height="30.789" transform="translate(211.241 659.443)" fill="#674541"/>
    <ellipse id="Ellipse_283" data-name="Ellipse 283" cx="10.615" cy="15.394" rx="10.615" ry="15.394" transform="translate(205.965 659.443)" fill="#3b2825"/>
    <ellipse id="Ellipse_284" data-name="Ellipse 284" cx="5.646" cy="8.189" rx="5.646" ry="8.189" transform="translate(211.566 666.649)" fill="#9c8887"/>
    <ellipse id="Ellipse_285" data-name="Ellipse 285" cx="4.68" cy="6.788" rx="4.68" ry="6.788" transform="translate(212.532 668.05)" fill="#c3a8a7"/>
    <path id="Path_654" data-name="Path 654" d="M407.262,671.569c.34-2.781,1.312-30.1,1.406-32.74a.164.164,0,0,0-.177-.178l-21.383,2.995-15.738,29.924Z" transform="translate(-133.274 -24.937)" fill="#50bfd0"/>
    <path id="Path_655" data-name="Path 655" d="M249.085,749.5l42.538,4.437,2.9,5.38.545,23.748-90.474,1.788V760.822Z" transform="translate(24.903 -102.869)" fill="#2a94ae"/>
    <path id="Path_656" data-name="Path 656" d="M249.43,749.5l42.538,4.437,2.9,5.38.453,19.737-47.579-17.235-42.8,2.458v-3.456Z" transform="translate(24.558 -102.869)" fill="#39aec2"/>
    <path id="Path_657" data-name="Path 657" d="M288.047,603.178" transform="translate(9.615)" fill="#fff"/>
    <path id="Path_658" data-name="Path 658" d="M278.689,645.957l10.73,29-31.808-3.443,1.109-32.945Z" transform="translate(16.377 -24.879)" fill="#3198a3"/>
    <path id="Path_659" data-name="Path 659" d="M453.179,749.5l-44.5,11.321-32.056-1.3L417.285,749.5Z" transform="translate(-179.191 -102.869)" fill="#add9e5"/>
    <path id="Path_660" data-name="Path 660" d="M331.517,851.2l-33.757.752.755,3.769,33-.668Z" transform="translate(-36.45 -174.367)" fill="#64c7e1"/>
    <path id="Path_661" data-name="Path 661" d="M577.42,784.546l-32.056-1.3-2.248,18.711,34.3,6.62Z" transform="translate(-347.927 -126.593)" fill="#39abbe"/>
    <path id="Path_662" data-name="Path 662" d="M439.174,824.673l-27.615.546c.718-10.161,6.634-18.089,13.83-18.089C432.455,807.13,438.285,814.776,439.174,824.673Z" transform="translate(-174.521 -143.383)" fill="#211311"/>
    <ellipse id="Ellipse_286" data-name="Ellipse 286" cx="10.615" cy="15.394" rx="10.615" ry="15.394" transform="translate(237.495 668.522)" fill="#674541"/>
    <rect id="Rectangle_531" data-name="Rectangle 531" width="5.338" height="30.789" transform="translate(247.785 668.522)" fill="#674541"/>
    <ellipse id="Ellipse_287" data-name="Ellipse 287" cx="10.615" cy="15.394" rx="10.615" ry="15.394" transform="translate(242.508 668.522)" fill="#3b2825"/>
    <ellipse id="Ellipse_288" data-name="Ellipse 288" cx="5.646" cy="8.189" rx="5.646" ry="8.189" transform="translate(248.11 675.728)" fill="#9c8887"/>
    <ellipse id="Ellipse_289" data-name="Ellipse 289" cx="4.68" cy="6.788" rx="4.68" ry="6.788" transform="translate(249.076 677.128)" fill="#c3a8a7"/>
    <ellipse id="Ellipse_290" data-name="Ellipse 290" cx="0.596" cy="0.865" rx="0.596" ry="0.865" transform="translate(255.36 683.051)" fill="#9c8887"/>
    <ellipse id="Ellipse_291" data-name="Ellipse 291" cx="0.596" cy="0.865" rx="0.596" ry="0.865" transform="translate(251.077 683.051)" fill="#9c8887"/>
    <ellipse id="Ellipse_292" data-name="Ellipse 292" cx="0.596" cy="0.865" rx="0.596" ry="0.865" transform="translate(253.102 680.154)" fill="#9c8887"/>
    <ellipse id="Ellipse_293" data-name="Ellipse 293" cx="0.596" cy="0.865" rx="0.596" ry="0.865" transform="translate(253.102 686.13)" fill="#9c8887"/>
    <path id="Path_663" data-name="Path 663" d="M214.626,824.123c.857-9.6,6.089-16.993,12.418-16.993,6.22,0,11.378,7.14,12.367,16.5Z" transform="translate(77.874 -143.383)" fill="#211311"/>
    <ellipse id="Ellipse_294" data-name="Ellipse 294" cx="9.574" cy="13.885" rx="9.574" ry="13.885" transform="translate(292.857 668.053)" fill="#674541"/>
    <rect id="Rectangle_532" data-name="Rectangle 532" width="4.815" height="27.77" transform="translate(302.137 668.053)" fill="#674541"/>
    <ellipse id="Ellipse_295" data-name="Ellipse 295" cx="9.574" cy="13.885" rx="9.574" ry="13.885" transform="translate(297.378 668.053)" fill="#3b2825"/>
    <ellipse id="Ellipse_296" data-name="Ellipse 296" cx="5.092" cy="7.386" rx="5.092" ry="7.386" transform="translate(302.43 674.553)" fill="#9c8887"/>
    <ellipse id="Ellipse_297" data-name="Ellipse 297" cx="4.221" cy="6.122" rx="4.221" ry="6.122" transform="translate(303.301 675.816)" fill="#c3a8a7"/>
    <path id="Path_664" data-name="Path 664" d="M242.753,663.452l14.7,29.286-4.85-.506Z" transform="translate(52.313 -42.374)" fill="#3198a3"/>
    <path id="Path_665" data-name="Path 665" d="M398.395,657.5l-12.525,23.714h28.763Z" transform="translate(-143.114 -38.192)" fill="#d3eef8"/>
    <path id="Path_666" data-name="Path 666" d="M382.96,654.377l17.015-1.321-.778,25.035Z" transform="translate(-127.679 -35.066)" fill="#fff"/>
    <path id="Path_667" data-name="Path 667" d="M277.172,653.056l15.763,5.685,7.712,22.956-23.475-3.067Z" transform="translate(-0.079 -35.066)" fill="#d3eef8"/>
    <path id="Path_668" data-name="Path 668" d="M292.935,672.2l7.712,22.956-23.475-3.067Z" transform="translate(-0.079 -48.525)" fill="#d3eef8"/>
    <g id="Group_331" data-name="Group 331" transform="translate(221.482 662.339)">
      <path id="Path_669" data-name="Path 669" d="M534.708,806.724l3.064-.755a1.793,1.793,0,0,0,1.218-2.126,1.609,1.609,0,0,0-1.913-1.353l-2.553.629-6.147-.721a1.655,1.655,0,0,0-1.763,1.585,1.746,1.746,0,0,0,1.427,1.959Z" transform="translate(-526.606 -802.389)" fill="#fea900"/>
    </g>
    <path id="Path_670" data-name="Path 670" d="M551.126,806.713l-6.575-.77a1.745,1.745,0,0,1-1.427-1.959,1.655,1.655,0,0,1,1.763-1.585l6.147.721.092-.023Z" transform="translate(-321.634 -140.05)" fill="#fff"/>
    <path id="Path_671" data-name="Path 671" d="M651.359,796.617a1.434,1.434,0,0,1-.147-.007l-3.573-.4c-.023,0-.044-.007-.067-.011l.424-3.521,3.506.386A1.739,1.739,0,0,1,652.954,795,1.68,1.68,0,0,1,651.359,796.617Z" transform="translate(-451.385 -133.22)" fill="#fff"/>
    <path id="Path_672" data-name="Path 672" d="M663.65,796.3l-.845-.085c-.023,0-.044-.007-.067-.01l.424-3.532.911.1Z" transform="translate(-466.552 -133.22)" fill="#fea900"/>
    <path id="Path_673" data-name="Path 673" d="M595.186,797.715l-3.72,6.378a1.462,1.462,0,0,1-1.467.69l-7.569-1.058a1.4,1.4,0,0,1-1.218-1.186l-.742-5.738a1.4,1.4,0,0,1,1.479-1.533l12.031.417A1.367,1.367,0,0,1,595.186,797.715Z" transform="translate(-375.856 -135.043)" fill="#fff"/>
    <path id="Path_674" data-name="Path 674" d="M578.775,832.442l-36.659-5.083,1.547,8.492,35.112,5.67Z" transform="translate(-349.015 -157.605)" fill="#35b7dc"/>
    <path id="Path_675" data-name="Path 675" d="M527.149,844.476h-5.824v9.078l4.508-.614Z" transform="translate(-291.832 -169.639)" fill="#64c7e1"/>
    <path id="Path_676" data-name="Path 676" d="M581.1,806.754" transform="translate(-361.757 -143.119)" fill="#fff"/>
    <path id="Path_677" data-name="Path 677" d="M591.363,795.779a1.367,1.367,0,0,1,1.205,2.03l-3.72,6.378a1.462,1.462,0,0,1-1.467.69l-.753-.105-6.169-9.371Z" transform="translate(-373.238 -135.138)" fill="#ced9db"/>
    <path id="Path_678" data-name="Path 678" d="M395.718,720.641a8.492,8.492,0,0,0-.381-1.282c-1.175-3.031-3.786-4.7-5.833-3.716-1.537.736-2.317,2.754-2.113,5h-1.5c-.194-3.007.891-5.676,2.965-6.669,2.85-1.364,6.488.953,8.125,5.176a11.931,11.931,0,0,1,.468,1.493Z" transform="translate(-125.93 -77.616)" fill="#add9e5"/>
    <path id="Path_679" data-name="Path 679" d="M385.78,732.736l.422-.8,9.943-.22,1.7-1.032h13.45l1.078,1.2h2.207l-.014.854Z" transform="translate(-143.035 -89.64)" fill="#2a94ae"/>
    <path id="Path_680" data-name="Path 680" d="M198.111,825.895h-4.128l-.882,10.93h5.753Z" transform="translate(124.184 -156.576)" fill="#64c7e1"/>
    <path id="Path_681" data-name="Path 681" d="M207.761,781.162h-3.9l3.055,8.974H208.5l-.194-8.974Z" transform="translate(111.661 -125.127)" fill="#fea900"/>
    <path id="Path_682" data-name="Path 682" d="M356.862,739.978s-.193,3.294,1.413,4.145,3.872-6.927,3.872-6.927l-.684-1.24-1.652,4.286Z" transform="translate(-82.874 -93.346)" fill="#0d4049"/>
    <g id="Group_332" data-name="Group 332" transform="translate(276.812 638.778)">
      <path id="Path_683" data-name="Path 683" d="M345.821,731.36c1.815,0,3-1.86,3-4.154s-1.187-4.153-3-4.153-3.286,1.859-3.286,4.153S344.006,731.36,345.821,731.36Z" transform="translate(-342.535 -723.053)" fill="#ced9db"/>
      <ellipse id="Ellipse_298" data-name="Ellipse 298" cx="2.656" cy="4.153" rx="2.656" ry="4.153" transform="translate(0)" fill="#a8c0c3"/>
      <path id="Path_684" data-name="Path 684" d="M352.359,723.663c-.234,1.421-.215,4.189,2.285,7.388a2.067,2.067,0,0,1-1.509.738c-1.467,0-2.656-1.86-2.656-4.154C350.479,725.764,351.271,724.182,352.359,723.663Z" transform="translate(-350.479 -723.482)" fill="#88a4a7"/>
    </g>
    <path id="Path_685" data-name="Path 685" d="M363.334,799.229l-22.771-5.9-42.8.107,42.8-2.458Z" transform="translate(-68.267 -132.03)" fill="#4bbdcb"/>
    <path id="Path_686" data-name="Path 686" d="M595.612,801.737l-3.2-.16a.931.931,0,0,0-.922.737l-1.048,4.073a1.017,1.017,0,0,0,.767,1.289l1.768.246a.884.884,0,0,0,.877-.448l2.475-4.159A1.031,1.031,0,0,0,595.612,801.737Z" transform="translate(-379.636 -139.478)" fill="#39aec2"/>
    <path id="Path_687" data-name="Path 687" d="M618.521,802.164l-1.013,3.979a.712.712,0,0,1-.738.566l-1.605-.154a.74.74,0,0,1-.635-.658l-.557-3.947a.757.757,0,0,1,.72-.9l3.176.122A.773.773,0,0,1,618.521,802.164Z" transform="translate(-407.99 -139.106)" fill="#39aec2"/>
    <path id="Path_688" data-name="Path 688" d="M277.172,653.056v4.365l17.973,23.558,5.5.719-7.712-22.956Z" transform="translate(-0.079 -35.066)" fill="#aed3db"/>
    <ellipse id="Ellipse_299" data-name="Ellipse 299" cx="0.462" cy="0.671" rx="0.462" ry="0.671" transform="translate(308.722 681.142)" fill="#9c8887"/>
    <ellipse id="Ellipse_300" data-name="Ellipse 300" cx="0.462" cy="0.671" rx="0.462" ry="0.671" transform="translate(305.399 681.142)" fill="#9c8887"/>
    <ellipse id="Ellipse_301" data-name="Ellipse 301" cx="0.462" cy="0.671" rx="0.462" ry="0.671" transform="translate(306.97 678.895)" fill="#9c8887"/>
    <ellipse id="Ellipse_302" data-name="Ellipse 302" cx="0.462" cy="0.671" rx="0.462" ry="0.671" transform="translate(306.97 683.53)" fill="#9c8887"/>
    <path id="Path_689" data-name="Path 689" d="M335.721,860.4l-28.84.684v1.107l28.712-.617Z" transform="translate(-43.093 -180.831)" fill="#211311"/>
  </g>
</svg>
