<svg xmlns="http://www.w3.org/2000/svg" width="23.439" height="23.39" viewBox="0 0 23.439 23.39">
  <g id="Group_530" data-name="Group 530" transform="translate(-149.171 -136.432)">
    <path id="Path_250" data-name="Path 250" d="M172.607,162.739a3.048,3.048,0,0,0-.068-.79c-.459-1.689-1.543-1.888-2.988-1.7v1.458h.791c.437,0,.571.1.666.52a2.1,2.1,0,0,1,.051.459q0,1.1,0,2.2H170.7c-.05,0-.107,0-.175,0H150.747c0-.886,0-1.714,0-2.543a.976.976,0,0,1,.058-.257.474.474,0,0,1,.536-.386c.3.017.608,0,.919,0V160.2c-.339,0-.647,0-.954,0a1.9,1.9,0,0,0-1.931,1.33,3.59,3.59,0,0,0-.2,1.165q-.018,8.4-.008,16.792a2.358,2.358,0,0,0,2.51,2.515H170a2.492,2.492,0,0,0,2.608-2.607Q172.611,171.068,172.607,162.739ZM170.049,180.5H151.73a.864.864,0,0,1-.989-1q0-6.338,0-12.677v-.384h19.926a.564.564,0,0,0,.125,0h.268q0,6.52,0,13.04A.886.886,0,0,1,170.049,180.5Z" transform="translate(0 -22.183)" fill="#a0a0a0"/>
    <path id="Path_251" data-name="Path 251" d="M274.823,160.794h-7.666V162.3h7.666Z" transform="translate(-110.154 -22.745)" fill="#a0a0a0"/>
    <path id="Path_252" data-name="Path 252" d="M406.954,140.22c0,.022,0,.044,0,.066a.775.775,0,0,0,.76.829.76.76,0,0,0,.78-.808q.019-1.526,0-3.051a.772.772,0,1,0-1.539.012c-.007.508,0,1.017,0,1.526Q406.954,139.506,406.954,140.22Z" transform="translate(-240.671)" fill="#a0a0a0"/>
    <path id="Path_253" data-name="Path 253" d="M220.472,141.194a.811.811,0,0,0,.76-.874c.007-.5,0-.994,0-1.491,0-.475,0-.95,0-1.424a1.191,1.191,0,0,0-.056-.388.765.765,0,0,0-1.481.29c-.013,1-.011,2.009,0,3.014A.778.778,0,0,0,220.472,141.194Z" transform="translate(-65.833 -0.08)" fill="#a0a0a0"/>
    <path id="Path_254" data-name="Path 254" d="M277.123,285.709h-2.15v2.164h2.15Z" transform="translate(-117.452 -139.368)" fill="#a0a0a0"/>
    <path id="Path_255" data-name="Path 255" d="M344.068,287.778h2.165v-2.162h-2.165Z" transform="translate(-181.96 -139.281)" fill="#a0a0a0"/>
    <path id="Path_256" data-name="Path 256" d="M414.833,285.632h-2.2V287.8h2.2Z" transform="translate(-245.978 -139.296)" fill="#a0a0a0"/>
    <path id="Path_257" data-name="Path 257" d="M207.928,343.734h-2.206v2.161h2.206Z" transform="translate(-52.797 -193.542)" fill="#a0a0a0"/>
    <path id="Path_258" data-name="Path 258" d="M277.123,343.764h-2.15v2.164h2.15Z" transform="translate(-117.452 -193.57)" fill="#a0a0a0"/>
    <path id="Path_259" data-name="Path 259" d="M344.068,345.833h2.165v-2.162h-2.165Z" transform="translate(-181.96 -193.483)" fill="#a0a0a0"/>
    <path id="Path_260" data-name="Path 260" d="M414.833,343.688h-2.2v2.163h2.2Z" transform="translate(-245.978 -193.499)" fill="#a0a0a0"/>
    <path id="Path_261" data-name="Path 261" d="M207.928,401.789h-2.206v2.161h2.206Z" transform="translate(-52.797 -247.743)" fill="#a0a0a0"/>
    <path id="Path_262" data-name="Path 262" d="M277.123,401.82h-2.15v2.164h2.15Z" transform="translate(-117.452 -247.772)" fill="#a0a0a0"/>
    <path id="Path_263" data-name="Path 263" d="M344.068,403.889h2.165v-2.162h-2.165Z" transform="translate(-181.96 -247.685)" fill="#a0a0a0"/>
    <path id="Path_264" data-name="Path 264" d="M414.833,401.743h-2.2v2.163h2.2Z" transform="translate(-245.978 -247.7)" fill="#a0a0a0"/>
  </g>
</svg>
