<svg xmlns="http://www.w3.org/2000/svg" width="37.011" height="32.866" viewBox="0 0 37.011 32.866">
  <path id="Path_71" data-name="Path 71" d="M306.774,175.114l4.241,12.337v16.481a2.151,2.151,0,0,1-2.024,2.024h-2.12a2.15,2.15,0,0,1-2.024-2.024v-2.121H280.172v2.121a2.151,2.151,0,0,1-2.024,2.024h-2.121A2.151,2.151,0,0,1,274,203.932V187.451l4.241-12.337a2.929,2.929,0,0,1,2.988-2.024h22.553A2.932,2.932,0,0,1,306.774,175.114Zm-28.625,10.313H306.87l-3.084-9.253H281.233Zm.867,9.349a2.944,2.944,0,0,0,2.169.867,3.111,3.111,0,0,0,2.217-.867,2.866,2.866,0,0,0,.916-2.169,3.126,3.126,0,0,0-3.133-3.133,2.865,2.865,0,0,0-2.169.916,3.107,3.107,0,0,0-.867,2.217A2.943,2.943,0,0,0,279.016,194.776Zm22.6,0a3.108,3.108,0,0,0,2.217.867,2.965,2.965,0,0,0,3.036-3.036,3.108,3.108,0,0,0-.868-2.217,2.863,2.863,0,0,0-2.168-.916,3.126,3.126,0,0,0-3.133,3.133A2.862,2.862,0,0,0,301.617,194.776Z" transform="translate(-274.004 -173.09)" fill="#8cceec"/>
</svg>
