<svg xmlns="http://www.w3.org/2000/svg" width="70" height="70" viewBox="0 0 70 70">
  <g id="Group_645" data-name="Group 645" transform="translate(-955 -419)">
    <circle id="Ellipse_375" data-name="Ellipse 375" cx="35" cy="35" r="35" transform="translate(955 419)" fill="#65aada"/>
    <g id="Group_624" data-name="Group 624" transform="translate(806 435.806)">
      <path id="Path_990" data-name="Path 990" d="M179.436-1.806A13.5,13.5,0,0,1,192.693,9.438a13.151,13.151,0,0,1-3.566,11.587.536.536,0,0,0-.11.765,6.931,6.931,0,0,0,2.332,2.475c.306.18.564.391.446.789a.7.7,0,0,1-.865.5c-1.22-.223-2.442-.45-3.645-.751a11.556,11.556,0,0,0-2.254-.726,8.824,8.824,0,0,0-2.214.65,13.451,13.451,0,1,1-6.09-26.2C177.614-1.659,178.532-1.7,179.436-1.806Zm2.717,20.13c2.214.015,3.393-.859,3.757-2.465.1-.448.1-.847-.406-1.094-.983-.482-1.954-.986-2.925-1.492a.66.66,0,0,0-.853.134c-.382.369-.788.714-1.173,1.08a.577.577,0,0,1-.8.069,10.3,10.3,0,0,1-3.016-3,.622.622,0,0,1,.115-.916c.376-.351.723-.734,1.1-1.087a.666.666,0,0,0,.131-.928c-.533-.937-1.053-1.882-1.553-2.837a.784.784,0,0,0-.929-.474,2.962,2.962,0,0,0-2.461,1.987,4.523,4.523,0,0,0-.027,2.7,11.853,11.853,0,0,0,5.052,6.74A8.127,8.127,0,0,0,182.152,18.324Z" transform="translate(0)" fill="#fff"/>
      <path id="Path_991" data-name="Path 991" d="M326.562,72.932v3.591h14.877c.017-.213.049-.418.049-.624q0-10.342.013-20.684c0-.488-.115-.669-.637-.654-1.3.037-2.592,0-3.888.019-.339,0-.46-.109-.584-.435-.521-1.374-1.1-2.726-1.664-4.105a2.373,2.373,0,0,1,.293-.024c1.728,0,3.456-.01,5.184,0a3.833,3.833,0,0,1,3.867,3.856q.014,13.233,0,26.466a3.8,3.8,0,0,1-3.819,3.843q-6.231.034-12.463,0a3.808,3.808,0,0,1-3.822-3.84c-.017-2.126,0-4.253-.012-6.38,0-.351.095-.478.46-.537C325.1,73.316,325.767,73.121,326.562,72.932Zm7.433,9.514a2.041,2.041,0,0,0,2.087-2.023,2.061,2.061,0,1,0-4.122-.053A2.042,2.042,0,0,0,333.995,82.446Z" transform="translate(-142.209 -46.651)" fill="#fff"/>
    </g>
  </g>
</svg>
