<svg xmlns="http://www.w3.org/2000/svg" width="70" height="70" viewBox="0 0 70 70">
  <g id="Group_646" data-name="Group 646" transform="translate(-1210 -419)">
    <circle id="Ellipse_376" data-name="Ellipse 376" cx="35" cy="35" r="35" transform="translate(1210 419)" fill="#65aada"/>
    <g id="Group_627" data-name="Group 627" transform="translate(1159.393 257.154)">
      <path id="Path_993" data-name="Path 993" d="M87.654,235.554l.316,3.637c-.195,0-.44-.007-.684,0q-4.821.153-9.641.306a.619.619,0,0,0-.65.5c-.77,2.223-1.571,4.435-2.36,6.652-.043.12-.078.242-.128.4H90.753c.006.147.017.27.017.393,0,2.917,0,5.834-.009,8.751a.852.852,0,0,1-.225.535,9.461,9.461,0,0,0-2.283,3.727c-.09.28-.231.343-.5.343q-5.529-.012-11.058-.006h-.557c0,.167,0,.3,0,.442,0,1.107,0,2.214,0,3.321a1.516,1.516,0,0,1-1.679,1.662c-.847,0-1.693.005-2.54,0a1.452,1.452,0,0,1-1.545-1.538q-.01-1.8,0-3.594a.48.48,0,0,0-.285-.518,1.312,1.312,0,0,1-.751-1.234c0-2.7-.006-5.391.029-8.086a11.717,11.717,0,0,1,.291-1.749c-.335,0-.679,0-1.022,0-.709-.008-1.016-.315-1.024-1.032q-.009-.859,0-1.719c.007-.73.317-1.031,1.06-1.033.7,0,1.407-.015,2.11.007.274.009.378-.093.466-.338.865-2.41,1.765-4.808,2.611-7.225a3.091,3.091,0,0,1,2.968-2.215c3.26-.265,6.522-.426,9.794-.388C86.982,235.557,87.345,235.554,87.654,235.554ZM76.542,256.215c.559,0,1.118.007,1.677,0a1.318,1.318,0,0,0,1.382-1.367q.01-.468,0-.936a1.316,1.316,0,0,0-1.313-1.363c-1.143-.027-2.288-.025-3.431,0a1.313,1.313,0,0,0-1.323,1.276,7.15,7.15,0,0,0,0,1.129,1.312,1.312,0,0,0,1.369,1.261C75.451,256.222,76,256.215,76.542,256.215Z" transform="translate(0 -53.194)" fill="#fff"/>
      <path id="Path_994" data-name="Path 994" d="M369.106,180.364c0,.573-.009,1.146,0,1.719a2.5,2.5,0,0,0,2.3,2.477,2.46,2.46,0,0,0,2.629-2.108,16.647,16.647,0,0,0,.071-2.064c.01-.638,0-1.276,0-1.914.005-.609.336-.789.859-.475a6.319,6.319,0,0,1,.335,10.541.742.742,0,0,0-.37.691q.017,7.617,0,15.233a.671.671,0,0,0,.334.631,6.235,6.235,0,0,1-.31,10.477.717.717,0,0,1-.595.08.729.729,0,0,1-.244-.55c-.022-1.171.006-2.344-.017-3.515a2.5,2.5,0,0,0-2.916-2.5,2.566,2.566,0,0,0-2.068,2.42c-.027,1.184,0,2.37-.023,3.554a.829.829,0,0,1-.258.625.819.819,0,0,1-.665-.117,6.327,6.327,0,0,1-.261-10.526.647.647,0,0,0,.312-.6q-.012-7.636,0-15.272a.648.648,0,0,0-.317-.6,6.327,6.327,0,0,1,.281-10.528c.176-.111.49-.206.626-.123a.852.852,0,0,1,.28.613c.036.61.013,1.223.013,1.835Z" transform="translate(-274.365)" fill="#fff"/>
    </g>
  </g>
</svg>
