<svg xmlns="http://www.w3.org/2000/svg" width="70" height="70" viewBox="0 0 70 70">
  <g id="Group_648" data-name="Group 648" transform="translate(-1475 -584)">
    <circle id="Ellipse_378" data-name="Ellipse 378" cx="35" cy="35" r="35" transform="translate(1475 584)" fill="#65aada"/>
    <g id="Group_634" data-name="Group 634" transform="translate(1320.984 307.11)">
      <path id="Path_997" data-name="Path 997" d="M186.514,316.611a12.481,12.481,0,0,1,2.1-3.573h-6.079V310.1h9.652a12.428,12.428,0,0,1,4.415-1.438V292.89H170.016v33.575h16.9a12.455,12.455,0,0,1-1.223-5.4,12.637,12.637,0,0,1,.095-1.519H174.013v-2.935Zm-5.558-11.561h-1.673a2.479,2.479,0,0,1,.234.613h1.437v1.412h-1.414a2.652,2.652,0,0,1-.908,1.545,3.2,3.2,0,0,1-1.422.649c.87,1,1.784,2.162,2.656,3.29l.467.6H178.19l-.11-.14c-.992-1.261-1.909-2.412-3.08-3.726l-.095-.107v-1.343h1.062a2.33,2.33,0,0,0,1.358-.345,1.087,1.087,0,0,0,.355-.427H174.9v-1.412h2.619a1.784,1.784,0,0,0-1.357-.413H174.9v-1.612h6.052Zm10.266,1.7h-8.684v-2.935h8.684Zm-17.209-9.3h17.209v2.935H174.013Z" fill="#fff"/>
      <path id="Path_998" data-name="Path 998" d="M337.824,454.221l-2.7,2.7-2.043-.287-.223-2.33,2.542-2.66c-.289-.459-1.113-.417-1.743-.417a4.736,4.736,0,0,0-4.513,6.176c.079.257.245.48-.044.783-.73.768-.706.792-.046,1.612a6.277,6.277,0,0,0,1.229,1.139c.354.256.641.293.9-.1.3-.446.645-.484,1.169-.325a4.442,4.442,0,0,0,4.642-1.166,4.631,4.631,0,0,0,1.242-4.707C338.137,454.237,338.011,454.127,337.824,454.221Z" transform="translate(-135.284 -135.11)" fill="#fff"/>
      <path id="Path_999" data-name="Path 999" d="M307.11,420.453a9.466,9.466,0,1,0,9.466,9.466A9.466,9.466,0,0,0,307.11,420.453Zm0,16.715a7.249,7.249,0,1,1,7.25-7.249A7.25,7.25,0,0,1,307.11,437.168Z" transform="translate(-108.909 -108.854)" fill="#fff"/>
    </g>
  </g>
</svg>
