<svg xmlns="http://www.w3.org/2000/svg" xmlns:xlink="http://www.w3.org/1999/xlink" width="100.373" height="94.589" viewBox="0 0 122.373 94.589">
  <defs>
    <linearGradient id="linear-gradient" y1="0.5" x2="1" y2="0.5" gradientUnits="objectBoundingBox">
      <stop offset="0" stop-color="#ffbe98"/>
      <stop offset="1" stop-color="#e95d0b"/>
    </linearGradient>
    <linearGradient id="linear-gradient-2" y1="0.5" x2="1" y2="0.5" gradientUnits="objectBoundingBox">
      <stop offset="0" stop-color="#ffde00"/>
      <stop offset="1" stop-color="#ffde00" stop-opacity="0"/>
    </linearGradient>
  </defs>
  <g id="Group_416" data-name="Group 416" transform="translate(-268 -938.903)" style="isolation: isolate">
    <path id="Path_747" data-name="Path 747" d="M1686-209.151l59.77,10.891,57.136-23.121-24.356-3.028-65.65,8.8Z" transform="translate(-1417.996 1231.272)" fill="url(#linear-gradient)"/>
    <g id="Group_386" data-name="Group 386" transform="translate(317.871 938.934)">
      <path id="Path_748" data-name="Path 748" d="M1848.337-436.606a.6.6,0,0,1-.267-.063.621.621,0,0,1-.278-.825l1.677-3.473,26.238-3.731a.741.741,0,0,1,.681.274.766.766,0,0,1,.117.734l-1.281,3.5a.606.606,0,0,1-.781.364.62.62,0,0,1-.358-.793l1.005-2.748-24.816,3.529-1.393,2.885A.607.607,0,0,1,1848.337-436.606Z" transform="translate(-1847.73 444.705)" fill="#997e7c"/>
    </g>
    <g id="Group_387" data-name="Group 387" transform="translate(345.549 938.903)">
      <path id="Path_749" data-name="Path 749" d="M1958.017-433.454a.608.608,0,0,1-.568-.4L1955.9-438l-17.983-5.6a.618.618,0,0,1-.4-.77.606.606,0,0,1,.759-.409L1956.829-439l1.756,4.713a.62.62,0,0,1-.354.795A.6.6,0,0,1,1958.017-433.454Z" transform="translate(-1937.491 444.805)" fill="#997e7c"/>
    </g>
    <path id="Path_750" data-name="Path 750" d="M1772.151-334.149h-2.011a1.136,1.136,0,0,1-1.066-1.528l7.857-15.51a1.136,1.136,0,0,1,1.066-.745h2.5" transform="translate(-1475.408 1319.473)" fill="none" stroke="#3b2825" stroke-miterlimit="10" stroke-width="3"/>
    <path id="Path_751" data-name="Path 751" d="M2029.967-375.972l-20.345-4.482,1.054,2.241,1.949,1.267,17.342,3.572Z" transform="translate(-1641.832 1339.2)" fill="#af7373"/>
    <path id="Path_752" data-name="Path 752" d="M2020.448-352.262c-1.473.529-26.555-2.587-26.555-2.587l6.6,9.128,6.472.664Z" transform="translate(-1630.953 1321.49)" fill="#a62c1a"/>
    <path id="Path_753" data-name="Path 753" d="M1936.387-430.75l43.23,12.852a2.7,2.7,0,0,1,1.925,2.82l-.867,10.32-2.519.9.891-10.273a1.526,1.526,0,0,0-1.069-1.59l-19.672-6.1Z" transform="translate(-1591.179 1373.987)" fill="#b48d88"/>
    <g id="Group_388" data-name="Group 388" transform="translate(275.551 997.785)">
      <ellipse id="Ellipse_331" data-name="Ellipse 331" cx="13.128" cy="4.527" rx="13.128" ry="4.527" transform="translate(0 26.108) rotate(-83.911)" fill="#3b2825"/>
      <path id="Path_754" data-name="Path 754" d="M1726.722-251.322l1.392-.968,8.179,1.334-2.785,26.108-8.068-1.327Z" transform="translate(-1720.828 252.77)" fill="#3b2825"/>
      <ellipse id="Ellipse_332" data-name="Ellipse 332" cx="13.128" cy="4.527" rx="13.128" ry="4.527" transform="translate(8.179 27.442) rotate(-83.911)" fill="#714943"/>
      <ellipse id="Ellipse_333" data-name="Ellipse 333" cx="9.299" cy="2.695" rx="9.299" ry="2.695" transform="translate(11.023 23.829) rotate(-83.911)" fill="#97625c"/>
      <ellipse id="Ellipse_334" data-name="Ellipse 334" cx="3.503" cy="1.208" rx="3.503" ry="1.208" transform="translate(13.117 18.223) rotate(-83.911)" fill="#cc928d"/>
      <ellipse id="Ellipse_335" data-name="Ellipse 335" cx="0.385" cy="0.133" rx="0.385" ry="0.133" transform="translate(14.729 14.208) rotate(-83.911)" fill="#714943"/>
      <ellipse id="Ellipse_336" data-name="Ellipse 336" cx="0.385" cy="0.133" rx="0.385" ry="0.133" transform="translate(14.49 16.351) rotate(-83.911)" fill="#714943"/>
      <ellipse id="Ellipse_337" data-name="Ellipse 337" cx="0.385" cy="0.133" rx="0.385" ry="0.133" transform="translate(15.204 15.305) rotate(-83.911)" fill="#714943"/>
      <ellipse id="Ellipse_338" data-name="Ellipse 338" cx="0.385" cy="0.133" rx="0.385" ry="0.133" transform="translate(13.92 15.16) rotate(-83.911)" fill="#714943"/>
    </g>
    <path id="Path_755" data-name="Path 755" d="M1882.54-399.917l-9.2-24.432-21.6-6.4-16.125,43.161-.225.767s-20.332,15.687-21.314,31.758a6.543,6.543,0,0,0-.041,1.616c33.3-4.549,68.1-14.2,68.1-14.2S1896.182-387.589,1882.54-399.917Z" transform="translate(-1506.531 1373.987)" fill="#d44e19"/>
    <path id="Path_756" data-name="Path 756" d="M1829.9-323.691c-14.234,11.869-14.831,19.146-14.689,21.13a23.572,23.572,0,0,0-1.14,5.8,6.543,6.543,0,0,0-.041,1.616c33.3-4.549,68.1-14.2,68.1-14.2l11.113-16.614,2.779-20.5-13.487,4.842-46.927,12.327-.225.767S1833.041-326.712,1829.9-323.691Z" transform="translate(-1506.531 1315.688)" fill="#d44e19"/>
    <path id="Path_757" data-name="Path 757" d="M2029.914-287.726l15.448-10.349-.575,4.857-14.444,18.8Z" transform="translate(-1655.866 1282.223)" fill="#0c0d0c"/>
    <path id="Path_758" data-name="Path 758" d="M1811.053-387.589l-32.562-3.348,17.583-36.112,31.1-3.7Z" transform="translate(-1481.971 1373.987)" fill="#f79d82"/>
    <path id="Path_759" data-name="Path 759" d="M1892.268-279.864c-4.422-.978-9.413,4.072-12.039,11.7a108.3,108.3,0,0,1-23.609,9.171c-.516-5.347-2.7-9.322-6.03-10.059-5.091-1.126-10.939,5.738-13.061,15.33a33.233,33.233,0,0,0-.588,3.551c6.667-.976,13.305-2.034,19.62-3.093,0-.009,0-.019,0-.028l21.879-3.852h0c9.944-1.853,17.156-5.549,19.307-5.99C1899.7-272.55,1897.281-278.755,1892.268-279.864Z" transform="translate(-1522.397 1269.711)" fill="#0c0d0c"/>
    <path id="Path_760" data-name="Path 760" d="M1976.117-274.37c-2.577,2-4.934,5.589-6.476,10.066-1.083.593-2.176,1.154-3.272,1.692,0,.039-.012.077-.017.117-.787,6.535,1.9,11.778,6.011,11.711s8.075-5.418,8.862-11.953C1981.955-268.779,1979.708-273.713,1976.117-274.37Z" transform="translate(-1611.81 1265.827)" fill="#3b2825"/>
    <path id="Path_761" data-name="Path 761" d="M1728.6-301.634s-9.172,3.769-17.855,14.195q-1.308,1.57-2.332,3.011a30.615,30.615,0,0,0-1.939,13.6l33.109,6.687a6.519,6.519,0,0,1,.04-1.616,23.571,23.571,0,0,1,1.14-5.8c1.039-4.779,2.012-10.752,14.689-21.13,3.137-3.021,5.485-4.833,5.485-4.833l.224-.767Z" transform="translate(-1432.079 1284.685)" fill="#f16130"/>
    <ellipse id="Ellipse_339" data-name="Ellipse 339" cx="13.128" cy="4.527" rx="13.128" ry="4.527" transform="translate(314.112 1030.822) rotate(-83.911)" fill="#3b2825"/>
    <path id="Path_762" data-name="Path 762" d="M1851.906-227.6l1.175-2.128,8.019,1.683-2.785,26.108-8.178-1.71Z" transform="translate(-1531.524 1234.954)" fill="#3b2825"/>
    <ellipse id="Ellipse_340" data-name="Ellipse 340" cx="13.128" cy="4.527" rx="13.128" ry="4.527" transform="translate(322.29 1032.532) rotate(-83.911)" fill="#714943"/>
    <ellipse id="Ellipse_341" data-name="Ellipse 341" cx="7.291" cy="2.113" rx="7.291" ry="2.113" transform="translate(325.927 1026.984) rotate(-83.911)" fill="#97625c"/>
    <ellipse id="Ellipse_342" data-name="Ellipse 342" cx="6.359" cy="1.733" rx="6.359" ry="1.733" transform="translate(326.403 1026.097) rotate(-83.911)" fill="#cc928d"/>
    <ellipse id="Ellipse_343" data-name="Ellipse 343" cx="0.557" cy="0.159" rx="0.557" ry="0.159" transform="translate(328.859 1018.988) rotate(-83.911)" fill="#714943"/>
    <ellipse id="Ellipse_344" data-name="Ellipse 344" cx="0.557" cy="0.159" rx="0.557" ry="0.159" transform="translate(328.515 1022.09) rotate(-83.911)" fill="#714943"/>
    <ellipse id="Ellipse_345" data-name="Ellipse 345" cx="0.557" cy="0.159" rx="0.557" ry="0.159" transform="translate(329.402 1020.561) rotate(-83.911)" fill="#714943"/>
    <ellipse id="Ellipse_346" data-name="Ellipse 346" cx="0.557" cy="0.159" rx="0.557" ry="0.159" transform="translate(327.86 1020.385) rotate(-83.911)" fill="#714943"/>
    <path id="Path_763" data-name="Path 763" d="M1985.149-270.126l2.922-4.244,6.484,1.2-4.285,23.577-6.771-1.25Z" transform="translate(-1623.764 1265.827)" fill="#3b2825"/>
    <ellipse id="Ellipse_347" data-name="Ellipse 347" cx="11.986" cy="7.327" rx="11.986" ry="7.327" transform="matrix(0.202, -0.979, 0.979, 0.202, 359.05, 1014.709)" fill="#714943"/>
    <ellipse id="Ellipse_348" data-name="Ellipse 348" cx="7.453" cy="3.847" rx="7.453" ry="3.847" transform="translate(364.605 1011.064) rotate(-80.257)" fill="#97625c"/>
    <ellipse id="Ellipse_349" data-name="Ellipse 349" cx="6.526" cy="3.166" rx="6.526" ry="3.166" transform="translate(365.433 1010.265) rotate(-80.257)" fill="#cc928d"/>
    <ellipse id="Ellipse_350" data-name="Ellipse 350" cx="0.629" cy="0.282" rx="0.629" ry="0.282" transform="matrix(0.129, -0.992, 0.992, 0.129, 369.667, 1003.238)" fill="#714943"/>
    <ellipse id="Ellipse_351" data-name="Ellipse 351" cx="0.629" cy="0.282" rx="0.629" ry="0.282" transform="matrix(0.129, -0.992, 0.992, 0.129, 369.308, 1006.737)" fill="#714943"/>
    <ellipse id="Ellipse_352" data-name="Ellipse 352" cx="0.629" cy="0.282" rx="0.629" ry="0.282" transform="matrix(0.129, -0.992, 0.992, 0.129, 370.767, 1004.882)" fill="#714943"/>
    <ellipse id="Ellipse_353" data-name="Ellipse 353" cx="0.629" cy="0.282" rx="0.629" ry="0.282" transform="matrix(0.129, -0.992, 0.992, 0.129, 368.289, 1004.966)" fill="#714943"/>
    <path id="Path_764" data-name="Path 764" d="M1809.247-416.364l-14.023,30.5,23.61,2.241,15.064-35.606Z" transform="translate(-1493.543 1366.017)" fill="#fccdc0"/>
    <path id="Path_765" data-name="Path 765" d="M1844.372-411.043l3.462-8.184-24.651,2.863-7.81,16.988Z" transform="translate(-1507.48 1366.017)" fill="#fff6ea"/>
    <path id="Path_766" data-name="Path 766" d="M2075.022-298.645l-1.988-.254-.237,1.745Z" transform="translate(-1685.527 1282.793)" fill="#714943"/>
    <path id="Path_767" data-name="Path 767" d="M1901.719-378.135l36.969-9.711-7.982-23.176-15.022-3.994Z" transform="translate(-1567.201 1363.105)" fill="#fccdc0"/>
    <path id="Path_768" data-name="Path 768" d="M1929.388-415.016l-7.855,20.746c6.064-2.745,19.077-9.063,24.6-11.754l-1.721-5Z" transform="translate(-1580.905 1363.105)" fill="#fff6ea"/>
    <path id="Path_769" data-name="Path 769" d="M1971.18-411.052l4.743,29.514-4.292,1.2-2.861-31.246Z" transform="translate(-1613.577 1360.727)" fill="#d44e19"/>
    <ellipse id="Ellipse_354" data-name="Ellipse 354" cx="2.13" cy="1.212" rx="2.13" ry="1.212" transform="translate(335.647 973.237) rotate(-73.534)" fill="#3b2825"/>
    <ellipse id="Ellipse_355" data-name="Ellipse 355" cx="2.13" cy="1.212" rx="2.13" ry="1.212" transform="translate(329.456 991.02) rotate(-73.534)" fill="#3b2825"/>
    <path id="Path_770" data-name="Path 770" d="M1901.719-321.039l36.969-9.711-.591-1.715-35.651,9.507Z" transform="translate(-1567.201 1306.009)" fill="#714943"/>
    <path id="Path_771" data-name="Path 771" d="M2035-341.631l-.569-1.511,11.615-3.337,2.44.006Z" transform="translate(-1658.991 1315.701)" fill="#714943"/>
    <path id="Path_772" data-name="Path 772" d="M1897.219-338.972h2.01a1.136,1.136,0,0,1,1.067,1.528l-5.7,15.51a1.136,1.136,0,0,1-1.066.744h-2.5" transform="translate(-1559.806 1310.509)" fill="none" stroke="#3b2825" stroke-miterlimit="10" stroke-width="3"/>
    <path id="Path_773" data-name="Path 773" d="M1759.118-280.565s13.167-14.681,24.534-17.494l-24.048-2.472s-9.823,3.2-13.2,17.725Z" transform="translate(-1459.774 1283.922)" fill="#f47a54"/>
    <g id="Group_389" data-name="Group 389" transform="translate(286.625 1001.115)">
      <path id="Path_774" data-name="Path 774" d="M1758.355-239.569l.762-1.238-12.719-2.241.19,1.345Z" transform="translate(-1746.399 243.049)" fill="#0c0d0c"/>
      <path id="Path_775" data-name="Path 775" d="M1758.589-233.9l-11.186-2.037.146,1.031,10.488,1.9Z" transform="translate(-1747.093 238.133)" fill="#0c0d0c"/>
      <path id="Path_776" data-name="Path 776" d="M1748.263-229.849l.13.922,9.191,1.834.586-.952Z" transform="translate(-1747.688 233.919)" fill="#0c0d0c"/>
    </g>
    <path id="Path_777" data-name="Path 777" d="M1743.014-205.681l-7.661,2.155-33.423-6.6-1.64-.4,1.042,2.585,36.572,7.314,5.115-1.526Z" transform="translate(-1427.883 1221.671)" fill="#0c0d0c"/>
    <g id="Group_390" data-name="Group 390" transform="translate(270.365 1004.639)">
      <path id="Path_778" data-name="Path 778" d="M1733.452-217.635a3.425,3.425,0,0,1-.579-.064l-36.471-7.2a3.392,3.392,0,0,1-2.671-3.985,3.39,3.39,0,0,1,3.984-2.671l36.472,7.2a3.392,3.392,0,0,1,2.671,3.985A3.393,3.393,0,0,1,1733.452-217.635Z" transform="translate(-1693.666 231.619)" fill="#c1a29e"/>
    </g>
    <g id="Group_391" data-name="Group 391" transform="translate(299.899 1001.965)">
      <ellipse id="Ellipse_356" data-name="Ellipse 356" cx="4.227" cy="4.487" rx="4.227" ry="4.487" fill="#0c0d0c"/>
      <ellipse id="Ellipse_357" data-name="Ellipse 357" cx="3.197" cy="4.487" rx="3.197" ry="4.487" fill="#97625c"/>
      <ellipse id="Ellipse_358" data-name="Ellipse 358" cx="2.45" cy="3.438" rx="2.45" ry="3.438" transform="translate(0.748 1.049)" fill="#ebd0ce"/>
    </g>
    <path id="Path_779" data-name="Path 779" d="M1693.742-222.9c0,.017-.009.032-.012.048a3.392,3.392,0,0,0,2.671,3.985l36.471,7.2a3.391,3.391,0,0,0,.579.064,3.393,3.393,0,0,0,3.405-2.735c.007-.036.01-.072.016-.107Z" transform="translate(-1423.301 1230.231)" fill="#997e7c"/>
    <path id="Path_780" data-name="Path 780" d="M1809.752-326.3c.994-3.66.056-7.132-2.405-8.194-2.829-1.221-6.6,1.205-8.418,5.42a12.247,12.247,0,0,0-.588,1.691l1.477.14a9.02,9.02,0,0,1,.6-1.984c1.366-3.166,4.2-4.988,6.321-4.071,2.006.866,2.664,3.865,1.581,6.861Z" transform="translate(-1495.699 1307.633)" fill="#f79d82"/>
    <path id="Path_781" data-name="Path 781" d="M1966.143-295.071v0l4.374-25.94-1.156,1.756-3.039,18.555-1.091,6.078C1965.536-294.772,1965.84-294.92,1966.143-295.071Z" transform="translate(-1611.129 1298.088)" fill="#714943"/>
    <path id="Path_782" data-name="Path 782" d="M2039.822-365.735l-15.134,1.295.917,2.434,14.011-1.347Z" transform="translate(-1652.252 1329.02)" fill="#b48d88"/>
    <g id="Group_392" data-name="Group 392" transform="translate(306.714 1005.944)">
      <ellipse id="Ellipse_359" data-name="Ellipse 359" cx="1.638" cy="1.74" rx="1.638" ry="1.74" transform="translate(0 0)" fill="#0c0d0c"/>
      <ellipse id="Ellipse_360" data-name="Ellipse 360" cx="1.239" cy="1.74" rx="1.239" ry="1.74" transform="translate(0 0)" fill="#c89a9b"/>
      <ellipse id="Ellipse_361" data-name="Ellipse 361" cx="0.95" cy="1.333" rx="0.95" ry="1.333" transform="translate(0.29 0.407)" fill="#e50019"/>
      <path id="Path_783" data-name="Path 783" d="M1813.744-226.071a.943.943,0,0,0-.813.654,3.521,3.521,0,0,0,1.621,1.372,1.736,1.736,0,0,0,.142-.693C1814.693-225.474,1814.268-226.071,1813.744-226.071Z" transform="translate(-1812.504 226.478)" fill="url(#linear-gradient-2)"/>
    </g>
    <g id="Group_393" data-name="Group 393" transform="translate(274.115 1000.055)">
      <ellipse id="Ellipse_362" data-name="Ellipse 362" cx="1.638" cy="1.74" rx="1.638" ry="1.74" transform="translate(0 0)" fill="#0c0d0c"/>
      <ellipse id="Ellipse_363" data-name="Ellipse 363" cx="1.239" cy="1.74" rx="1.239" ry="1.74" transform="translate(0 0)" fill="#c89a9b"/>
      <ellipse id="Ellipse_364" data-name="Ellipse 364" cx="0.95" cy="1.333" rx="0.95" ry="1.333" transform="translate(0.29 0.407)" fill="#e50019"/>
      <path id="Path_784" data-name="Path 784" d="M1708.025-245.168a.943.943,0,0,0-.813.653,3.52,3.52,0,0,0,1.621,1.372,1.734,1.734,0,0,0,.142-.693C1708.974-244.571,1708.549-245.168,1708.025-245.168Z" transform="translate(-1706.786 245.575)" fill="url(#linear-gradient-2)"/>
    </g>
    <g id="Group_394" data-name="Group 394" transform="translate(276.621 997.888)">
      <ellipse id="Ellipse_365" data-name="Ellipse 365" cx="4.227" cy="4.487" rx="4.227" ry="4.487" transform="translate(0 0)" fill="#0c0d0c"/>
      <ellipse id="Ellipse_366" data-name="Ellipse 366" cx="3.197" cy="4.487" rx="3.197" ry="4.487" transform="translate(0 0)" fill="#97625c"/>
      <ellipse id="Ellipse_367" data-name="Ellipse 367" cx="2.45" cy="3.438" rx="2.45" ry="3.438" transform="translate(0.748 1.049)" fill="#ebd0ce"/>
    </g>
  </g>
</svg>
