<svg xmlns="http://www.w3.org/2000/svg" width="70" height="70" viewBox="0 0 70 70">
  <g id="Group_649" data-name="Group 649" transform="translate(-1210 -584)">
    <circle id="Ellipse_379" data-name="Ellipse 379" cx="35" cy="35" r="35" transform="translate(1210 584)" fill="#65aada"/>
    <path id="Path_1000" data-name="Path 1000" d="M455.1,259.689a1.1,1.1,0,0,0-.564-1.079,1.078,1.078,0,0,0-1.209.135c-.385.267-.786.51-1.17.778a1.173,1.173,0,0,1-1.475-.014c-.716-.5-1.441-.989-2.165-1.478a1.113,1.113,0,0,0-1.468,0c-.724.49-1.444.984-2.168,1.474a1.133,1.133,0,0,1-1.5,0c-.735-.5-1.464-1-2.2-1.494a1.087,1.087,0,0,0-1.4,0c-.725.488-1.445.982-2.169,1.472a1.147,1.147,0,0,1-1.563-.007c-.713-.482-1.423-.97-2.137-1.452a1.108,1.108,0,0,0-1.468.011c-.734.5-1.47.991-2.2,1.5a1.126,1.126,0,0,1-1.408.006c-.415-.291-.831-.579-1.256-.855a1.02,1.02,0,0,0-1.241.011,1.186,1.186,0,0,0-.43,1.042q.008,7.411,0,14.822,0,7.468,0,14.936a1.084,1.084,0,0,0,.557,1.045,1.061,1.061,0,0,0,1.179-.106c.41-.276.827-.54,1.235-.819a1.136,1.136,0,0,1,1.409.007c.718.5,1.445.983,2.169,1.472a1.133,1.133,0,0,0,1.561-.008c.7-.475,1.4-.955,2.1-1.431a1.136,1.136,0,0,1,1.5-.007c.724.489,1.445.983,2.168,1.473a1.112,1.112,0,0,0,1.468.006q1.118-.754,2.23-1.517a1.114,1.114,0,0,1,1.376,0c.731.5,1.467,1,2.2,1.493a1.127,1.127,0,0,0,1.53,0c.724-.489,1.448-.978,2.166-1.476a1.136,1.136,0,0,1,1.409-.012c.407.279.818.555,1.239.812a1.322,1.322,0,0,0,.523.2c.7.077,1.163-.409,1.163-1.209q0-7.6,0-15.2Q455.1,266.948,455.1,259.689Zm-9.082,9.262h-3.048a4.511,4.511,0,0,1,.426,1.116h2.619v2.574h-2.577a4.833,4.833,0,0,1-1.654,2.815,5.821,5.821,0,0,1-2.591,1.183c1.585,1.819,3.251,3.939,4.841,6l.851,1.1h-3.909l-.2-.255c-1.809-2.3-3.48-4.4-5.614-6.791l-.173-.194v-2.448h1.935a4.246,4.246,0,0,0,2.475-.629,1.981,1.981,0,0,0,.647-.779h-5.057v-2.574h4.773a3.252,3.252,0,0,0-2.472-.752h-2.3v-2.938h11.029Z" transform="translate(804.09 344.249)" fill="#fff"/>
  </g>
</svg>
