<svg xmlns="http://www.w3.org/2000/svg" width="38" height="38" viewBox="0 0 38 38">
  <g id="Group_643" data-name="Group 643" transform="translate(-1288 -244)">
    <circle id="Ellipse_370" data-name="Ellipse 370" cx="19" cy="19" r="19" transform="translate(1288 244)" fill="#ffae7e"/>
    <circle id="Ellipse_371" data-name="Ellipse 371" cx="14" cy="14" r="14" transform="translate(1293 249)" fill="#f58e51"/>
    <path id="Union_2" data-name="Union 2" d="M1661.429,1376l-.182-.25c-1.64-2.251-3.155-4.3-5.09-6.65l-.157-.19v-2.4h1.754a3.633,3.633,0,0,0,2.244-.616,1.912,1.912,0,0,0,.587-.762H1656v-2.521h4.33a2.815,2.815,0,0,0-2.242-.736H1656V1359h10v2.521h-2.764a4.64,4.64,0,0,1,.386,1.093H1666v2.521h-2.339a4.822,4.822,0,0,1-1.5,2.756,5.111,5.111,0,0,1-2.35,1.159c1.436,1.781,2.948,3.86,4.389,5.872l.772,1.078Z" transform="translate(-354 -1104)" fill="#ffae7e"/>
  </g>
</svg>
