<svg xmlns="http://www.w3.org/2000/svg" width="70" height="70" viewBox="0 0 70 70">
  <g id="Group_647" data-name="Group 647" transform="translate(-1475 -419)">
    <circle id="Ellipse_377" data-name="Ellipse 377" cx="35" cy="35" r="35" transform="translate(1475 419)" fill="#65aada"/>
    <g id="Group_628" data-name="Group 628" transform="translate(1389.002 255.113)">
      <path id="Path_995" data-name="Path 995" d="M123.04,180.886v.456q0,4.545,0,9.09a2.448,2.448,0,0,0,2.639,2.628h9.534v.445q0,10.611,0,21.223a2.455,2.455,0,0,1-2.666,2.679H108.7a2.464,2.464,0,0,1-2.7-2.717q0-15.575,0-31.15a2.45,2.45,0,0,1,2.651-2.653H123.04Zm-2.4,17.043h-5.438c-1.039,0-2.079-.007-3.118,0a1.148,1.148,0,0,0-1.22,1.251,1.167,1.167,0,0,0,1.332,1.18h16.771a2.25,2.25,0,0,0,.342-.012,1.1,1.1,0,0,0,.967-.793,1.191,1.191,0,0,0-1.192-1.627Q124.866,197.923,120.645,197.929Zm-.077,9.739H126.2c.976,0,1.952.008,2.928,0a1.217,1.217,0,1,0-.077-2.431q-4.6,0-9.2,0-3.841,0-7.682,0a1.149,1.149,0,0,0-1.222.768,1.2,1.2,0,0,0,1.185,1.663Q116.346,207.675,120.568,207.668Zm-4.847-17.043c-1.179,0-2.357,0-3.536,0a1.22,1.22,0,1,0-.006,2.432q3.555,0,7.11,0a1.22,1.22,0,1,0,.006-2.433C118.1,190.623,116.911,190.625,115.72,190.625Z" transform="translate(0)" fill="#fff"/>
      <path id="Path_996" data-name="Path 996" d="M362.222,190.733v-9.7a1.923,1.923,0,0,1,1.443.49c.376.339.726.708,1.084,1.066q3.131,3.136,6.26,6.275a2.8,2.8,0,0,1,.9,1.469c.022.123.03.249.047.4Z" transform="translate(-236.73 -0.133)" fill="#fff"/>
    </g>
  </g>
</svg>
