<svg xmlns="http://www.w3.org/2000/svg" width="50" height="18.571" viewBox="0 0 25.924 18.571">
  <g id="Group_514" data-name="Group 514" transform="translate(-114.167 155.681)">
    <path id="Path_270" data-name="Path 270" d="M117.265-152.834l4.7,3.673,3.21,2.509q1.894,1.481,3.789,2.96a.789.789,0,0,0,1.148,0c.129-.1.256-.2.383-.3l.2-.155,11.142-8.706a.912.912,0,0,0,.257-1.4,2.747,2.747,0,0,0-2.512-1.434H123.892c-1.471,0-2.954,0-4.423,0a2.767,2.767,0,0,0-2.469,1.4A.926.926,0,0,0,117.265-152.834ZM119.532-154h19.781a.44.44,0,0,1,.272.786l-10.044,7.888-10.23-8.032A.36.36,0,0,1,119.532-154Z" transform="translate(-2.408)" fill="#a0a0a0"/>
    <path id="Path_271" data-name="Path 271" d="M140.091-62.162q0-.48,0-.96v-1.4q0-1.876,0-3.752a.865.865,0,0,0-.506-.871.721.721,0,0,0-.694.059.96.96,0,0,0-.387.811q0,2.419,0,4.837,0,1.69,0,3.38a1.27,1.27,0,0,1-1.345,1.416q-10.028,0-20.055,0a1.268,1.268,0,0,1-1.345-1.383q0-1.117,0-2.234v-2.356q0-1.83,0-3.66a.863.863,0,0,0-.507-.87.727.727,0,0,0-.7.064.921.921,0,0,0-.379.776c0,2.286,0,4.61,0,6.858v1.325a2.892,2.892,0,0,0,3.013,3.153h12.9c2.325,0,4.729,0,7.093,0a2.9,2.9,0,0,0,2.917-3.054C140.092-60.734,140.091-61.46,140.091-62.162Z" transform="translate(0 -80.146)" fill="#a0a0a0"/>
  </g>
</svg>
