<svg xmlns="http://www.w3.org/2000/svg" width="122" height="50.633" viewBox="0 0 122 50.633">
  <g id="Group_21" data-name="Group 21" transform="translate(-286.096 -293.676)">
    <g id="Group_18" data-name="Group 18" transform="translate(286.096 337.478)">
      <path id="Path_56" data-name="Path 56" d="M594.625,531.881a1.583,1.583,0,0,0-.522-.344,1.745,1.745,0,0,0-1.281,0,1.589,1.589,0,0,0-.878.868,1.587,1.587,0,0,0-.128.645,1.624,1.624,0,0,0,.217.834,1.6,1.6,0,0,0,.6.589,1.724,1.724,0,0,0,1.475.091,1.573,1.573,0,0,0,.522-.35,1.535,1.535,0,0,0,.343-.522,1.737,1.737,0,0,0,0-1.287A1.552,1.552,0,0,0,594.625,531.881Z" transform="translate(-533.255 -529.678)" fill="#fff"/>
      <path id="Path_57" data-name="Path 57" d="M774.046,531.709a.765.765,0,0,0-.272-.133,1.542,1.542,0,0,0-.432-.053h-.492v1.259h.5a1.419,1.419,0,0,0,.525-.083.56.56,0,0,0,.275-.211.611.611,0,0,0,.086-.337.591.591,0,0,0-.05-.252A.469.469,0,0,0,774.046,531.709Z" transform="translate(-679.611 -529.765)" fill="#fff"/>
      <path id="Path_58" data-name="Path 58" d="M523.895,531.708a.781.781,0,0,0-.271-.133,1.577,1.577,0,0,0-.434-.053H522.7v1.259h.5a1.427,1.427,0,0,0,.527-.083.555.555,0,0,0,.274-.209.6.6,0,0,0,.089-.339.631.631,0,0,0-.051-.254A.484.484,0,0,0,523.895,531.708Z" transform="translate(-477.376 -529.765)" fill="#fff"/>
      <path id="Path_59" data-name="Path 59" d="M802.269,535.291h1.212l-.608-1.34Z" transform="translate(-703.395 -531.728)" fill="#fff"/>
      <path id="Path_60" data-name="Path 60" d="M286.1,522.347v6.831h122v-6.831Zm6.931,1.758H291.5v3.835h-.662V524.1h-1.524v-.611h3.708Zm5.636,3.835H298V526h-2.368v1.942h-.66v-4.446h.66v1.893H298v-1.893h.658Zm5.007,0h-2.607v-4.446h2.561v.611h-1.9V525.4h1.854v.61h-1.854v1.326h1.948Zm7.988-3.835h-1.776v1.212h1.6v.611h-1.6v2.012h-.661v-4.446h2.436Zm5.63,1.8a2.389,2.389,0,0,1-.265,1.181,1.665,1.665,0,0,1-.7.694,1.994,1.994,0,0,1-.905.213,2.024,2.024,0,0,1-.718-.125,1.713,1.713,0,0,1-.6-.39,1.836,1.836,0,0,1-.409-.644,2.471,2.471,0,0,1-.142-.855v-2.483h.662v2.469a1.841,1.841,0,0,0,.1.629,1.192,1.192,0,0,0,.263.43,1.087,1.087,0,0,0,.386.253,1.309,1.309,0,0,0,.922,0,1.057,1.057,0,0,0,.382-.246,1.2,1.2,0,0,0,.268-.439,1.946,1.946,0,0,0,.105-.669v-2.428h.658Zm5.563-1.8h-1.524v3.835h-.659V524.1h-1.522v-.611h3.7Zm5.605,1.8a2.415,2.415,0,0,1-.263,1.18,1.681,1.681,0,0,1-.7.694,2,2,0,0,1-.907.213,2.02,2.02,0,0,1-.717-.125,1.736,1.736,0,0,1-.6-.39,1.8,1.8,0,0,1-.408-.645,2.4,2.4,0,0,1-.143-.854v-2.483h.66v2.469a1.794,1.794,0,0,0,.1.627,1.191,1.191,0,0,0,.263.432,1.062,1.062,0,0,0,.384.252,1.312,1.312,0,0,0,.92,0,1.034,1.034,0,0,0,.384-.245,1.188,1.188,0,0,0,.268-.439,1.944,1.944,0,0,0,.1-.669v-2.428h.66Zm5.085,2.035-.759-1.205c-.12-.189-.224-.339-.306-.445a1.215,1.215,0,0,0-.211-.216.439.439,0,0,0-.17-.078,1.644,1.644,0,0,0-.3-.021h-.379v1.965h-.66v-4.446h1.214a1.976,1.976,0,0,1,.852.161,1.136,1.136,0,0,1,.51.452,1.218,1.218,0,0,1,.158.618,1.145,1.145,0,0,1-.621,1.039c.025.026.049.055.074.085a3.96,3.96,0,0,1,.287.412l1.091,1.678Zm5.043,0h-2.61v-4.446h2.563v.611h-1.9V525.4h1.854v.61h-1.854v1.326h1.95Zm9.724-1.071a2.233,2.233,0,0,1-.846.824,2.439,2.439,0,0,1-2.337,0,2.279,2.279,0,0,1-.841-3.125,2.245,2.245,0,0,1,.84-.827,2.415,2.415,0,0,1,2.339,0,2.266,2.266,0,0,1,.845.827,2.3,2.3,0,0,1,0,2.3Zm4.962-2.764h-1.776v1.212h1.6v.611h-1.6v2.012h-.66v-4.446h2.436Zm6.084,3.835h-.661v-4.446h.661Zm6.382,0h-.514l-2.832-3.294v3.294h-.662v-4.446h.52l2.826,3.293v-3.293h.661Zm4.633-.59a1.294,1.294,0,0,1-.5.472,1.38,1.38,0,0,1-.675.17,2.033,2.033,0,0,1-1.136-.389l-.076-.051v-.793l.271.194a3.063,3.063,0,0,0,.536.324.828.828,0,0,0,.735-.006.638.638,0,0,0,.251-.236.612.612,0,0,0,.086-.327.5.5,0,0,0-.165-.43,2.909,2.909,0,0,0-.678-.339,2.517,2.517,0,0,1-.785-.438,1.015,1.015,0,0,1-.305-.8,1.189,1.189,0,0,1,.182-.64,1.306,1.306,0,0,1,.487-.455,1.741,1.741,0,0,1,1.7.123l.086.05v.738l-.257-.146a2.918,2.918,0,0,0-.474-.23.932.932,0,0,0-.709.029.609.609,0,0,0-.243.219.558.558,0,0,0-.085.3.426.426,0,0,0,.155.378,3.136,3.136,0,0,0,.677.325,2.41,2.41,0,0,1,.8.454,1.111,1.111,0,0,1,.308.848A1.257,1.257,0,0,1,370.369,527.349Zm6-1.445a2.388,2.388,0,0,1-.265,1.181,1.687,1.687,0,0,1-.7.694,2.073,2.073,0,0,1-1.623.088,1.716,1.716,0,0,1-.6-.39,1.79,1.79,0,0,1-.41-.645,2.476,2.476,0,0,1-.141-.854v-2.483h.658v2.469a1.836,1.836,0,0,0,.1.629,1.165,1.165,0,0,0,.261.43,1.072,1.072,0,0,0,.387.253,1.307,1.307,0,0,0,.917,0,1.029,1.029,0,0,0,.387-.246,1.186,1.186,0,0,0,.268-.439,1.94,1.94,0,0,0,.1-.669v-2.428h.661Zm5.085,2.035-.761-1.205a5.321,5.321,0,0,0-.3-.444,1.066,1.066,0,0,0-.211-.218.442.442,0,0,0-.172-.077,1.623,1.623,0,0,0-.3-.021h-.379v1.965h-.66v-4.446h1.214a1.96,1.96,0,0,1,.85.161,1.129,1.129,0,0,1,.509.452,1.2,1.2,0,0,1,.161.618,1.145,1.145,0,0,1-.622,1.04c.025.026.049.054.073.084a3.9,3.9,0,0,1,.289.412l1.092,1.678Zm5.639,0-.641-1.419h-1.763l-.639,1.419h-.707l2.03-4.475h.4l2.032,4.475Zm6.558,0h-.513l-2.833-3.294v3.294h-.66v-4.446h.52L393,526.787v-3.293h.659Zm6.157-.4-.09.048a3.453,3.453,0,0,1-.745.3,2.952,2.952,0,0,1-.775.106,2.475,2.475,0,0,1-.916-.168,2.273,2.273,0,0,1-.75-.479,2.159,2.159,0,0,1-.5-.726,2.325,2.325,0,0,1-.171-.891,2.256,2.256,0,0,1,.188-.921,2.2,2.2,0,0,1,.515-.733,2.3,2.3,0,0,1,.739-.47,2.62,2.62,0,0,1,1.6-.073,3.764,3.764,0,0,1,.764.275l.1.047v.74l-.252-.134a2.257,2.257,0,0,0-2.189-.159,1.545,1.545,0,0,0-.571.59,1.716,1.716,0,0,0-.21.841,1.759,1.759,0,0,0,.124.656,1.542,1.542,0,0,0,.339.518,1.592,1.592,0,0,0,.522.337,2.036,2.036,0,0,0,1.3.024,3.835,3.835,0,0,0,.726-.306l.252-.134Zm4.674.4h-2.606v-4.446h2.559v.611h-1.9V525.4h1.852v.61h-1.852v1.326h1.948Z" transform="translate(-286.096 -522.347)" fill="#fff"/>
    </g>
    <path id="Path_61" data-name="Path 61" d="M293.927,389.406a18.625,18.625,0,0,1,4.173.465,7.38,7.38,0,0,1,2.269,1.318,6.288,6.288,0,0,1,1.581,2.045,5.735,5.735,0,0,1,.58,2.546,7.069,7.069,0,0,1-1.491,4.512c-.994,1.261-2.494,2.558-4.183,2.626l-3.636.3.081,6.435c.017.2.055.5.107.888a7.443,7.443,0,0,0,.225,1.077c.021.068.062.18.125.335s.106.262.132.32.045.107.064.146h-4.889c.038-.089.094-.219.174-.393a2.365,2.365,0,0,0,.161-.465,5.164,5.164,0,0,0,.242-1.056c.043-.364.07-.648.078-.851V392.171c-.007-.213-.034-.516-.078-.91a5.43,5.43,0,0,0-.242-1.113c-.038-.088-.094-.209-.166-.364s-.13-.272-.168-.35Zm1.651,11.6a4.55,4.55,0,0,0,1.81-1.092,4.725,4.725,0,0,0,1.12-1.747,6.287,6.287,0,0,0,.372-2.2,4.916,4.916,0,0,0-.567-2.08,5.385,5.385,0,0,0-1.347-1.682,3.468,3.468,0,0,0-1.666-.629l-2-.066V401.3Z" transform="translate(-2.401 -77.393)" fill="#fff"/>
    <path id="Path_62" data-name="Path 62" d="M370.986,402.236c1.4,2.12,2.05,3.108,3.407,4.9a34.131,34.131,0,0,0,4.209,4.86h5.416l-1.322-1.05a62.516,62.516,0,0,1-4.67-4.974,37.639,37.639,0,0,1-2.617-3.765l1.169-.807a7.686,7.686,0,0,0,2.765-2.748,7.294,7.294,0,0,0,.665-3.242,4.654,4.654,0,0,0-.8-2.532,7.4,7.4,0,0,0-2-2.046,10.337,10.337,0,0,0-2.72-1.33,9.5,9.5,0,0,0-2.921-.485l-5.45.029c.04.069.093.169.159.3a1.551,1.551,0,0,1,.127.344,5.481,5.481,0,0,1,.284,1.164c.06.439.094.772.1,1v17.227c-.009.21-.038.514-.083.911a7.189,7.189,0,0,1-.247,1.314c-.028.089-.083.224-.162.4s-.14.309-.18.388h5.019c-.039-.09-.1-.222-.172-.4s-.138-.335-.187-.484a8.419,8.419,0,0,1-.223-1.283q-.063-.538-.091-.852v-6.547Zm-.521-11.352.641.179q1.606.508,2.429.859a5.286,5.286,0,0,1,1.7,1.285,5.265,5.265,0,0,1,1.223,3.145,4.049,4.049,0,0,1-1.551,3.107,8.337,8.337,0,0,1-3.68,1.852l-.759.149Z" transform="translate(-64.694 -77.078)" fill="#fff"/>
    <path id="Path_63" data-name="Path 63" d="M463.3,410.586a13,13,0,0,1-2.964,1.234,11.447,11.447,0,0,1-2.978.383,5.586,5.586,0,0,1-3.867-1.495,9.091,9.091,0,0,1-2.424-3.812,14.651,14.651,0,0,1-.8-4.829V391.889c-.012-.183-.04-.454-.089-.816a5.216,5.216,0,0,0-.2-.945,5.6,5.6,0,0,0-.2-.592c-.066-.163-.121-.293-.159-.39h4.851a2.45,2.45,0,0,0-.289.65,7.819,7.819,0,0,0-.245,1.148c-.059.41-.1.723-.115.945v11.248a7.456,7.456,0,0,0,.765,3.515,5.391,5.391,0,0,0,1.916,2.158,4.689,4.689,0,0,0,2.367.737,6.11,6.11,0,0,0,2.082-.367,5.39,5.39,0,0,0,1.825-1.113,5.166,5.166,0,0,0,1.26-1.833,6.32,6.32,0,0,0,.455-2.447v-11.9c-.019-.2-.053-.491-.095-.867a5.356,5.356,0,0,0-.238-1.082c-.049-.144-.106-.294-.172-.448s-.121-.269-.162-.346h4.867c-.038.068-.095.169-.172.3a2.35,2.35,0,0,0-.174.376,3.979,3.979,0,0,0-.252,1.127q-.051.6-.051.937v17.34c.029.2.078.515.149.937a9.512,9.512,0,0,0,.211.983,3.618,3.618,0,0,0,.129.382c.077.207.132.354.159.441H463.82c.051-.087.115-.2.2-.353a2.408,2.408,0,0,0,.217-.5c.059-.211.107-.43.151-.656s.076-.4.095-.527Z" transform="translate(-132.197 -77.183)" fill="#fff"/>
    <path id="Path_64" data-name="Path 64" d="M581.769,398.22c.017.159.028.412.028.757a11.127,11.127,0,0,1-.869,4.367,11.554,11.554,0,0,1-6.253,6.179,12.083,12.083,0,0,1-4.664.891H564.6c.04-.069.091-.163.157-.281a3.409,3.409,0,0,0,.17-.386,4.017,4.017,0,0,0,.268-1.129q.074-.685.073-1.025V389.754c-.02-.238-.058-.576-.117-1.017a5.4,5.4,0,0,0-.283-1.166c-.081-.2-.138-.337-.172-.417s-.066-.152-.1-.222h4.281a13.669,13.669,0,0,1,6.155,1.44,12.27,12.27,0,0,1,4.7,4.033A11.328,11.328,0,0,1,581.769,398.22Zm-11.63,9.818a9.086,9.086,0,0,0,3.066-1.218,9.291,9.291,0,0,0,2.394-2.168,9.735,9.735,0,0,0,1.526-2.829,10.033,10.033,0,0,0,.529-3.276,7.28,7.28,0,0,0-.032-.787,8.654,8.654,0,0,0-1.179-3.638,9.58,9.58,0,0,0-2.741-2.993,8.873,8.873,0,0,0-3.771-1.581l-1.011-.179V408.29Z" transform="translate(-225.155 -75.393)" fill="#fff"/>
    <path id="Path_65" data-name="Path 65" d="M674.446,393.448q-.61-.247-2.524-.769a14.294,14.294,0,0,0-2.972-.45l-.957-.058V400.1c.377-.049.744-.083,1.093-.1s.713-.036,1.075-.051.706-.027,1.037-.036q.42-.029,1.187-.03,1.063,0,2.945.146l-1.987,3.248a13.364,13.364,0,0,0-2.77-.87c-.5-.106-.926-.182-1.267-.225a10.838,10.838,0,0,0-1.313-.065v8.365h1.044a9.223,9.223,0,0,0,1.305-.072c.318-.049.962-.15,1.928-.3q1.236-.2,1.949-.37c.48-.111,1.02-.266,1.625-.464s1.158-.389,1.661-.573l-1.755,4.074H663.774a2.7,2.7,0,0,0,.333-.652,4.912,4.912,0,0,0,.255-1.146q.065-.624.064-.957V392.607c0-.1,0-.256-.015-.479s-.029-.468-.057-.739a3.83,3.83,0,0,0-.16-.768,2.419,2.419,0,0,0-.216-.443q-.13-.209-.2-.327h12.454Z" transform="translate(-305.333 -77.753)" fill="#fff"/>
    <path id="Path_66" data-name="Path 66" d="M751.426,411.953l-11.276-15.206v12.428c.02.2.057.495.11.87a7.572,7.572,0,0,0,.257,1.133c.019.059.064.183.138.373s.127.325.155.4H735.9c.049-.088.117-.221.2-.4s.151-.324.191-.431a5.261,5.261,0,0,0,.212-1.075c.034-.375.051-.666.051-.87v-17.53c-.126-.157-.327-.395-.6-.717a9.318,9.318,0,0,0-.659-.716,7.883,7.883,0,0,0-.949-.767q-.555-.388-.848-.578l5.19-.03L751.1,405.608V391.616c-.019-.166-.049-.407-.094-.724a7.541,7.541,0,0,0-.183-.913,3.789,3.789,0,0,0-.182-.644c-.085-.214-.15-.381-.2-.5h4.916c-.021.04-.05.1-.089.19s-.089.2-.145.33-.11.246-.147.344a4.743,4.743,0,0,0-.2,1.023c-.039.39-.064.686-.076.892v17.56c.023.175.051.427.093.753a6.455,6.455,0,0,0,.187.973c.038.107.085.233.131.379s.1.282.149.409.081.215.1.263Z" transform="translate(-361.701 -76.933)" fill="#fff"/>
    <path id="Path_67" data-name="Path 67" d="M406.424,358.2a16.62,16.62,0,0,0-2.4-.824q-.707-.2-1.581-.368a12.43,12.43,0,0,0-1.307-.2l-.564-.029v24.641c0,.212.016.522.049.933a4.052,4.052,0,0,0,.237,1.105c.049.086.107.192.174.318l.147.267c.028.053.052.094.07.123h-4.883c.038-.067.087-.155.143-.267a2.958,2.958,0,0,0,.174-.411,4.016,4.016,0,0,0,.261-1.092,9.706,9.706,0,0,0,.073-.975V356.962l-.535-.087c-.473,0-104.406.072-105.218.216a19.859,19.859,0,0,0-2.061.463,15.69,15.69,0,0,0-2.7.982l1.27-4.061H407.753Z" transform="translate(-0.328 -49.154)" fill="#fff"/>
    <path id="Path_68" data-name="Path 68" d="M299.586,302.7H417.5l-59.9-9.025Z" transform="translate(-10.906)" fill="#fff"/>
  </g>
</svg>
