<svg xmlns="http://www.w3.org/2000/svg" width="48.157" height="48.227" viewBox="0 0 48.157 48.227">
  <g id="Group_373" data-name="Group 373" transform="translate(-141.379 -215.802)">
    <path id="Path_734" data-name="Path 734" d="M236.875,233.617a17.826,17.826,0,1,1,17.8,17.833A17.781,17.781,0,0,1,236.875,233.617Zm17.791,12.776a12.776,12.776,0,1,0-12.756-12.817A12.739,12.739,0,0,0,254.666,246.393Z" transform="translate(-82.99)" fill="#fed337"/>
    <path id="Path_735" data-name="Path 735" d="M146.117,468.745c-.087,0-.175,0-.262,0-2.393-.121-5.012-3.406-4.382-5.607a4.179,4.179,0,0,1,1.138-1.848c3.286-3,6.621-5.943,9.951-8.892a3.636,3.636,0,0,1,5.135,5.147q-4.392,4.937-8.789,9.869A3.568,3.568,0,0,1,146.117,468.745Z" transform="translate(0 -204.717)" fill="#fed337"/>
    <path id="Path_736" data-name="Path 736" d="M307.826,277.168a1.744,1.744,0,0,1,1.9,1.262,1.693,1.693,0,0,1-1.068,2c-.938.455-1.922.822-2.836,1.32a8.209,8.209,0,0,0-3.977,5.046c-.063.208-.133.415-.212.617a1.733,1.733,0,0,1-3.382-.681,9.764,9.764,0,0,1,9.577-9.568Z" transform="translate(-136.324 -53.328)" fill="#fed337"/>
  </g>
</svg>
