<svg xmlns="http://www.w3.org/2000/svg" width="50" height="25.752" viewBox="0 0 22.207 25.752">
  <g id="Group_512" data-name="Group 512" transform="translate(221.188 -142.509)">
    <path id="Path_281" data-name="Path 281" d="M-198.994,330.31a6.7,6.7,0,0,0-6.519-6.626c-2.994-.068-6.085-.067-9.188,0a6.556,6.556,0,0,0-6.34,5.45,17.317,17.317,0,0,0-.144,2.863c0,.329,0,.67,0,1.005a1.4,1.4,0,0,0,.231.986,1.5,1.5,0,0,0,1.042.254q6.823,0,13.646,0h.158c.169,0,.329,0,.481-.01a.841.841,0,0,0,.8-.735.837.837,0,0,0-.51-.987,2.627,2.627,0,0,0-.831-.108c-3.1-.007-6.246-.006-9.291-.005h-3.882v-.99c0-.326,0-.629,0-.933a4.856,4.856,0,0,1,4.8-4.954c2.84-.052,5.746-.052,8.887,0a4.857,4.857,0,0,1,4.828,4.929c0,.389,0,.783,0,1.164,0,.534-.005,1.087.007,1.627a.908.908,0,0,0,.926,1h.006c.564,0,.892-.372.9-1.012C-198.977,332.1-198.977,331.174-198.994,330.31Z" transform="translate(0 -165.986)" fill="#a0a0a0"/>
    <path id="Path_282" data-name="Path 282" d="M-146.891,155.985a5.179,5.179,0,0,0,5.512-3.955,12.128,12.128,0,0,0,.159-1.917c.008-.13.006-1.237.01-1.445a12.818,12.818,0,0,0-.015-1.3,5.242,5.242,0,0,0-4.866-4.838c-.151-.013-.3-.02-.452-.02a5.084,5.084,0,0,0-5,4.016,19.141,19.141,0,0,0-.155,4.689A5.123,5.123,0,0,0-146.891,155.985Zm-2.987-8.416a3.415,3.415,0,0,1,3.453-3.206,3.448,3.448,0,0,1,3.363,3.208c.027.409.02.817.013,1.211,0,.175-.006.35-.006.525s0,.338.006.507c.007.378.013.77-.013,1.163a3.373,3.373,0,0,1-3.41,3.177h-.046a3.347,3.347,0,0,1-3.362-3.2C-149.934,149.817-149.933,148.677-149.878,147.569Z" transform="translate(-63.618)" fill="#a0a0a0"/>
  </g>
</svg>
