<svg xmlns="http://www.w3.org/2000/svg" width="50" height="18.799" viewBox="0 0 28.649 18.799">
  <g id="Group_513" data-name="Group 513" transform="translate(840.801 184.509)">
    <path id="Path_283" data-name="Path 283" d="M-812.152-175.468v-1.915q0-2.528,0-5.056a2,2,0,0,0-.807-1.68,2.2,2.2,0,0,0-1.381-.39h-24.3a2.179,2.179,0,0,0-1.367.4,2.167,2.167,0,0,0-.739,1.19c-.008.011-.016.023-.023.035l-.032.053v15.446l.032.053.023.035a1.964,1.964,0,0,0,2.079,1.587h12.4l11.983,0a1.988,1.988,0,0,0,2.133-2.151c0-1.9,0-3.581,0-5.353Zm-1.7,8.048a.737.737,0,0,1-.5.109h-24.217c-.292,0-.455-.033-.528-.107s-.107-.241-.107-.54c0-4.932,0-9.423,0-14.356a.719.719,0,0,1,.108-.485.681.681,0,0,1,.471-.108h24.3a.682.682,0,0,1,.472.109.715.715,0,0,1,.108.483v14.383A.777.777,0,0,1-813.851-167.42Z" transform="translate(0)" fill="#a0a0a0"/>
    <path id="Path_284" data-name="Path 284" d="M-775.187,2.718c-.6-.014-1.215-.02-1.826-.02s-1.266.007-1.9.021a3.071,3.071,0,0,0-2.968,2.554,7.3,7.3,0,0,0-.064,1.227c0,.131,0,.266,0,.4a.958.958,0,0,0,.215.7,1,1,0,0,0,.722.229h5.634c.046,0,.107,0,.17-.006a.76.76,0,0,0,.7-.649.755.755,0,0,0-.48-.866,1.427,1.427,0,0,0-.478-.069c-.947,0-1.881,0-2.589,0h-2.308c0-.122,0-.236,0-.35a1.544,1.544,0,0,1,1.523-1.58c.569-.01,1.16-.016,1.757-.016s1.2.005,1.816.015a1.545,1.545,0,0,1,1.533,1.571c0,.154,0,.312,0,.464,0,.219,0,.445,0,.668a.785.785,0,0,0,.8.816h0A.773.773,0,0,0-772.14,7c.006-.459.006-.838,0-1.192A3.127,3.127,0,0,0-775.187,2.718Z" transform="translate(-55.604 -176.872)" fill="#a0a0a0"/>
    <path id="Path_285" data-name="Path 285" d="M-737.159-118.623c.07.006.141.008.211.008a2.511,2.511,0,0,0,2.46-1.93,4.923,4.923,0,0,0,.1-.819c.008-.117-.021-.587-.021-.587s.009-.416-.006-.608a2.544,2.544,0,0,0-.738-1.6,2.611,2.611,0,0,0-1.61-.74c-.071-.006-.143-.009-.214-.009a2.542,2.542,0,0,0-1.561.544,2.388,2.388,0,0,0-.879,1.421,8.1,8.1,0,0,0-.069,2A2.488,2.488,0,0,0-737.159-118.623Zm-.749-3.8a.956.956,0,0,1,.95-.892h.015a.966.966,0,0,1,.942.9c.01.148.007.3,0,.454,0,.072,0,.146,0,.219s0,.143,0,.212c0,.151.005.293,0,.434a.945.945,0,0,1-.955.888h-.013a.933.933,0,0,1-.94-.887C-737.93-121.541-737.93-121.988-737.908-122.421Z" transform="translate(-95.692 -56.311)" fill="#a0a0a0"/>
    <path id="Path_286" data-name="Path 286" d="M-576.154-36.994h10.54v-1.382h-10.54Z" transform="translate(-250.037 -138.066)" fill="#a0a0a0"/>
    <path id="Path_287" data-name="Path 287" d="M-576.2,19.168h6.617V17.782H-576.2Z" transform="translate(-249.997 -191.123)" fill="#a0a0a0"/>
    <path id="Path_288" data-name="Path 288" d="M-574.9-126.493h-1.269v1.38h1.269Z" transform="translate(-250.025 -54.813)" fill="#a0a0a0"/>
    <path id="Path_289" data-name="Path 289" d="M-525.765-126.493h-1.269v1.38h1.269Z" transform="translate(-296.445 -54.813)" fill="#a0a0a0"/>
  </g>
</svg>
