<svg xmlns="http://www.w3.org/2000/svg" width="50" height="27.274" viewBox="0 0 17.959 27.274">
  <g id="Group_478" data-name="Group 478" transform="translate(-541.619 -136.258)">
    <path id="Path_265" data-name="Path 265" d="M559.578,146.867q0-3.618,0-7.235a3.174,3.174,0,0,0-3.372-3.373H544.993a3.178,3.178,0,0,0-3.374,3.372q0,10.263,0,20.526a3.18,3.18,0,0,0,3.373,3.374H556.2a3.179,3.179,0,0,0,3.374-3.373q0-3.622,0-7.245v-6.046Zm-1.653,13.527a1.485,1.485,0,0,1-1.484,1.484c-1.876,0-3.824,0-5.791,0-1.9,0-3.877,0-5.885,0a1.484,1.484,0,0,1-1.493-1.475c-.007-.537,0-1.084,0-1.613q0-.244,0-.488h14.653q0,.195,0,.39C557.93,159.251,557.933,159.828,557.925,160.394Zm-14.623-3.78V142.583h14.6v14.031Zm-.011-17.422a1.448,1.448,0,0,1,1.433-1.279c1.987,0,3.987-.006,5.943-.006,1.941,0,3.894,0,5.805.006a1.474,1.474,0,0,1,1.452,1.444c.009.4.007.8,0,1.221q0,.157,0,.316H543.279c0-.126,0-.25-.007-.373A12.8,12.8,0,0,1,543.291,139.192Z" transform="translate(0)" fill="#a0a0a0"/>
    <path id="Path_266" data-name="Path 266" d="M597.732,337.812c-.567-.109-1.139-.277-1.692-.44l-.145-.042a1.162,1.162,0,0,0-.329-.05.976.976,0,0,0-.713.321c-.247.248-.5.491-.768.748l-.18.173-.164-.168c-.255-.261-.5-.507-.733-.757a.942.942,0,0,0-.7-.322h0a1.1,1.1,0,0,0-.27.036c-.849.217-1.6.4-2.285.567a1.548,1.548,0,0,0-1.232,1.194,13.813,13.813,0,0,0-.253,1.861.872.872,0,0,0,.205.689.8.8,0,0,0,.6.246h0c.225,0,.754-.087.816-.891.037-.478.1-.955.15-1.317.016-.113.057-.185.221-.221.258-.057.516-.123.765-.186.3-.077.616-.157.924-.22l.023,0a.356.356,0,0,1,.2.066c.243.218.479.458.707.69.112.114.229.233.346.348a1.018,1.018,0,0,0,.686.347.974.974,0,0,0,.669-.327c.122-.116.244-.236.362-.352.237-.233.483-.474.736-.691a.388.388,0,0,1,.215-.065.2.2,0,0,1,.04,0c.26.054.525.127.781.2.225.062.457.126.691.179.161.037.192.095.2.211.031.411.058.848.081,1.333a.827.827,0,0,0,.826.894.793.793,0,0,0,.583-.231.922.922,0,0,0,.238-.683c-.009-.425-.023-.918-.079-1.4A1.794,1.794,0,0,0,597.732,337.812Z" transform="translate(-43.25 -186.386)" fill="#a0a0a0"/>
    <path id="Path_267" data-name="Path 267" d="M626.369,240.016v.014c.005.046.01.1.016.166a6.307,6.307,0,0,0,.084.653,4.349,4.349,0,0,0,1.391,2.678,2.171,2.171,0,0,0,1.394.549,2.056,2.056,0,0,0,.444-.05,2.519,2.519,0,0,0,1.738-1.545,6.452,6.452,0,0,0,.581-2.793,2.388,2.388,0,0,0-.775-1.933,3.012,3.012,0,0,0-2-.756v.127h0V237h0a3.877,3.877,0,0,0-1.405.285A2.573,2.573,0,0,0,626.368,240Zm1.633-.135h0c.009-.535.043-.876.447-1.084a1.627,1.627,0,0,1,.718-.148,1.312,1.312,0,0,1,.923.291,1.275,1.275,0,0,1,.276.7,4.128,4.128,0,0,1-.422,2.157c-.153.3-.392.656-.658.656-.182,0-.4-.162-.642-.469A3.884,3.884,0,0,1,628,239.881Z" transform="translate(-78.581 -93.409)" fill="#a0a0a0"/>
    <path id="Path_268" data-name="Path 268" d="M649.692,440.355h0a1.407,1.407,0,0,0-.983,2.4,1.371,1.371,0,0,0,.982.412,1.408,1.408,0,0,0,.982-2.4A1.369,1.369,0,0,0,649.692,440.355Z" transform="translate(-98.917 -281.965)" fill="#a0a0a0"/>
    <path id="Path_269" data-name="Path 269" d="M630.593,169.893c.456,0,.92,0,1.378,0s.924,0,1.384,0a.837.837,0,0,0,.9-.8.783.783,0,0,0-.213-.573.945.945,0,0,0-.681-.277c-.163,0-.338,0-.55,0h-1.669c-.211,0-.386,0-.548,0a.946.946,0,0,0-.68.277.785.785,0,0,0-.213.573A.837.837,0,0,0,630.593,169.893Z" transform="translate(-81.667 -29.657)" fill="#a0a0a0"/>
  </g>
</svg>
