<svg xmlns="http://www.w3.org/2000/svg" width="63.099" height="46.604" viewBox="0 0 63.099 46.604">
  <g id="Group_374" data-name="Group 374" transform="translate(-83.951 -221.848)">
    <path id="Path_737" data-name="Path 737" d="M145.459,221.848a1.486,1.486,0,0,1,1.349,2.312c-1.286,2.252-2.6,4.487-3.907,6.727l-21.322,36.606c-.678,1.164-1.048,1.23-2.081.4q-7.809-6.262-15.623-12.519c-.749-.6-.751-.638.027-1.219l24.834-18.566c.209-.157.489-.284.6-.5.129-.256.247-.69.12-.861-.161-.216-.567-.284-.881-.338-.133-.023-.3.144-.451.237q-13.757,8.712-27.518,17.418a1.406,1.406,0,0,0-.719,1.129c-.406,3.023-.857,6.039-1.314,9.054-.032.213-.232.4-.354.6a2.323,2.323,0,0,1-.357-.624c-.892-4.352-1.76-8.709-2.659-13.06a1.6,1.6,0,0,0-.516-.851q-5.085-4.168-10.206-8.292a1.117,1.117,0,0,1-.509-1.119c.09-.522.5-.667.935-.783q12.941-3.438,25.882-6.879c9.047-2.409,18.087-4.843,27.142-7.222,2.379-.625,4.8-1.084,7.2-1.616A2.932,2.932,0,0,1,145.459,221.848Z" transform="translate(0 0)" fill="#f16a55"/>
    <path id="Path_738" data-name="Path 738" d="M217.345,490.216l4.851,3.957a2.551,2.551,0,0,1-.359.31c-1.63.917-3.262,1.833-4.9,2.73a.755.755,0,0,1-.588.057c-.1-.046-.147-.345-.123-.517.3-2.13.614-4.257.926-6.385Z" transform="translate(-114.956 -233.245)" fill="#f16a55"/>
  </g>
</svg>
