<svg xmlns="http://www.w3.org/2000/svg" width="1170.205" height="269.956" viewBox="0 0 1170.205 269.956">
  <g id="Group_218" data-name="Group 218" transform="translate(-868 -687.5)">
    <path id="Path_79" data-name="Path 79" d="M439.4,249.274V356.431h91.484V249.274Zm58.324,5.232h7.516v4.018h-7.516Zm0,9.224h7.516v4.02h-7.516Zm0,9.227h7.516v4.02h-7.516Zm-16.342-18.45H488.9v4.018h-7.518Zm0,9.224H488.9v4.02h-7.518Zm0,9.227H488.9v4.02h-7.518Zm-16.34-18.45h7.516v4.018h-7.516Zm0,9.224h7.516v4.02h-7.516Zm0,9.227h7.516v4.02h-7.516Zm-16.342-18.45h7.516v4.018h-7.516Zm0,9.224h7.516v4.02h-7.516Zm0,9.227h7.516v4.02h-7.516Zm7.516,46.788h-7.516v-4.018h7.516Zm0-9.224h-7.516V306.5h7.516Zm0-9.466h-7.516V293.7h7.516Zm16.342,18.69h-7.516v-4.018h7.516Zm0-9.224h-7.516V306.5h7.516Zm0-9.466h-7.516V293.7h7.516Zm16.342,18.69h-7.518v-4.018H488.9Zm0-9.224h-7.518V306.5H488.9Zm0-9.466h-7.518V293.7H488.9Zm16.34,18.69h-7.516v-4.018h7.516Zm0-9.224h-7.516V306.5h7.516Zm0-9.466h-7.516V293.7h7.516Zm16.342,18.69H514.07v-4.018h7.516Zm0-9.224H514.07V306.5h7.516Zm0-9.466H514.07V293.7h7.516Zm0-12.614H448.705v-1.224h72.881Zm0-4.316H448.705V282.9h72.881Zm0-7.148H514.07v-4.02h7.516Zm0-9.226H514.07v-4.02h7.516Zm0-9.227H514.07v-4.018h7.516Z" transform="translate(852.624 600.561)" fill="#d3f3ff"/>
    <ellipse id="Ellipse_38" data-name="Ellipse 38" cx="40.584" cy="40.028" rx="40.584" ry="40.028" transform="translate(1250.489 847.612)" fill="#bbe8f9"/>
    <path id="Path_873" data-name="Path 873" d="M0,92.279V0" transform="translate(1290.945 864.854)" fill="none" stroke="#aaddf5" stroke-width="2"/>
    <line id="Line_8" data-name="Line 8" x1="24.073" y2="19.392" transform="translate(1290.945 882.908)" fill="none" stroke="#aaddf5" stroke-width="2"/>
    <path id="Subtraction_2" data-name="Subtraction 2" d="M112.856,192.736H78.284v-26.12H35.367v26.12H0V0H112.856V192.735ZM92.11,150.752v9.118h9.272v-9.118Zm-20.158,0v9.118h9.272v-9.118Zm-20.158,0v9.118h9.272v-9.118Zm-20.159,0v9.118h9.272v-9.118Zm-20.158,0v9.118h9.272v-9.118Zm80.634-20.93v9.12h9.272v-9.12Zm-20.158,0v9.12h9.272v-9.12Zm-20.158,0v9.12h9.272v-9.12Zm-20.159,0v9.12h9.272v-9.12Zm-20.158,0v9.12h9.272v-9.12ZM92.11,100.78v16.69h9.272V100.78Zm-20.158,0v16.69h9.272V100.78Zm-20.158,0v16.69h9.272V100.78Zm-20.159,0v16.69h9.272V100.78Zm-20.158,0v16.69h9.272V100.78Zm0-14.708V88.85h89.906V86.072Zm0-9.788V79.06h89.906V76.284ZM92.11,53.724v9.12h9.272v-9.12Zm-20.158,0v9.12h9.272v-9.12Zm-20.158,0v9.12h9.272v-9.12Zm-20.159,0v9.12h9.272v-9.12Zm-20.158,0v9.12h9.272v-9.12ZM92.11,32.794v9.12h9.272v-9.12Zm-20.158,0v9.12h9.272v-9.12Zm-20.158,0v9.12h9.272v-9.12Zm-20.159,0v9.12h9.272v-9.12Zm-20.158,0v9.12h9.272v-9.12ZM92.11,11.863v9.12h9.272v-9.12Zm-20.158,0v9.12h9.272v-9.12Zm-20.158,0v9.12h9.272v-9.12Zm-20.159,0v9.12h9.272v-9.12Zm-20.158,0v9.12h9.272v-9.12Z" transform="translate(1126.448 764.22)" fill="#bbe8f9" stroke="rgba(0,0,0,0)" stroke-miterlimit="10" stroke-width="1"/>
    <path id="Path_77" data-name="Path 77" d="M414.62,237.7V374.385h63.2V237.7Zm40.291,6.671H460.1v5.127h-5.194Zm0,11.77H460.1v5.125h-5.194Zm0,11.767H460.1v5.127h-5.194Zm-11.288-23.537h5.191v5.127h-5.191Zm0,11.77h5.191v5.125h-5.191Zm0,11.767h5.191v5.127h-5.191Zm-11.29-23.537h5.194v5.127h-5.194Zm0,11.77h5.194v5.125h-5.194Zm0,11.767h5.194v5.127h-5.194Zm-11.288-23.537h5.194v5.127h-5.194Zm0,11.77h5.194v5.125h-5.194Zm0,11.767h5.194v5.127h-5.194Zm5.194,59.685h-5.194v-5.127h5.194Zm0-11.77h-5.194v-5.127h5.194Zm0-12.071h-5.194v-9.385h5.194Zm11.288,23.84h-5.194v-5.127h5.194Zm0-11.77h-5.194v-5.127h5.194Zm0-12.071h-5.194v-9.385h5.194Zm11.288,23.84h-5.191v-5.127h5.191Zm0-11.77h-5.191v-5.127h5.191Zm0-12.071h-5.191v-9.385h5.191Zm11.29,23.84h-5.194v-5.127H460.1Zm0-11.77h-5.194v-5.127H460.1Zm0-12.071h-5.194v-9.385H460.1Zm11.288,23.84H466.2v-5.127h5.194Zm0-11.77H466.2v-5.127h5.194Zm0-12.071H466.2v-9.385h5.194Zm0-16.093H421.046v-1.561h50.347Zm0-5.5H421.046V280.59h50.347Zm0-9.119H466.2V267.9h5.194Zm0-11.77H466.2v-5.125h5.194Zm0-11.767H466.2v-5.127h5.194Z" transform="translate(972.165 582.117)" fill="#d3f3ff"/>
    <path id="Path_78" data-name="Path 78" d="M414.62,201.355v97.178h63.2V201.355Zm40.291,6.673H460.1v5.125h-5.194Zm0,11.767H460.1v5.127h-5.194Zm0,11.77H460.1v5.127h-5.194Zm-11.288-23.537h5.191v5.125h-5.191Zm0,11.767h5.191v5.127h-5.191Zm0,11.77h5.191v5.127h-5.191Zm-11.29-23.537h5.194v5.125h-5.194Zm0,11.767h5.194v5.127h-5.194Zm0,11.77h5.194v5.127h-5.194Zm-11.288-23.537h5.194v5.125h-5.194Zm0,11.767h5.194v5.127h-5.194Zm0,11.77h5.194v5.127h-5.194Zm5.194,59.683h-5.194v-5.127h5.194Zm0-11.767h-5.194v-5.127h5.194Zm0-12.073h-5.194v-9.385h5.194Zm11.288,23.84h-5.194v-5.127h5.194Zm0-11.767h-5.194v-5.127h5.194Zm0-12.073h-5.194v-9.385h5.194Zm11.288,23.84h-5.191v-5.127h5.191Zm0-11.767h-5.191v-5.127h5.191Zm0-12.073h-5.191v-9.385h5.191Zm11.29,23.84h-5.194v-5.127H460.1Zm0-11.767h-5.194v-5.127H460.1Zm0-12.073h-5.194v-9.385H460.1Zm11.288,23.84H466.2v-5.127h5.194Zm0-11.767H466.2v-5.127h5.194Zm0-12.073H466.2v-9.385h5.194Zm0-16.093H421.046v-1.561h50.347Zm0-5.5H421.046v-1.561h50.347Zm0-9.117H466.2v-5.127h5.194Zm0-11.77H466.2V219.8h5.194Zm0-11.77H466.2v-5.125h5.194Z" transform="translate(972.165 518.046)" fill="#d3f3ff"/>
    <path id="Path_83" data-name="Path 83" d="M414.62,201.355v130.5h84.871v-130.5Zm54.109,8.962H475.7V217.2h-6.975Zm0,15.8H475.7V233h-6.975Zm0,15.806H475.7v6.886h-6.975ZM453.57,210.317h6.971V217.2H453.57Zm0,15.8h6.971V233H453.57Zm0,15.806h6.971v6.886H453.57Zm-15.162-31.609h6.975V217.2h-6.975Zm0,15.8h6.975V233h-6.975Zm0,15.806h6.975v6.886h-6.975Zm-15.159-31.609h6.975V217.2h-6.975Zm0,15.8h6.975V233h-6.975Zm0,15.806h6.975v6.886h-6.975Zm6.975,80.151h-6.975V315.19h6.975Zm0-15.8h-6.975v-6.886h6.975Zm0-16.214h-6.975v-12.6h6.975Zm15.159,32.016h-6.975V315.19h6.975Zm0-15.8h-6.975v-6.886h6.975Zm0-16.214h-6.975v-12.6h6.975Zm15.159,32.016H453.57V315.19h6.971Zm0-15.8H453.57v-6.886h6.971Zm0-16.214H453.57v-12.6h6.971ZM475.7,322.076h-6.975V315.19H475.7Zm0-15.8h-6.975v-6.886H475.7Zm0-16.214h-6.975v-12.6H475.7Zm15.159,32.016h-6.975V315.19h6.975Zm0-15.8h-6.975v-6.886h6.975Zm0-16.214h-6.975v-12.6h6.975Zm0-21.613H423.249v-2.1h67.613Zm0-7.393H423.249v-2.1h67.613Zm0-12.243h-6.975v-6.886h6.975Zm0-15.806h-6.975v-6.886h6.975Zm0-15.806h-6.975v-6.882h6.975Z" transform="translate(1126.071 625.131)" fill="rgba(170,221,245,0.4)"/>
    <path id="Path_91" data-name="Path 91" d="M414.62,201.355v130.5h84.871v-130.5Zm54.109,8.962H475.7V217.2h-6.975Zm0,15.8H475.7V233h-6.975Zm0,15.806H475.7v6.886h-6.975ZM453.57,210.317h6.971V217.2H453.57Zm0,15.8h6.971V233H453.57Zm0,15.806h6.971v6.886H453.57Zm-15.162-31.609h6.975V217.2h-6.975Zm0,15.8h6.975V233h-6.975Zm0,15.806h6.975v6.886h-6.975Zm-15.159-31.609h6.975V217.2h-6.975Zm0,15.8h6.975V233h-6.975Zm0,15.806h6.975v6.886h-6.975Zm6.975,80.151h-6.975V315.19h6.975Zm0-15.8h-6.975v-6.886h6.975Zm0-16.214h-6.975v-12.6h6.975Zm15.159,32.016h-6.975V315.19h6.975Zm0-15.8h-6.975v-6.886h6.975Zm0-16.214h-6.975v-12.6h6.975Zm15.159,32.016H453.57V315.19h6.971Zm0-15.8H453.57v-6.886h6.971Zm0-16.214H453.57v-12.6h6.971ZM475.7,322.076h-6.975V315.19H475.7Zm0-15.8h-6.975v-6.886H475.7Zm0-16.214h-6.975v-12.6H475.7Zm15.159,32.016h-6.975V315.19h6.975Zm0-15.8h-6.975v-6.886h6.975Zm0-16.214h-6.975v-12.6h6.975Zm0-21.613H423.249v-2.1h67.613Zm0-7.393H423.249v-2.1h67.613Zm0-12.243h-6.975v-6.886h6.975Zm0-15.806h-6.975v-6.886h6.975Zm0-15.806h-6.975v-6.882h6.975Z" transform="translate(1126.071 486.145)" fill="rgba(170,221,245,0.4)"/>
    <path id="Path_84" data-name="Path 84" d="M0,0V130.5H84.871V0ZM54.109,8.962h6.975v6.882H54.109Zm0,15.8h6.975V31.65H54.109Zm0,15.806h6.975v6.886H54.109ZM38.95,8.962h6.971v6.882H38.95Zm0,15.8h6.971V31.65H38.95Zm0,15.806h6.971v6.886H38.95ZM23.788,8.962h6.975v6.882H23.788Zm0,15.8h6.975V31.65H23.788Zm0,15.806h6.975v6.886H23.788ZM8.629,8.962H15.6v6.882H8.629Zm0,15.8H15.6V31.65H8.629Zm0,15.806H15.6v6.886H8.629ZM15.6,120.721H8.629v-6.886H15.6Zm0-15.8H8.629V98.033H15.6Zm0-16.214H8.629V76.1H15.6Zm15.159,32.016H23.788v-6.886h6.975Zm0-15.8H23.788V98.033h6.975Zm0-16.214H23.788V76.1h6.975Zm15.159,32.016H38.95v-6.886h6.971Zm0-15.8H38.95V98.033h6.971Zm0-16.214H38.95V76.1h6.971Zm15.162,32.016H54.109v-6.886h6.975Zm0-15.8H54.109V98.033h6.975Zm0-16.214H54.109V76.1h6.975Zm15.159,32.016H69.267v-6.886h6.975Zm0-15.8H69.267V98.033h6.975Zm0-16.214H69.267V76.1h6.975Zm0-21.613H8.629V65H76.242Zm0-7.393H8.629V57.6H76.242Zm0-12.243H69.267V40.57h6.975Zm0-15.806H69.267V24.764h6.975Zm0-15.806H69.267V8.962h6.975Z" transform="translate(1756.067 872.073) rotate(90)" fill="rgba(170,221,245,0.4)"/>
    <path id="Path_97" data-name="Path 97" d="M0,0V130.5H84.5V0ZM53.874,8.962h6.944v6.882H53.874Zm0,15.8h6.944V31.65H53.874Zm0,15.806h6.944v6.886H53.874ZM38.781,8.962h6.941v6.882H38.781Zm0,15.8h6.941V31.65H38.781Zm0,15.806h6.941v6.886H38.781ZM23.685,8.962h6.944v6.882H23.685Zm0,15.8h6.944V31.65H23.685Zm0,15.806h6.944v6.886H23.685ZM8.592,8.962h6.944v6.882H8.592Zm0,15.8h6.944V31.65H8.592Zm0,15.806h6.944v6.886H8.592Zm6.944,80.151H8.592v-6.886h6.944Zm0-15.8H8.592V98.033h6.944Zm0-16.214H8.592V76.1h6.944Zm15.093,32.016H23.685v-6.886h6.944Zm0-15.8H23.685V98.033h6.944Zm0-16.214H23.685V76.1h6.944Zm15.093,32.016H38.781v-6.886h6.941Zm0-15.8H38.781V98.033h6.941Zm0-16.214H38.781V76.1h6.941Zm15.1,32.016H53.874v-6.886h6.944Zm0-15.8H53.874V98.033h6.944Zm0-16.214H53.874V76.1h6.944Zm15.093,32.016H68.967v-6.886h6.944Zm0-15.8H68.967V98.033h6.944Zm0-16.214H68.967V76.1h6.944Zm0-21.613H8.592V65h67.32Zm0-7.393H8.592V57.6h67.32Zm0-12.243H68.967V40.57h6.944Zm0-15.806H68.967V24.764h6.944Zm0-15.806H68.967V8.962h6.944Z" transform="translate(1024.446 872.073) rotate(90)" fill="rgba(170,221,245,0.4)"/>
    <path id="Path_80" data-name="Path 80" d="M439.4,220.785v76.179h91.484V220.785Zm58.324,5.229h7.516v4.02h-7.516Zm0,9.226h7.516v4.018h-7.516Zm0,9.224h7.516v4.02h-7.516Zm-16.342-18.45H488.9v4.02h-7.518Zm0,9.226H488.9v4.018h-7.518Zm0,9.224H488.9v4.02h-7.518Zm-16.34-18.45h7.516v4.02h-7.516Zm0,9.226h7.516v4.018h-7.516Zm0,9.224h7.516v4.02h-7.516Zm-16.342-18.45h7.516v4.02h-7.516Zm0,9.226h7.516v4.018h-7.516Zm0,9.224h7.516v4.02h-7.516Zm7.516,46.791h-7.516v-4.02h7.516Zm0-9.226h-7.516v-4.02h7.516Zm0-9.464h-7.516v-7.357h7.516Zm16.342,18.69h-7.516v-4.02h7.516Zm0-9.226h-7.516v-4.02h7.516Zm0-9.464h-7.516v-7.357h7.516Zm16.342,18.69h-7.518v-4.02H488.9Zm0-9.226h-7.518v-4.02H488.9Zm0-9.464h-7.518v-7.357H488.9Zm16.34,18.69h-7.516v-4.02h7.516Zm0-9.226h-7.516v-4.02h7.516Zm0-9.464h-7.516v-7.357h7.516Zm16.342,18.69H514.07v-4.02h7.516Zm0-9.226H514.07v-4.02h7.516Zm0-9.464H514.07v-7.357h7.516Zm0-12.617H448.705v-1.224h72.881Zm0-4.314H448.705v-1.224h72.881Zm0-7.15H514.07v-4.02h7.516Zm0-9.226H514.07v-4.018h7.516Zm0-9.224H514.07v-4.02h7.516Z" transform="translate(852.624 549.291)" fill="#d3f3ff"/>
    <path id="Path_81" data-name="Path 81" d="M439.4,191.324V267.5h57.007V191.324Zm36.345,5.229h4.683v4.018h-4.683Zm0,9.227h4.683V209.8h-4.683Zm0,9.224h4.683v4.02h-4.683Zm-10.183-18.45h4.683v4.018h-4.683Zm0,9.227h4.683V209.8h-4.683Zm0,9.224h4.683v4.02h-4.683Zm-10.183-18.45h4.683v4.018h-4.683Zm0,9.227h4.683V209.8h-4.683Zm0,9.224h4.683v4.02h-4.683ZM445.2,196.553h4.683v4.018H445.2Zm0,9.227h4.683V209.8H445.2Zm0,9.224h4.683v4.02H445.2Zm4.683,46.791H445.2v-4.02h4.683Zm0-9.227H445.2v-4.02h4.683Zm0-9.464H445.2v-7.357h4.683Zm10.183,18.69h-4.683v-4.02h4.683Zm0-9.227h-4.683v-4.02h4.683Zm0-9.464h-4.683v-7.357h4.683Zm10.183,18.69h-4.683v-4.02h4.683Zm0-9.227h-4.683v-4.02h4.683Zm0-9.464h-4.683v-7.357h4.683Zm10.183,18.69h-4.683v-4.02h4.683Zm0-9.227h-4.683v-4.02h4.683Zm0-9.464h-4.683v-7.357h4.683Zm10.183,18.69h-4.683v-4.02h4.683Zm0-9.227h-4.683v-4.02h4.683Zm0-9.464h-4.683v-7.357h4.683Zm0-12.617H445.2v-1.224h45.416Zm0-4.316H445.2V224.95h45.416Zm0-7.148h-4.683V215h4.683Zm0-9.226h-4.683V205.78h4.683Zm0-9.226h-4.683v-4.018h4.683Z" transform="translate(852.624 499.154)" fill="#d3f3ff"/>
    <path id="Path_82" data-name="Path 82" d="M-130.753-17.963V-92.617a7.711,7.711,0,0,1,7.711-7.71h0a7.71,7.71,0,0,1,7.711,7.71v8.437" transform="translate(1599.172 974.54)" fill="none" stroke="#aaddf5" stroke-miterlimit="10" stroke-width="2"/>
    <path id="Path_93" data-name="Path 93" d="M-115.332-17.963V-92.617a7.711,7.711,0,0,0-7.711-7.71h0a7.71,7.71,0,0,0-7.711,7.71v8.437" transform="translate(2094.107 974.54)" fill="none" stroke="#aaddf5" stroke-miterlimit="10" stroke-width="2"/>
    <circle id="Ellipse_39" data-name="Ellipse 39" cx="5.559" cy="5.559" r="5.559" transform="translate(1478.426 883.192)" fill="#fed337"/>
    <g id="Group_32" data-name="Group 32" transform="translate(1880.929 874.213)">
      <path id="Path_92" data-name="Path 92" d="M-130.753-17.963V-92.617a7.711,7.711,0,0,1,7.711-7.71h0a7.71,7.71,0,0,1,7.711,7.71v8.437" transform="translate(130.753 100.327)" fill="none" stroke="#aaddf5" stroke-miterlimit="10" stroke-width="2"/>
      <circle id="Ellipse_46" data-name="Ellipse 46" cx="5.559" cy="5.559" r="5.559" transform="translate(10.007 8.979)" fill="#fed337"/>
    </g>
    <g id="Group_33" data-name="Group 33" transform="translate(1626.307 888.751)">
      <path id="Path_92-2" data-name="Path 92" d="M-130.753-32.5V-93.978a6.35,6.35,0,0,1,6.35-6.349h0a6.349,6.349,0,0,1,6.35,6.349v6.948" transform="translate(130.753 100.327)" fill="none" stroke="#aaddf5" stroke-miterlimit="10" stroke-width="2"/>
      <ellipse id="Ellipse_46-2" data-name="Ellipse 46" cx="5.003" cy="4.448" rx="5.003" ry="4.448" transform="translate(7.783 7.783)" fill="#fed337"/>
    </g>
    <g id="Group_34" data-name="Group 34" transform="translate(868 888.752)">
      <path id="Path_92-3" data-name="Path 92" d="M-118.054-32.5V-93.978a6.35,6.35,0,0,0-6.35-6.349h0a6.349,6.349,0,0,0-6.35,6.349v6.948" transform="translate(135.844 100.327)" fill="none" stroke="#aaddf5" stroke-miterlimit="10" stroke-width="2"/>
      <ellipse id="Ellipse_46-3" data-name="Ellipse 46" cx="5.003" cy="4.448" rx="5.003" ry="4.448" transform="translate(0 7.783)" fill="#fed337"/>
    </g>
    <ellipse id="Ellipse_47" data-name="Ellipse 47" cx="5.559" cy="5.559" rx="5.559" ry="5.559" transform="translate(1957.649 883.192)" fill="#fed337"/>
    <g id="Group_25" data-name="Group 25" transform="translate(1516.23 931.092)">
      <path id="Path_85" data-name="Path 85" d="M-104.611-115.692s9.13-.376,13.647,2.894l8.339,5.089s12.158-.1,15.268,4.983a8.893,8.893,0,0,1,.812,5.691c-.493.789-1.381,2.663-5.758,2.029l-10.763.321h-30.148l-11.256-.245s-4.041-.9-2.021-7.205c1.595-4.184,5.827-13.435,16.022-13.356Z" transform="translate(127.057 115.705)" fill="#f3c434"/>
      <path id="Path_86" data-name="Path 86" d="M337.186-21.487c.059.324-.082.453-.454.442a3.121,3.121,0,0,1-2.788-2.75c-.019-.388.1-.522.494-.5A3.059,3.059,0,0,1,337.186-21.487Z" transform="translate(-279.188 35.155)" fill="#fdfdfd"/>
      <path id="Path_87" data-name="Path 87" d="M-59.469-98.653s-8.615-.848-12.4,2.872-1.968,4.562-1.968,4.562h14.366Z" transform="translate(80.548 100.752)" fill="#3e4347"/>
      <path id="Path_88" data-name="Path 88" d="M62.631-97.869s7.215-.115,11.437,2.02c9.167,5.326,9.217,5.211,9.217,5.211v.183H62.631Z" transform="translate(-40.101 99.988)" fill="#3e4347"/>
      <g id="Group_23" data-name="Group 23" transform="translate(3.92 14.591)">
        <circle id="Ellipse_40" data-name="Ellipse 40" cx="5.351" cy="5.351" r="5.351" transform="translate(0 0)" fill="#3e4347"/>
        <circle id="Ellipse_41" data-name="Ellipse 41" cx="3.784" cy="3.784" r="3.784" transform="translate(1.567 1.567)" fill="#595e62"/>
        <circle id="Ellipse_42" data-name="Ellipse 42" cx="2.252" cy="2.252" r="2.252" transform="translate(3.099 3.099)" fill="#d9e3ed"/>
      </g>
      <g id="Group_24" data-name="Group 24" transform="translate(44.451 14.591)">
        <circle id="Ellipse_43" data-name="Ellipse 43" cx="5.351" cy="5.351" r="5.351" transform="translate(0 0)" fill="#3e4347"/>
        <circle id="Ellipse_44" data-name="Ellipse 44" cx="3.784" cy="3.784" r="3.784" transform="translate(1.567 1.567)" fill="#595e62"/>
        <circle id="Ellipse_45" data-name="Ellipse 45" cx="2.252" cy="2.252" r="2.252" transform="translate(3.099 3.099)" fill="#d9e3ed"/>
      </g>
      <rect id="Rectangle_42" data-name="Rectangle 42" width="3.649" height="1.117" rx="0.559" transform="translate(6.395 11.367)" fill="#3e4347"/>
      <rect id="Rectangle_43" data-name="Rectangle 43" width="3.649" height="1.117" rx="0.559" transform="translate(25.439 11.367)" fill="#3e4347"/>
      <path id="Path_89" data-name="Path 89" d="M-124.71-17.856h1.207a1.691,1.691,0,0,0,1.687-1.686,1.69,1.69,0,0,0-1.621-1.683c-.406.873-.73,1.676-.986,2.348C-124.538-18.52-124.633-18.18-124.71-17.856Z" transform="translate(124.989 32.447)" fill="#e14b4b"/>
      <rect id="Rectangle_44" data-name="Rectangle 44" width="22.41" height="0.979" rx="0.489" transform="translate(18.036 15.948)" fill="#d8a413"/>
    </g>
    <path id="Subtraction_3" data-name="Subtraction 3" d="M53.927,130.505H0V0H53.927V57.6H8.629v2.1h45.3V65H8.629v2.1h45.3V130.5ZM38.95,113.835v6.886h6.971v-6.886Zm-15.163,0v6.886h6.975v-6.886Zm-15.159,0v6.886H15.6v-6.886Zm30.321-15.8v6.886h6.971V98.032Zm-15.163,0v6.886h6.975V98.032Zm-15.159,0v6.886H15.6V98.032ZM38.95,76.1V88.7h6.971V76.1Zm-15.163,0V88.7h6.975V76.1Zm-15.159,0V88.7H15.6V76.1ZM38.95,40.57v6.886h6.971V40.57Zm-15.163,0v6.886h6.975V40.57Zm-15.159,0v6.886H15.6V40.57ZM38.95,24.764V31.65h6.971V24.764Zm-15.163,0V31.65h6.975V24.764Zm-15.159,0V31.65H15.6V24.764ZM38.95,8.961v6.883h6.971V8.961Zm-15.163,0v6.883h6.975V8.961Zm-15.159,0v6.883H15.6V8.961Z" transform="translate(1983.778 826.071)" fill="rgba(170,221,245,0.4)" stroke="rgba(0,0,0,0)" stroke-miterlimit="10" stroke-width="1"/>
    <path id="Subtraction_4" data-name="Subtraction 4" d="M53.927,186.5v0H0V0H53.927V82.317H8.629v3h45.3v7.569H8.629v3h45.3V186.5ZM38.95,162.678v9.84h6.971v-9.84Zm-15.163,0v9.84h6.975v-9.84Zm-15.159,0v9.84H15.6v-9.84ZM38.95,140.095v9.84h6.971v-9.84Zm-15.163,0v9.84h6.975v-9.84Zm-15.159,0v9.84H15.6v-9.84ZM38.95,108.753v18.01h6.971v-18.01Zm-15.163,0v18.01h6.975v-18.01Zm-15.159,0v18.01H15.6v-18.01ZM38.95,57.978v9.84h6.971v-9.84Zm-15.163,0v9.84h6.975v-9.84Zm-15.159,0v9.84H15.6v-9.84ZM38.95,35.39v9.84h6.971V35.39Zm-15.163,0v9.84h6.975V35.39Zm-15.159,0v9.84H15.6V35.39ZM38.95,12.806v9.836h6.971V12.806Zm-15.163,0v9.836h6.975V12.806Zm-15.159,0v9.836H15.6V12.806Z" transform="translate(1924.848 770.076)" fill="rgba(170,221,245,0.4)" stroke="rgba(0,0,0,0)" stroke-miterlimit="10" stroke-width="1" opacity="0.44"/>
    <rect id="Rectangle_47" data-name="Rectangle 47" width="418.069" height="8.895" transform="translate(1619.635 947.681)" fill="#aaddf5"/>
    <rect id="Rectangle_48" data-name="Rectangle 48" width="47.811" height="162.335" transform="translate(1773.076 785.346)" fill="#cbebfa"/>
    <rect id="Rectangle_55" data-name="Rectangle 55" width="47.811" height="216.818" transform="translate(1826.446 730.864)" fill="#cbebfa"/>
    <g id="Group_26" data-name="Group 26" transform="translate(1781.971 797.577)">
      <rect id="Rectangle_49" data-name="Rectangle 49" width="4.448" height="82.28" fill="#e1f4fd"/>
      <rect id="Rectangle_50" data-name="Rectangle 50" width="4.448" height="82.28" transform="translate(8.895)" fill="#e1f4fd"/>
      <rect id="Rectangle_51" data-name="Rectangle 51" width="4.448" height="82.28" transform="translate(17.79)" fill="#e1f4fd"/>
      <rect id="Rectangle_52" data-name="Rectangle 52" width="4.448" height="82.28" transform="translate(26.685)" fill="#e1f4fd"/>
    </g>
    <g id="Group_28" data-name="Group 28" transform="translate(1835.341 743.094)">
      <rect id="Rectangle_49-2" data-name="Rectangle 49" width="4.448" height="82.28" transform="translate(0 0)" fill="#e1f4fd"/>
      <rect id="Rectangle_50-2" data-name="Rectangle 50" width="4.448" height="82.28" transform="translate(8.895 0)" fill="#e1f4fd"/>
      <rect id="Rectangle_51-2" data-name="Rectangle 51" width="4.448" height="82.28" transform="translate(17.79 0)" fill="#e1f4fd"/>
      <rect id="Rectangle_52-2" data-name="Rectangle 52" width="4.448" height="82.28" transform="translate(26.685 0)" fill="#e1f4fd"/>
    </g>
    <g id="Group_31" data-name="Group 31" transform="translate(1835.341 905.43)">
      <rect id="Rectangle_49-3" data-name="Rectangle 49" width="4.448" height="42.252" transform="translate(0 0)" fill="#e1f4fd"/>
      <rect id="Rectangle_50-3" data-name="Rectangle 50" width="4.448" height="42.252" transform="translate(8.895 0)" fill="#e1f4fd"/>
      <rect id="Rectangle_51-3" data-name="Rectangle 51" width="4.448" height="42.252" transform="translate(17.79 0)" fill="#e1f4fd"/>
      <rect id="Rectangle_52-3" data-name="Rectangle 52" width="4.448" height="42.252" transform="translate(26.685 0)" fill="#e1f4fd"/>
    </g>
    <g id="Group_29" data-name="Group 29" transform="translate(1835.341 862.066) rotate(-90)">
      <rect id="Rectangle_49-4" data-name="Rectangle 49" width="4.448" height="31.133" transform="translate(0 0)" fill="#e1f4fd"/>
      <rect id="Rectangle_50-4" data-name="Rectangle 50" width="4.448" height="31.133" transform="translate(8.895 0)" fill="#e1f4fd"/>
      <rect id="Rectangle_51-4" data-name="Rectangle 51" width="4.448" height="31.133" transform="translate(17.79 0)" fill="#e1f4fd"/>
      <rect id="Rectangle_52-4" data-name="Rectangle 52" width="4.448" height="31.133" transform="translate(26.685 0)" fill="#e1f4fd"/>
    </g>
    <g id="Group_30" data-name="Group 30" transform="translate(1835.341 897.647) rotate(-90)">
      <rect id="Rectangle_49-5" data-name="Rectangle 49" width="4.448" height="31.133" transform="translate(0 0)" fill="#e1f4fd"/>
      <rect id="Rectangle_50-5" data-name="Rectangle 50" width="4.448" height="31.133" transform="translate(8.895 0)" fill="#e1f4fd"/>
      <rect id="Rectangle_51-5" data-name="Rectangle 51" width="4.448" height="31.133" transform="translate(17.79 0)" fill="#e1f4fd"/>
      <rect id="Rectangle_52-5" data-name="Rectangle 52" width="4.448" height="31.133" transform="translate(26.685 0)" fill="#e1f4fd"/>
    </g>
    <g id="Group_27" data-name="Group 27" transform="translate(1771.964 906.542) rotate(-90)">
      <rect id="Rectangle_49-6" data-name="Rectangle 49" width="4.448" height="50.035" fill="#e1f4fd"/>
      <rect id="Rectangle_50-6" data-name="Rectangle 50" width="4.448" height="50.035" transform="translate(8.895)" fill="#e1f4fd"/>
      <rect id="Rectangle_51-6" data-name="Rectangle 51" width="4.448" height="50.035" transform="translate(17.79)" fill="#e1f4fd"/>
      <rect id="Rectangle_52-6" data-name="Rectangle 52" width="4.448" height="50.035" transform="translate(26.685)" fill="#e1f4fd"/>
    </g>
    <rect id="Rectangle_53" data-name="Rectangle 53" width="21.126" height="20.014" transform="translate(1786.418 927.668)" fill="#e1f4fd"/>
    <rect id="Rectangle_54" data-name="Rectangle 54" width="21.126" height="4.448" transform="translate(1786.418 918.772)" fill="#e1f4fd"/>
    <path id="Polygon_1" data-name="Polygon 1" d="M23.906,0,47.811,21.126H0Z" transform="translate(1773.076 764.22)" fill="#aaddf5"/>
    <rect id="Rectangle_56" data-name="Rectangle 56" width="34.468" height="6.671" transform="translate(1833.118 724.192)" fill="#aaddf5"/>
    <rect id="Rectangle_57" data-name="Rectangle 57" width="18.902" height="6.671" transform="translate(1840.901 717.521)" fill="#81c4e3"/>
    <rect id="Rectangle_58" data-name="Rectangle 58" width="135.65" height="12.231" transform="translate(1625.195 862.066)" fill="#aaddf5"/>
    <rect id="Rectangle_73" data-name="Rectangle 73" width="142.321" height="12.231" transform="translate(888.014 862.066)" fill="#aaddf5"/>
    <rect id="Rectangle_60" data-name="Rectangle 60" width="104.517" height="12.231" transform="translate(1531.796 814.255)" fill="#aaddf5"/>
    <rect id="Rectangle_61" data-name="Rectangle 61" width="104.517" height="12.231" transform="translate(1531.796 744.206)" fill="#aaddf5"/>
    <path id="Path_95" data-name="Path 95" d="M1549,766.832V679.06l107.8,45.9v41.872Z" transform="translate(76.562 95.234)" fill="#d7effb"/>
    <g id="Component_1_3" data-name="Component 1 – 3" transform="translate(1625.563 765.451)">
      <path id="Path_96" data-name="Path 96" d="M1550,679.95l113.343,52.217V722.9L1550,671.107Z" transform="translate(-1550 -671.107)" fill="#cbebfa"/>
    </g>
    <rect id="Rectangle_63" data-name="Rectangle 63" width="17.79" height="8.895" transform="translate(1639.649 826.486)" fill="#e1f4fd"/>
    <rect id="Rectangle_70" data-name="Rectangle 70" width="17.79" height="8.895" transform="translate(1639.649 812.031)" fill="#e1f4fd"/>
    <rect id="Rectangle_68" data-name="Rectangle 68" width="17.79" height="8.895" transform="translate(1639.649 842.052)" fill="#e1f4fd"/>
    <rect id="Rectangle_64" data-name="Rectangle 64" width="17.79" height="8.895" transform="translate(1666.335 826.486)" fill="#e1f4fd"/>
    <rect id="Rectangle_69" data-name="Rectangle 69" width="17.79" height="8.895" transform="translate(1666.335 812.031)" fill="#e1f4fd"/>
    <rect id="Rectangle_67" data-name="Rectangle 67" width="17.79" height="8.895" transform="translate(1666.335 842.052)" fill="#e1f4fd"/>
    <rect id="Rectangle_65" data-name="Rectangle 65" width="17.79" height="8.895" transform="translate(1693.02 826.486)" fill="#e1f4fd"/>
    <rect id="Rectangle_66" data-name="Rectangle 66" width="17.79" height="8.895" transform="translate(1693.02 842.052)" fill="#e1f4fd"/>
    <rect id="Rectangle_74" data-name="Rectangle 74" width="23.35" height="31.133" transform="translate(992.531 925.444)" fill="#e1f4fd"/>
    <rect id="Rectangle_75" data-name="Rectangle 75" width="1.112" height="31.133" transform="translate(1003.65 925.444)" fill="#cbebfa"/>
    <ellipse id="Ellipse_36" data-name="Ellipse 36" cx="60.598" cy="59.486" rx="60.598" ry="59.486" transform="translate(1013.657 808.696)" fill="#aaddf5"/>
    <line id="Line_3" data-name="Line 3" y1="92.279" transform="translate(1074.127 864.854)" fill="none" stroke="#7bb6d2" stroke-width="2"/>
    <line id="Line_4" data-name="Line 4" x1="24.073" y2="19.392" transform="translate(1074.127 882.908)" fill="none" stroke="#7bb6d2" stroke-width="2"/>
    <ellipse id="Ellipse_37" data-name="Ellipse 37" cx="17.234" cy="16.678" rx="17.234" ry="16.678" transform="translate(1094.825 910.989)" fill="#a1dbf6"/>
    <line id="Line_6" data-name="Line 6" y1="38.707" transform="translate(1112.324 918.426)" fill="none" stroke="#7bb6d2" stroke-width="2"/>
    <line id="Line_5" data-name="Line 5" x2="10.097" y2="8.134" transform="translate(1102.227 929.645)" fill="none" stroke="#7bb6d2" stroke-width="2"/>
    <line id="Line_7" data-name="Line 7" x1="10.097" y2="8.134" transform="translate(1112.324 922.958)" fill="none" stroke="#7bb6d2" stroke-width="2"/>
    <g id="Group_35" data-name="Group 35" transform="translate(2018.157 918.966)">
      <rect id="Rectangle_76" data-name="Rectangle 76" width="1.069" height="26.932" rx="0.534" transform="translate(1.801 0)" fill="#484c50"/>
      <rect id="Rectangle_77" data-name="Rectangle 77" width="2.335" height="0.638" rx="0.319" transform="translate(0 5.21)" fill="#484c50"/>
      <rect id="Rectangle_78" data-name="Rectangle 78" width="2.335" height="0.638" rx="0.319" transform="translate(0 12.416)" fill="#484c50"/>
      <rect id="Rectangle_79" data-name="Rectangle 79" width="2.335" height="0.638" rx="0.319" transform="translate(0 19.622)" fill="#484c50"/>
    </g>
    <path id="Path_98" data-name="Path 98" d="M783.246,579.177h62.61a2.107,2.107,0,0,0,2.1-2.1v-28.73a2.107,2.107,0,0,0-2.1-2.1h-52.54c-6.058,0-7.869,6.071-7.869,6.071l-4.534,10.9.233,13.859A2.107,2.107,0,0,0,783.246,579.177Z" transform="translate(1170.881 370.733)" fill="#07b4cf"/>
    <path id="Path_101" data-name="Path 101" d="M1140.734,661.083h2.139a1.722,1.722,0,0,1,1.688,1.754v2.232a1.722,1.722,0,0,1-1.688,1.754h-2.037c-.01,0-.019,0-.029,0l-.093-5.734Z" transform="translate(811.131 276.001)" fill="#303437"/>
    <g id="Group_36" data-name="Group 36" transform="translate(1950.557 920.648)">
      <path id="Path_102" data-name="Path 102" d="M1108.343,572.546h.875V570.1a2.015,2.015,0,0,1,2.013-2.013h7.189V570.1h.876v-2.888h-8.065a2.891,2.891,0,0,0-2.888,2.888Z" transform="translate(-1108.343 -567.207)" fill="#2e230f"/>
    </g>
    <path id="Rectangle_80" data-name="Rectangle 80" d="M0,0H1.927a.688.688,0,0,1,.688.688v4.6a.18.18,0,0,1-.18.18h0A2.435,2.435,0,0,1,0,3.032V0A0,0,0,0,1,0,0Z" transform="translate(1950.557 923.134)" fill="#2e230f"/>
    <path id="Rectangle_81" data-name="Rectangle 81" d="M0,0H0A1.279,1.279,0,0,1,1.279,1.279V3.316A1.279,1.279,0,0,1,0,4.595H0a0,0,0,0,1,0,0V0A0,0,0,0,1,0,0Z" transform="translate(1953.755 937.656)" fill="#ee4e14"/>
    <path id="Path_103" data-name="Path 103" d="M1155.02,669.025h-1.849a.535.535,0,0,1-.536-.536v-3.618a.442.442,0,0,1,.442-.442h1.943Z" transform="translate(798.735 273.24)" fill="#c9c9c9"/>
    <path id="Rectangle_82" data-name="Rectangle 82" d="M3.1,0H13.124a3.1,3.1,0,0,1,3.1,3.1v0a3.1,3.1,0,0,1-3.1,3.1H3.1A3.1,3.1,0,0,1,0,3.1v0A3.1,3.1,0,0,1,3.1,0Z" transform="translate(1950.899 943.788)" fill="#303437"/>
    <rect id="Rectangle_83" data-name="Rectangle 83" width="17.338" height="6.205" rx="3.102" transform="translate(2002.213 943.788)" fill="#303437"/>
    <g id="Group_38" data-name="Group 38" transform="translate(1957.343 941.886)">
      <path id="Path_104" data-name="Path 104" d="M1041.635,696.432a7.923,7.923,0,1,1,15.847,0c0,.034,0,.067,0,.1h-15.842C1041.637,696.5,1041.635,696.465,1041.635,696.432Z" transform="translate(-1041.635 -688.508)" fill="#2e230f"/>
      <circle id="Ellipse_48" data-name="Ellipse 48" cx="6.767" cy="6.767" r="6.767" transform="translate(1.156 1.156)" fill="#303437"/>
      <circle id="Ellipse_49" data-name="Ellipse 49" cx="4.785" cy="4.785" r="4.785" transform="translate(3.138 3.138)" fill="#484c50"/>
      <circle id="Ellipse_50" data-name="Ellipse 50" cx="2.848" cy="2.848" r="2.848" transform="translate(5.075 5.075)" fill="#cfdce8"/>
      <circle id="Ellipse_51" data-name="Ellipse 51" cx="0.302" cy="0.302" r="0.302" transform="translate(7.621 6.219)" fill="#858b8e"/>
      <circle id="Ellipse_52" data-name="Ellipse 52" cx="0.302" cy="0.302" r="0.302" transform="translate(7.621 8.786)" fill="#858b8e"/>
      <circle id="Ellipse_53" data-name="Ellipse 53" cx="0.302" cy="0.302" r="0.302" transform="translate(8.905 7.503)" fill="#858b8e"/>
      <circle id="Ellipse_54" data-name="Ellipse 54" cx="0.302" cy="0.302" r="0.302" transform="translate(6.338 7.503)" fill="#858b8e"/>
    </g>
    <g id="Group_39" data-name="Group 39" transform="translate(1995.593 941.886)">
      <path id="Path_105" data-name="Path 105" d="M823.163,696.432a7.923,7.923,0,1,1,15.847,0c0,.034,0,.067,0,.1H823.165C823.165,696.5,823.163,696.465,823.163,696.432Z" transform="translate(-823.163 -688.508)" fill="#2e230f"/>
      <circle id="Ellipse_55" data-name="Ellipse 55" cx="6.767" cy="6.767" r="6.767" transform="translate(1.156 1.156)" fill="#303437"/>
      <circle id="Ellipse_56" data-name="Ellipse 56" cx="4.785" cy="4.785" r="4.785" transform="translate(3.138 3.138)" fill="#484c50"/>
      <circle id="Ellipse_57" data-name="Ellipse 57" cx="2.848" cy="2.848" r="2.848" transform="translate(5.075 5.075)" fill="#cfdce8"/>
      <circle id="Ellipse_58" data-name="Ellipse 58" cx="0.302" cy="0.302" r="0.302" transform="translate(7.621 6.219)" fill="#858b8e"/>
      <circle id="Ellipse_59" data-name="Ellipse 59" cx="0.302" cy="0.302" r="0.302" transform="translate(7.621 8.786)" fill="#858b8e"/>
      <circle id="Ellipse_60" data-name="Ellipse 60" cx="0.302" cy="0.302" r="0.302" transform="translate(8.905 7.503)" fill="#858b8e"/>
      <circle id="Ellipse_61" data-name="Ellipse 61" cx="0.302" cy="0.302" r="0.302" transform="translate(6.338 7.503)" fill="#858b8e"/>
    </g>
    <rect id="Rectangle_85" data-name="Rectangle 85" width="56.761" height="1.609" rx="0.805" transform="translate(1958.152 938.028)" fill="#0e9ab0"/>
    <rect id="Rectangle_86" data-name="Rectangle 86" width="45.726" height="4.189" transform="translate(1966.247 912.789)" fill="#484c50"/>
    <rect id="Rectangle_87" data-name="Rectangle 87" width="45.726" height="1.96" transform="translate(1966.247 913.903)" fill="#303437"/>
    <path id="Path_106" data-name="Path 106" d="M1127.522,569.76" transform="translate(830.63 351.335)" fill="#c9c9c9"/>
    <path id="Path_107" data-name="Path 107" d="M807,568.414c.268-.758.541-1.207,1.207-1.207h5.825v7.065h1.922v-5.819a1.245,1.245,0,0,1,1.246-1.246h7.731a1.246,1.246,0,0,1,1.246,1.246v5.819H828.1v-5.809a1.256,1.256,0,0,1,1.256-1.256h7.711a1.256,1.256,0,0,1,1.256,1.256v5.809h1.922v-5.8a1.266,1.266,0,0,1,1.266-1.266h7.69a1.266,1.266,0,0,1,1.266,1.266v5.8h1.922v-7.065h8.267a1.207,1.207,0,0,1,1.207,1.207v10.558a1.207,1.207,0,0,1-1.207,1.207h-8.267v-2.671h-1.922v1.405a1.266,1.266,0,0,1-1.266,1.266h-7.69a1.266,1.266,0,0,1-1.266-1.266v-1.405h-1.922v1.416a1.256,1.256,0,0,1-1.256,1.256h-7.711a1.256,1.256,0,0,1-1.256-1.256v-1.416h-1.922v1.426a1.246,1.246,0,0,1-1.246,1.245H817.2a1.245,1.245,0,0,1-1.246-1.245v-1.426h-1.922v2.671h-9.5a1.207,1.207,0,0,1-1.207-1.207Zm45.386,8.379v-1.805h-1.922v1.805Zm-12.144,0v-1.805h-1.922v1.805Zm-12.144,0v-1.805h-1.922v1.805Zm-12.144,0v-1.805h-1.922v1.805Z" transform="translate(1153.047 353.441)" fill="#2e230f"/>
  </g>
</svg>
