<svg xmlns="http://www.w3.org/2000/svg" xmlns:xlink="http://www.w3.org/1999/xlink" width="706.517" height="608.533" viewBox="0 0 706.517 608.533">
  <defs>
    <linearGradient id="linear-gradient" y1="0.5" x2="1" y2="0.5" gradientUnits="objectBoundingBox">
      <stop offset="0" stop-color="#89a0a1"/>
      <stop offset="1" stop-color="#a1b5b6" stop-opacity="0.149"/>
    </linearGradient>
    <clipPath id="clip-path">
      <circle id="Ellipse_95" data-name="Ellipse 95" cx="304.266" cy="304.266" r="304.266" fill="none"/>
    </clipPath>
    <clipPath id="clip-path-2">
      <path id="Path_167" data-name="Path 167" d="M611.8,947.2,74.394,918.514V879.319L611.8,908.005Z" transform="translate(-74.394 -879.319)" fill="none"/>
    </clipPath>
  </defs>
  <g id="Group_439" data-name="Group 439" transform="translate(-133 -240)">
    <circle id="Ellipse_62" data-name="Ellipse 62" cx="304.266" cy="304.266" r="304.266" transform="translate(133 240)" fill="#fffacb"/>
    <path id="Path_108" data-name="Path 108" d="M225.661,593.1H212.846V509.15l12.815,6.869Z" transform="translate(164.471 -228.109)" fill="#f2d6a2"/>
    <path id="Path_109" data-name="Path 109" d="M290.961,616.887H281.95V521.9l9.011,4.68Z" transform="translate(187.22 -223.912)" fill="#cea864"/>
    <path id="Path_110" data-name="Path 110" d="M233.044,521.9V662.633h65.067V521.9Zm41.483,6.869h5.346v5.278h-5.346Zm0,12.117h5.346v5.278h-5.346Zm0,12.117h5.346v5.278h-5.346ZM262.9,528.768h5.346v5.278H262.9Zm0,12.117h5.346v5.278H262.9Zm0,12.117h5.346v5.278H262.9Zm-11.622-24.234h5.346v5.278h-5.346Zm0,12.117h5.346v5.278h-5.346Zm0,12.117h5.346v5.278h-5.346Zm-11.623-24.234h5.346v5.278h-5.346Zm0,12.117h5.346v5.278h-5.346Zm0,12.117h5.346v5.278h-5.346Zm5.346,61.45h-5.346v-5.278h5.346Zm0-12.117h-5.346v-5.278h5.346Zm0-12.429h-5.346v-9.662h5.346Zm11.623,24.546h-5.346v-5.278h5.346Zm0-12.117h-5.346v-5.278h5.346Zm0-12.429h-5.346v-9.662h5.346Zm11.623,24.546H262.9v-5.278h5.346Zm0-12.117H262.9v-5.278h5.346Zm0-12.429H262.9v-9.662h5.346Zm11.622,24.546h-5.346v-5.278h5.346Zm0-12.117h-5.346v-5.278h5.346Zm0-12.429h-5.346v-9.662h5.346ZM291.5,614.453H286.15v-5.278H291.5Zm0-12.117H286.15v-5.278H291.5Zm0-12.429H286.15v-9.662H291.5Zm0-16.57H239.659v-1.607H291.5Zm0-5.668H239.659v-1.607H291.5Zm0-9.388H286.15V553H291.5Zm0-12.117H286.15v-5.278H291.5Zm0-12.117H286.15v-5.278H291.5Z" transform="translate(171.12 -223.912)" fill="#f2d6a2"/>
    <path id="Path_111" data-name="Path 111" d="M414.62,673.654v71.225h32.931V673.654Zm20.995,3.477h2.706v2.67h-2.706Zm0,6.132h2.706v2.672h-2.706Zm0,6.133h2.706v2.67h-2.706Zm-5.882-12.264h2.7v2.67h-2.7Zm0,6.132h2.7v2.672h-2.7Zm0,6.133h2.7v2.67h-2.7Zm-5.883-12.264h2.706v2.67H423.85Zm0,6.132h2.706v2.672H423.85Zm0,6.133h2.706v2.67H423.85Zm-5.882-12.264h2.706v2.67h-2.706Zm0,6.132h2.706v2.672h-2.706Zm0,6.133h2.706v2.67h-2.706Zm2.706,31.1h-2.706v-2.672h2.706Zm0-6.132h-2.706v-2.672h2.706Zm0-6.291h-2.706v-4.89h2.706Zm5.882,12.423H423.85v-2.672h2.706Zm0-6.132H423.85v-2.672h2.706Zm0-6.291H423.85v-4.89h2.706Zm5.882,12.423h-2.7v-2.672h2.7Zm0-6.132h-2.7v-2.672h2.7Zm0-6.291h-2.7v-4.89h2.7Zm5.883,12.423h-2.706v-2.672h2.706Zm0-6.132h-2.706v-2.672h2.706Zm0-6.291h-2.706v-4.89h2.706Zm5.882,12.423H441.5v-2.672H444.2Zm0-6.132H441.5v-2.672H444.2Zm0-6.291H441.5v-4.89H444.2Zm0-8.386H417.968v-.814H444.2Zm0-2.868H417.968V696H444.2Zm0-4.752H441.5V689.4H444.2Zm0-6.132H441.5v-2.672H444.2Zm0-6.133H441.5v-2.67H444.2Z" transform="translate(230.895 -173.954)" fill="#f2d6a2"/>
    <path id="Path_112" data-name="Path 112" d="M414.62,637.313v50.636h32.931V637.313Zm20.995,3.476h2.706v2.672h-2.706Zm0,6.133h2.706v2.67h-2.706Zm0,6.132h2.706v2.672h-2.706Zm-5.882-12.265h2.7v2.672h-2.7Zm0,6.133h2.7v2.67h-2.7Zm0,6.132h2.7v2.672h-2.7Zm-5.883-12.265h2.706v2.672H423.85Zm0,6.133h2.706v2.67H423.85Zm0,6.132h2.706v2.672H423.85Zm-5.882-12.265h2.706v2.672h-2.706Zm0,6.133h2.706v2.67h-2.706Zm0,6.132h2.706v2.672h-2.706Zm2.706,31.1h-2.706v-2.672h2.706Zm0-6.133h-2.706v-2.672h2.706Zm0-6.291h-2.706v-4.889h2.706Zm5.882,12.424H423.85v-2.672h2.706Zm0-6.133H423.85v-2.672h2.706Zm0-6.291H423.85v-4.889h2.706Zm5.882,12.424h-2.7v-2.672h2.7Zm0-6.133h-2.7v-2.672h2.7Zm0-6.291h-2.7v-4.889h2.7Zm5.883,12.424h-2.706v-2.672h2.706Zm0-6.133h-2.706v-2.672h2.706Zm0-6.291h-2.706v-4.889h2.706Zm5.882,12.424H441.5v-2.672H444.2Zm0-6.133H441.5v-2.672H444.2Zm0-6.291H441.5v-4.889H444.2Zm0-8.385H417.968v-.815H444.2Zm0-2.868H417.968v-.813H444.2Zm0-4.752H441.5v-2.672H444.2Zm0-6.133H441.5v-2.67H444.2Zm0-6.132H441.5v-2.672H444.2Z" transform="translate(230.895 -185.918)" fill="#f2d6a2"/>
    <path id="Path_113" data-name="Path 113" d="M439.4,685.232v55.836h69.225V685.232Zm44.133,2.725h5.688v2.095h-5.688Zm0,4.808h5.688v2.093h-5.688Zm0,4.806h5.688v2.095h-5.688Zm-12.366-9.614h5.689v2.095h-5.689Zm0,4.808h5.689v2.093h-5.689Zm0,4.806h5.689v2.095h-5.689Zm-12.364-9.614H464.5v2.095h-5.688Zm0,4.808H464.5v2.093h-5.688Zm0,4.806H464.5v2.095h-5.688Zm-12.366-9.614h5.688v2.095h-5.688Zm0,4.808h5.688v2.093h-5.688Zm0,4.806h5.688v2.095h-5.688Zm5.688,24.381h-5.688v-2.095h5.688Zm0-4.808h-5.688V715.05h5.688Zm0-4.931h-5.688V708.38h5.688Zm12.366,9.739h-5.688v-2.095H464.5Zm0-4.808h-5.688V715.05H464.5Zm0-4.931h-5.688V708.38H464.5Zm12.366,9.739h-5.689v-2.095h5.689Zm0-4.808h-5.689V715.05h5.689Zm0-4.931h-5.689V708.38h5.689Zm12.364,9.739h-5.688v-2.095h5.688Zm0-4.808h-5.688V715.05h5.688Zm0-4.931h-5.688V708.38h5.688Zm12.366,9.739H495.9v-2.095h5.688Zm0-4.808H495.9V715.05h5.688Zm0-4.931H495.9V708.38h5.688Zm0-6.574H446.442V705h55.148Zm0-2.248H446.442v-.638h55.148Zm0-3.726H495.9v-2.095h5.688Zm0-4.808H495.9v-2.093h5.688Zm0-4.806H495.9v-2.095h5.688Z" transform="translate(239.053 -170.143)" fill="#f6e2be"/>
    <path id="Path_114" data-name="Path 114" d="M439.4,656.742v39.7h69.225v-39.7Zm44.133,2.725h5.688v2.095h-5.688Zm0,4.808h5.688v2.095h-5.688Zm0,4.808h5.688v2.095h-5.688Zm-12.366-9.615h5.689v2.095h-5.689Zm0,4.808h5.689v2.095h-5.689Zm0,4.808h5.689v2.095h-5.689Zm-12.364-9.615H464.5v2.095h-5.688Zm0,4.808H464.5v2.095h-5.688Zm0,4.808H464.5v2.095h-5.688Zm-12.366-9.615h5.688v2.095h-5.688Zm0,4.808h5.688v2.095h-5.688Zm0,4.808h5.688v2.095h-5.688Zm5.688,24.38h-5.688v-2.093h5.688Zm0-4.806h-5.688v-2.095h5.688Zm0-4.933h-5.688V679.89h5.688Zm12.366,9.739h-5.688v-2.093H464.5Zm0-4.806h-5.688v-2.095H464.5Zm0-4.933h-5.688V679.89H464.5Zm12.366,9.739h-5.689v-2.093h5.689Zm0-4.806h-5.689v-2.095h5.689Zm0-4.933h-5.689V679.89h5.689Zm12.364,9.739h-5.688v-2.093h5.688Zm0-4.806h-5.688v-2.095h5.688Zm0-4.933h-5.688V679.89h5.688Zm12.366,9.739H495.9v-2.093h5.688Zm0-4.806H495.9v-2.095h5.688Zm0-4.933H495.9V679.89h5.688Zm0-6.573H446.442v-.638h55.148Zm0-2.249H446.442v-.638h55.148Zm0-3.724H495.9v-2.095h5.688Zm0-4.808H495.9v-2.095h5.688Zm0-4.808H495.9v-2.095h5.688Z" transform="translate(239.053 -179.522)" fill="#f6e2be"/>
    <path id="Path_115" data-name="Path 115" d="M439.4,627.281v39.7h29.7v-39.7Zm18.938,2.725h2.44V632.1h-2.44Zm0,4.808h2.44v2.095h-2.44Zm0,4.808h2.44v2.094h-2.44Zm-5.306-9.616h2.44V632.1h-2.44Zm0,4.808h2.44v2.095h-2.44Zm0,4.808h2.44v2.094h-2.44Zm-5.306-9.616h2.44V632.1h-2.44Zm0,4.808h2.44v2.095h-2.44Zm0,4.808h2.44v2.094h-2.44Zm-5.306-9.616h2.44V632.1h-2.44Zm0,4.808h2.44v2.095h-2.44Zm0,4.808h2.44v2.094h-2.44Zm2.44,24.38h-2.44v-2.094h2.44Zm0-4.808h-2.44V657.1h2.44Zm0-4.931h-2.44v-3.833h2.44ZM450.171,664h-2.44v-2.094h2.44Zm0-4.808h-2.44V657.1h2.44Zm0-4.931h-2.44v-3.833h2.44ZM455.477,664h-2.44v-2.094h2.44Zm0-4.808h-2.44V657.1h2.44Zm0-4.931h-2.44v-3.833h2.44ZM460.783,664h-2.44v-2.094h2.44Zm0-4.808h-2.44V657.1h2.44Zm0-4.931h-2.44v-3.833h2.44ZM466.089,664h-2.44v-2.094h2.44Zm0-4.808h-2.44V657.1h2.44Zm0-4.931h-2.44v-3.833h2.44Zm0-6.574H442.424v-.637h23.665Zm0-2.248H442.424V644.8h23.665Zm0-3.726h-2.44v-2.094h2.44Zm0-4.806h-2.44v-2.095h2.44Zm0-4.808h-2.44v-2.095h2.44Z" transform="translate(239.053 -189.22)" fill="#f6e2be"/>
    <path id="Path_116" data-name="Path 116" d="M163.893,509.15V649.884h65.068V509.15Zm41.483,6.869h5.346v5.28h-5.346Zm0,12.117h5.346v5.278h-5.346Zm0,12.117h5.346v5.278h-5.346Zm-11.623-24.234H199.1v5.28h-5.346Zm0,12.117H199.1v5.278h-5.346Zm0,12.117H199.1v5.278h-5.346Zm-11.622-24.234h5.346v5.28h-5.346Zm0,12.117h5.346v5.278h-5.346Zm0,12.117h5.346v5.278h-5.346Zm-11.623-24.234h5.346v5.28h-5.346Zm0,12.117h5.346v5.278h-5.346Zm0,12.117h5.346v5.278h-5.346Zm5.346,61.45h-5.346v-5.278h5.346Zm0-12.117h-5.346v-5.278h5.346Zm0-12.429h-5.346V567.5h5.346ZM187.477,601.7h-5.346v-5.278h5.346Zm0-12.117h-5.346v-5.278h5.346Zm0-12.429h-5.346V567.5h5.346ZM199.1,601.7h-5.346v-5.278H199.1Zm0-12.117h-5.346v-5.278H199.1Zm0-12.429h-5.346V567.5H199.1ZM210.722,601.7h-5.346v-5.278h5.346Zm0-12.117h-5.346v-5.278h5.346Zm0-12.429h-5.346V567.5h5.346ZM222.345,601.7H217v-5.278h5.346Zm0-12.117H217v-5.278h5.346Zm0-12.429H217V567.5h5.346Zm0-16.57H170.508V558.98h51.836Zm0-5.666H170.508v-1.608h51.836Zm0-9.39H217v-5.278h5.346Zm0-12.117H217v-5.278h5.346Zm0-12.116H217v-5.28h5.346Z" transform="translate(148.356 -228.109)" fill="#fde6bd"/>
    <circle id="Ellipse_63" data-name="Ellipse 63" cx="93.345" cy="93.345" r="93.345" transform="translate(185.366 331.582)" fill="#dee38c"/>
    <circle id="Ellipse_64" data-name="Ellipse 64" cx="46.672" cy="46.672" r="46.672" transform="translate(316.737 334.517)" fill="#dee38c"/>
    <g id="Group_50" data-name="Group 50" transform="translate(478.181 276.768)">
      <rect id="Rectangle_88" data-name="Rectangle 88" width="164.93" height="356.723" fill="#e7c88c"/>
      <g id="Group_41" data-name="Group 41" transform="translate(16.769 17.411)">
        <rect id="Rectangle_89" data-name="Rectangle 89" width="13.552" height="24.49" fill="#fee1af"/>
        <rect id="Rectangle_90" data-name="Rectangle 90" width="13.552" height="24.49" transform="translate(29.46)" fill="#fea900"/>
        <rect id="Rectangle_91" data-name="Rectangle 91" width="13.552" height="24.49" transform="translate(58.92)" fill="#fee1af"/>
        <rect id="Rectangle_92" data-name="Rectangle 92" width="13.552" height="24.49" transform="translate(88.38)" fill="#c5a56a"/>
        <rect id="Rectangle_93" data-name="Rectangle 93" width="13.552" height="24.49" transform="translate(117.84)" fill="#fee1af"/>
      </g>
      <g id="Group_42" data-name="Group 42" transform="translate(16.769 82.65)">
        <rect id="Rectangle_94" data-name="Rectangle 94" width="13.552" height="24.49" fill="#fee1af"/>
        <rect id="Rectangle_95" data-name="Rectangle 95" width="13.552" height="24.49" transform="translate(29.46)" fill="#c5a56a"/>
        <rect id="Rectangle_96" data-name="Rectangle 96" width="13.552" height="24.49" transform="translate(58.92)" fill="#fee1af"/>
        <rect id="Rectangle_97" data-name="Rectangle 97" width="13.552" height="24.49" transform="translate(88.38)" fill="#ffd408"/>
        <rect id="Rectangle_98" data-name="Rectangle 98" width="13.552" height="24.49" transform="translate(117.84)" fill="#fee1af"/>
      </g>
      <g id="Group_43" data-name="Group 43" transform="translate(16.769 147.888)">
        <rect id="Rectangle_99" data-name="Rectangle 99" width="13.552" height="24.49" fill="#fee1af"/>
        <rect id="Rectangle_100" data-name="Rectangle 100" width="13.552" height="24.49" transform="translate(29.46)" fill="#fee1af"/>
        <rect id="Rectangle_101" data-name="Rectangle 101" width="13.552" height="24.49" transform="translate(58.92)" fill="#c5a56a"/>
        <rect id="Rectangle_102" data-name="Rectangle 102" width="13.552" height="24.49" transform="translate(88.38)" fill="#fea900"/>
        <rect id="Rectangle_103" data-name="Rectangle 103" width="13.552" height="24.49" transform="translate(117.84)" fill="#fee1af"/>
      </g>
      <g id="Group_44" data-name="Group 44" transform="translate(16.769 213.127)">
        <rect id="Rectangle_104" data-name="Rectangle 104" width="13.552" height="24.49" fill="#fee1af"/>
        <rect id="Rectangle_105" data-name="Rectangle 105" width="13.552" height="24.49" transform="translate(29.46)" fill="#c5a56a"/>
        <rect id="Rectangle_106" data-name="Rectangle 106" width="13.552" height="24.49" transform="translate(58.92)" fill="#fee1af"/>
        <rect id="Rectangle_107" data-name="Rectangle 107" width="13.552" height="24.49" transform="translate(88.38)" fill="#fee1af"/>
        <rect id="Rectangle_108" data-name="Rectangle 108" width="13.552" height="24.49" transform="translate(117.84)" fill="#fee1af"/>
      </g>
      <g id="Group_45" data-name="Group 45" transform="translate(16.769 278.365)">
        <rect id="Rectangle_109" data-name="Rectangle 109" width="13.552" height="24.49" fill="#fee1af"/>
        <rect id="Rectangle_110" data-name="Rectangle 110" width="13.552" height="24.49" transform="translate(29.46)" fill="#fee1af"/>
        <rect id="Rectangle_111" data-name="Rectangle 111" width="13.552" height="24.49" transform="translate(58.92)" fill="#fee1af"/>
        <rect id="Rectangle_112" data-name="Rectangle 112" width="13.552" height="24.49" transform="translate(88.38)" fill="#fee1af"/>
        <rect id="Rectangle_113" data-name="Rectangle 113" width="13.552" height="24.49" transform="translate(117.84)" fill="#c5a56a"/>
      </g>
      <rect id="Rectangle_114" data-name="Rectangle 114" width="131.392" height="4.075" transform="translate(16.769 58.085)" fill="#fee1af"/>
      <rect id="Rectangle_115" data-name="Rectangle 115" width="131.392" height="4.075" transform="translate(16.769 126.305)" fill="#fee1af"/>
      <path id="Path_117" data-name="Path 117" d="M412.812,766.9h22.913V516.822l-22.913-10.887Z" transform="translate(-247.882 -505.935)" fill="#cea864"/>
      <g id="Group_46" data-name="Group 46" transform="translate(170.564 17.411)">
        <rect id="Rectangle_116" data-name="Rectangle 116" width="4.064" height="24.49" fill="#e7c88c"/>
        <rect id="Rectangle_117" data-name="Rectangle 117" width="4.064" height="24.49" transform="translate(8.834)" fill="#e7c88c"/>
      </g>
      <g id="Group_47" data-name="Group 47" transform="translate(170.564 83.447)">
        <rect id="Rectangle_118" data-name="Rectangle 118" width="4.064" height="24.49" fill="#e7c88c"/>
        <rect id="Rectangle_119" data-name="Rectangle 119" width="4.064" height="24.49" transform="translate(8.834)" fill="#e7c88c"/>
      </g>
      <g id="Group_48" data-name="Group 48" transform="translate(170.564 147.888)">
        <rect id="Rectangle_120" data-name="Rectangle 120" width="4.064" height="24.49" fill="#e7c88c"/>
        <rect id="Rectangle_121" data-name="Rectangle 121" width="4.064" height="24.49" transform="translate(8.834)" fill="#e7c88c"/>
      </g>
      <g id="Group_49" data-name="Group 49" transform="translate(170.564 212.33)">
        <rect id="Rectangle_122" data-name="Rectangle 122" width="4.064" height="24.49" fill="#e7c88c"/>
        <rect id="Rectangle_123" data-name="Rectangle 123" width="4.064" height="24.49" transform="translate(8.834)" fill="#e7c88c"/>
      </g>
      <rect id="Rectangle_124" data-name="Rectangle 124" width="15.982" height="4.075" transform="translate(168.731 58.085)" fill="#fee1af"/>
      <rect id="Rectangle_125" data-name="Rectangle 125" width="15.982" height="4.075" transform="translate(168.731 126.305)" fill="#fee1af"/>
    </g>
    <path id="Path_118" data-name="Path 118" d="M503.433,744.566H491.484V656.742l11.948,6.148Z" transform="translate(256.198 -179.522)" fill="#dfc49e"/>
    <path id="Path_119" data-name="Path 119" d="M473.7,666.441H461.752v-39.16l11.948,5.782Z" transform="translate(246.411 -189.22)" fill="#dfc49e"/>
    <circle id="Ellipse_65" data-name="Ellipse 65" cx="57.494" cy="57.494" r="57.494" transform="translate(247.541 407.265)" fill="#c2d56e"/>
    <circle id="Ellipse_66" data-name="Ellipse 66" cx="50.851" cy="50.851" r="50.851" transform="translate(185.366 467.421)" fill="#c2d56e"/>
    <circle id="Ellipse_67" data-name="Ellipse 67" cx="24.138" cy="24.138" r="24.138" transform="translate(671.327 502.986)" fill="#a9ba50"/>
    <circle id="Ellipse_68" data-name="Ellipse 68" cx="21.349" cy="21.349" r="21.349" transform="translate(645.224 528.241)" fill="#c2d56e"/>
    <circle id="Ellipse_69" data-name="Ellipse 69" cx="10.545" cy="10.545" r="10.545" transform="translate(656.929 511.606)" fill="#afc342"/>
    <path id="Path_120" data-name="Path 120" d="M100.271,869.156l388.3,23.131a47.253,47.253,0,0,0,12.25-.869L689.151,853a2.456,2.456,0,0,0-.4-4.853s-355.668-18.883-357.666-18.614L100.047,862.839C96.307,863.34,96.5,868.933,100.271,869.156Z" transform="translate(132.447 -99.64)" fill="url(#linear-gradient)"/>
    <g id="Group_51" data-name="Group 51" transform="translate(592.95 513.701)">
      <path id="Path_121" data-name="Path 121" d="M390,706.32c-9.027,0-14.931-8.323-14.931-18.59s5.9-18.589,14.931-18.589,16.344,8.322,16.344,18.589S399.031,706.32,390,706.32Z" transform="translate(-375.074 -669.141)" fill="#ced9db"/>
      <ellipse id="Ellipse_70" data-name="Ellipse 70" cx="13.208" cy="18.589" rx="13.208" ry="18.589" transform="translate(4.858)" fill="#a8c0c3"/>
      <path id="Path_122" data-name="Path 122" d="M394.384,669.751c1.164,6.36,1.071,18.75-11.365,33.065a10.748,10.748,0,0,0,7.506,3.3c7.295,0,13.208-8.323,13.208-18.59C403.733,679.152,399.795,672.074,394.384,669.751Z" transform="translate(-372.459 -668.94)" fill="#88a4a7"/>
    </g>
    <ellipse id="Ellipse_71" data-name="Ellipse 71" cx="52.791" cy="68.902" rx="52.791" ry="68.902" transform="translate(694.892 606.195)" fill="#674541"/>
    <rect id="Rectangle_126" data-name="Rectangle 126" width="26.549" height="137.805" transform="translate(722.749 606.195)" fill="#674541"/>
    <ellipse id="Ellipse_72" data-name="Ellipse 72" cx="52.791" cy="68.902" rx="52.791" ry="68.902" transform="translate(669.958 606.195)" fill="#3b2825"/>
    <ellipse id="Ellipse_73" data-name="Ellipse 73" cx="28.08" cy="36.65" rx="28.08" ry="36.65" transform="translate(691.522 638.447)" fill="#9c8887"/>
    <ellipse id="Ellipse_74" data-name="Ellipse 74" cx="23.276" cy="30.38" rx="23.276" ry="30.38" transform="translate(696.326 644.717)" fill="#c3a8a7"/>
    <path id="Path_123" data-name="Path 123" d="M259.661,732.108c-1.778-13.083-7.025-147.453-7.025-147.453L359.9,598.176l78.274,133.933Z" transform="translate(177.57 -183.252)" fill="#50bfd0"/>
    <path id="Path_124" data-name="Path 124" d="M314.555,695.589,103,715.446l-14.4,24.079-2.71,106.291,449.968,8V746.258Z" transform="translate(122.675 -146.733)" fill="#2a94ae"/>
    <path id="Path_125" data-name="Path 125" d="M314.442,695.589,102.884,715.446l-14.4,24.079-2.252,88.339,236.631-77.14,212.879,11V746.258Z" transform="translate(122.788 -146.733)" fill="#39aec2"/>
    <path id="Path_126" data-name="Path 126" d="M169.341,549.266" transform="translate(150.149 -194.902)" fill="#fff"/>
    <path id="Path_127" data-name="Path 127" d="M192.27,617.732,138.9,747.519l158.2-15.411-5.514-147.453Z" transform="translate(140.129 -183.252)" fill="#3198a3"/>
    <path id="Path_128" data-name="Path 128" d="M257.921,695.589l221.3,50.669,159.427-5.815L436.435,695.589Z" transform="translate(179.31 -146.733)" fill="#add9e5"/>
    <path id="Path_129" data-name="Path 129" d="M179.053,797.29l167.887,3.366-3.757,16.871-164.13-2.988Z" transform="translate(153.346 -113.253)" fill="#64c7e1"/>
    <path id="Path_130" data-name="Path 130" d="M424.409,735.149l159.427-5.815,11.181,83.745L424.409,842.711Z" transform="translate(234.117 -135.624)" fill="#39abbe"/>
    <path id="Path_131" data-name="Path 131" d="M292.852,831.738l137.339,2.443c-3.573-45.479-32.992-80.963-68.781-80.963C326.267,753.218,297.269,787.44,292.852,831.738Z" transform="translate(190.809 -127.762)" fill="#211311"/>
    <ellipse id="Ellipse_75" data-name="Ellipse 75" cx="52.791" cy="68.902" rx="52.791" ry="68.902" transform="translate(513.144 646.827)" fill="#674541"/>
    <rect id="Rectangle_127" data-name="Rectangle 127" width="26.549" height="137.805" transform="translate(541.002 646.827)" fill="#674541"/>
    <ellipse id="Ellipse_76" data-name="Ellipse 76" cx="52.791" cy="68.902" rx="52.791" ry="68.902" transform="translate(488.211 646.827)" fill="#3b2825"/>
    <ellipse id="Ellipse_77" data-name="Ellipse 77" cx="28.08" cy="36.65" rx="28.08" ry="36.65" transform="translate(509.775 679.08)" fill="#9c8887"/>
    <ellipse id="Ellipse_78" data-name="Ellipse 78" cx="23.276" cy="30.38" rx="23.276" ry="30.38" transform="translate(514.579 685.35)" fill="#c3a8a7"/>
    <ellipse id="Ellipse_79" data-name="Ellipse 79" cx="2.965" cy="3.87" rx="2.965" ry="3.87" transform="translate(523.944 711.86)" fill="#9c8887"/>
    <ellipse id="Ellipse_80" data-name="Ellipse 80" cx="2.965" cy="3.87" rx="2.965" ry="3.87" transform="translate(545.25 711.86)" fill="#9c8887"/>
    <ellipse id="Ellipse_81" data-name="Ellipse 81" cx="2.965" cy="3.87" rx="2.965" ry="3.87" transform="translate(535.176 698.892)" fill="#9c8887"/>
    <ellipse id="Ellipse_82" data-name="Ellipse 82" cx="2.965" cy="3.87" rx="2.965" ry="3.87" transform="translate(535.176 725.639)" fill="#9c8887"/>
    <path id="Path_132" data-name="Path 132" d="M219.185,829.275c-4.263-42.984-30.283-76.057-61.759-76.057-30.937,0-56.589,31.956-61.507,73.864Z" transform="translate(125.979 -127.762)" fill="#211311"/>
    <ellipse id="Ellipse_83" data-name="Ellipse 83" cx="47.614" cy="62.146" rx="47.614" ry="62.146" transform="translate(248.161 644.732)" fill="#674541"/>
    <rect id="Rectangle_128" data-name="Rectangle 128" width="23.946" height="124.292" transform="translate(273.287 644.732)" fill="#674541"/>
    <ellipse id="Ellipse_84" data-name="Ellipse 84" cx="47.614" cy="62.146" rx="47.614" ry="62.146" transform="translate(225.673 644.732)" fill="#3b2825"/>
    <ellipse id="Ellipse_85" data-name="Ellipse 85" cx="25.327" cy="33.056" rx="25.327" ry="33.056" transform="translate(245.122 673.822)" fill="#9c8887"/>
    <ellipse id="Ellipse_86" data-name="Ellipse 86" cx="20.994" cy="27.401" rx="20.994" ry="27.401" transform="translate(249.455 679.477)" fill="#c3a8a7"/>
    <path id="Path_133" data-name="Path 133" d="M197.161,609.54,124.046,740.618l24.121-2.264Z" transform="translate(135.238 -175.061)" fill="#3198a3"/>
    <path id="Path_134" data-name="Path 134" d="M347.919,603.592,410.213,709.73H267.163Z" transform="translate(182.352 -177.019)" fill="#d3eef8"/>
    <path id="Path_135" data-name="Path 135" d="M348.877,605.056l-84.624-5.911,3.868,112.049Z" transform="translate(181.394 -178.483)" fill="#fff"/>
    <path id="Path_136" data-name="Path 136" d="M275.216,599.144l-78.395,25.447L158.465,727.338l116.75-13.725Z" transform="translate(146.569 -178.483)" fill="#d3eef8"/>
    <path id="Path_137" data-name="Path 137" d="M196.821,618.289,158.465,721.036l116.75-13.725Z" transform="translate(146.569 -172.18)" fill="#d3eef8"/>
    <g id="Group_52" data-name="Group 52" transform="translate(636.582 619.155)">
      <path id="Path_138" data-name="Path 138" d="M429.387,767.881l-15.238-3.38a7.975,7.975,0,1,1,3.455-15.572l12.7,2.817,30.57-3.225a7.975,7.975,0,1,1,1.672,15.863Z" transform="translate(-407.899 -748.477)" fill="#fea900"/>
    </g>
    <path id="Path_139" data-name="Path 139" d="M424.409,767.832l32.7-3.448a7.975,7.975,0,0,0-1.672-15.863l-30.57,3.225-.457-.1Z" transform="translate(234.117 -129.322)" fill="#fff"/>
    <path id="Path_140" data-name="Path 140" d="M536.832,756.408c.241,0,.485-.011.73-.033l17.77-1.8c.113-.011.221-.033.332-.048l-2.111-15.76-17.435,1.728a7.976,7.976,0,0,0,.714,15.919Z" transform="translate(268.504 -132.521)" fill="#fff"/>
    <path id="Path_141" data-name="Path 141" d="M546.139,755l4.2-.381c.113-.009.221-.032.332-.046l-2.111-15.808-4.529.449Z" transform="translate(273.497 -132.521)" fill="#fea900"/>
    <path id="Path_142" data-name="Path 142" d="M462.659,752.31l18.5,28.549a7.576,7.576,0,0,0,7.295,3.088l37.646-4.733c3.186-.4,5.665-2.573,6.059-5.309l3.69-25.683c.537-3.738-2.96-7-7.358-6.863l-59.837,1.868C463.32,743.393,460.071,748.317,462.659,752.31Z" transform="translate(246.411 -131.667)" fill="#fff"/>
    <path id="Path_143" data-name="Path 143" d="M423.409,796.2l182.32-22.753-7.692,38.009L423.409,836.832Z" transform="translate(233.788 -121.103)" fill="#35b7dc"/>
    <path id="Path_144" data-name="Path 144" d="M402.618,790.564h28.964V831.2l-22.419-2.749Z" transform="translate(226.944 -115.468)" fill="#64c7e1"/>
    <path id="Path_145" data-name="Path 145" d="M462.391,752.842" transform="translate(246.621 -127.885)" fill="#fff"/>
    <path id="Path_146" data-name="Path 146" d="M468.652,743.182c-5.331.166-8.581,5.091-5.993,9.084l18.5,28.549a7.576,7.576,0,0,0,7.295,3.088l3.747-.472,30.683-41.942Z" transform="translate(246.411 -131.623)" fill="#ced9db"/>
    <path id="Path_147" data-name="Path 147" d="M275.771,691.27a35.218,35.218,0,0,1,1.9-5.738c5.845-13.568,18.832-21.013,29.008-16.631,7.644,3.294,11.525,12.326,10.507,22.369h7.461c.962-13.459-4.43-25.406-14.745-29.85-14.176-6.106-32.268,4.265-40.409,23.165a49.613,49.613,0,0,0-2.327,6.685Z" transform="translate(182.352 -158.558)" fill="#add9e5"/>
    <path id="Path_148" data-name="Path 148" d="M410.293,685.957l-2.1-3.58-49.452-.984-8.437-4.62H283.409l-5.36,5.36H267.074l.068,3.824Z" transform="translate(182.323 -152.928)" fill="#2a94ae"/>
    <path id="Path_149" data-name="Path 149" d="M78.089,771.983h20.53L103,820.9H74.394Z" transform="translate(118.893 -121.584)" fill="#64c7e1"/>
    <path id="Path_150" data-name="Path 150" d="M88.832,727.25h19.383L93.023,767.416H85.156l.966-40.166Z" transform="translate(122.436 -136.311)" fill="#fea900"/>
    <path id="Path_151" data-name="Path 151" d="M264.43,700.048s.961,14.745-7.025,18.553-19.257-31-19.257-31l3.4-5.552,8.216,19.186Z" transform="translate(172.801 -151.192)" fill="#0d4049"/>
    <g id="Group_53" data-name="Group 53" transform="translate(391.914 513.701)">
      <path id="Path_152" data-name="Path 152" d="M238.758,706.32c-9.027,0-14.93-8.323-14.93-18.59s5.9-18.589,14.93-18.589S255.1,677.463,255.1,687.73,247.784,706.32,238.758,706.32Z" transform="translate(-223.828 -669.141)" fill="#ced9db"/>
      <ellipse id="Ellipse_87" data-name="Ellipse 87" cx="13.208" cy="18.589" rx="13.208" ry="18.589" transform="translate(4.857)" fill="#a8c0c3"/>
      <path id="Path_153" data-name="Path 153" d="M243.138,669.751c1.163,6.36,1.07,18.75-11.366,33.065a10.749,10.749,0,0,0,7.506,3.3c7.295,0,13.208-8.323,13.208-18.59C252.486,679.152,248.549,672.074,243.138,669.751Z" transform="translate(-221.213 -668.94)" fill="#88a4a7"/>
    </g>
    <path id="Path_154" data-name="Path 154" d="M179.053,773.986,292.3,747.593l212.879.478-212.879-11Z" transform="translate(153.346 -133.078)" fill="#4bbdcb"/>
    <path id="Path_155" data-name="Path 155" d="M476.061,748.385l15.895-.716a4.557,4.557,0,0,1,4.584,3.3l5.21,18.229a4.555,4.555,0,0,1-3.813,5.771l-8.8,1.1a4.553,4.553,0,0,1-4.364-2.006l-12.311-18.614A4.554,4.554,0,0,1,476.061,748.385Z" transform="translate(249.687 -129.59)" fill="#39aec2"/>
    <path id="Path_156" data-name="Path 156" d="M495.391,752.137l5.042,17.809a3.5,3.5,0,0,0,3.67,2.533l7.985-.691a3.5,3.5,0,0,0,3.157-2.945l2.769-17.665a3.5,3.5,0,0,0-3.58-4.041l-15.795.548A3.5,3.5,0,0,0,495.391,752.137Z" transform="translate(257.44 -129.764)" fill="#39aec2"/>
    <path id="Path_157" data-name="Path 157" d="M275.216,599.144V618.68L185.83,724.121l-27.365,3.217,38.355-102.747Z" transform="translate(146.569 -178.483)" fill="#aed3db"/>
    <ellipse id="Ellipse_88" data-name="Ellipse 88" cx="2.299" cy="3.001" rx="2.299" ry="3.001" transform="translate(259.887 703.315)" fill="#9c8887"/>
    <ellipse id="Ellipse_89" data-name="Ellipse 89" cx="2.299" cy="3.001" rx="2.299" ry="3.001" transform="translate(276.412 703.315)" fill="#9c8887"/>
    <ellipse id="Ellipse_90" data-name="Ellipse 90" cx="2.299" cy="3.001" rx="2.299" ry="3.001" transform="translate(268.598 693.257)" fill="#9c8887"/>
    <ellipse id="Ellipse_91" data-name="Ellipse 91" cx="2.299" cy="3.001" rx="2.299" ry="3.001" transform="translate(268.598 714.002)" fill="#9c8887"/>
    <path id="Path_158" data-name="Path 158" d="M188.174,806.485l143.436,3.061V814.5l-142.8-2.761Z" transform="translate(156.349 -110.226)" fill="#211311"/>
    <g id="Group_60" data-name="Group 60" transform="translate(133 240)">
      <g id="Group_59" data-name="Group 59" clip-path="url(#clip-path)">
        <g id="Group_58" data-name="Group 58" transform="translate(60.287 524.632)">
          <path id="Path_159" data-name="Path 159" d="M611.8,949.29,74.394,917.038V872.971l537.408,28.8Z" transform="translate(-74.394 -872.971)" fill="#97b8ba"/>
          <path id="Path_160" data-name="Path 160" d="M611.8,947.2,74.394,918.514V879.319L611.8,908.005Z" transform="translate(-74.394 -870.882)" fill="#ced9db"/>
          <g id="Group_57" data-name="Group 57" transform="translate(0 8.438)">
            <g id="Group_56" data-name="Group 56" clip-path="url(#clip-path-2)">
              <g id="Group_55" data-name="Group 55" transform="translate(32.296 0)">
                <path id="Path_161" data-name="Path 161" d="M141.508,879.319,98.692,928.284h32.382l43.017-48.965Z" transform="translate(-98.692 -879.319)" fill="#838889"/>
                <path id="Path_162" data-name="Path 162" d="M187.453,879.319l-42.817,48.965h32.382l43.017-48.965Z" transform="translate(-83.567 -879.319)" fill="#838889"/>
                <path id="Path_163" data-name="Path 163" d="M229.6,882.731,186.783,931.7h32.382l43.017-48.964Z" transform="translate(-69.692 -878.196)" fill="#838889"/>
                <path id="Path_164" data-name="Path 164" d="M275.544,882.731,232.727,931.7h32.382l43.017-48.964Z" transform="translate(-54.567 -878.196)" fill="#838889"/>
                <path id="Path_165" data-name="Path 165" d="M322.174,882.731l-45.588,52.134,24.223,9.272,53.946-61.405Z" transform="translate(-40.129 -878.196)" fill="#838889"/>
                <path id="Path_166" data-name="Path 166" d="M371.039,882.731l-57.381,65.955H346.04l57.581-65.955Z" transform="translate(-27.925 -878.196)" fill="#838889"/>
              </g>
            </g>
          </g>
        </g>
        <circle id="Ellipse_92" data-name="Ellipse 92" cx="24.951" cy="24.951" r="24.951" transform="translate(164.233 564.292)" fill="#c2d56e"/>
        <circle id="Ellipse_93" data-name="Ellipse 93" cx="35.132" cy="35.132" r="35.132" transform="translate(195.278 550.159)" fill="#c2d56e"/>
        <circle id="Ellipse_94" data-name="Ellipse 94" cx="20.771" cy="20.771" r="20.771" transform="translate(248.703 582.168)" fill="#b1c15a"/>
      </g>
    </g>
  </g>
</svg>
