<svg xmlns="http://www.w3.org/2000/svg" xmlns:xlink="http://www.w3.org/1999/xlink" width="691.17" height="615.34" viewBox="0 0 691.17 615.34">
  <defs>
    <clipPath id="clip-path">
      <circle id="Ellipse_156" data-name="Ellipse 156" cx="307.67" cy="307.67" r="307.67" fill="none"/>
    </clipPath>
    <clipPath id="clip-path-2">
      <path id="Path_386" data-name="Path 386" d="M1546.892,328.278l-489.656.563V298.616l489.656-.563Z" transform="translate(-1057.236 -298.054)" fill="none"/>
    </clipPath>
    <linearGradient id="linear-gradient" y1="0.5" x2="1" y2="0.5" gradientUnits="objectBoundingBox">
      <stop offset="0" stop-color="#ffde00"/>
      <stop offset="1" stop-color="#ffde00" stop-opacity="0"/>
    </linearGradient>
    <linearGradient id="linear-gradient-2" x1="0" y1="0.5" x2="1" y2="0.5" xlink:href="#linear-gradient"/>
  </defs>
  <g id="Group_206" data-name="Group 206" transform="translate(-1049.198 18.806)">
    <circle id="Ellipse_155" data-name="Ellipse 155" cx="307.67" cy="307.67" r="307.67" transform="translate(1049.198 -18.806)" fill="#fffacb"/>
    <g id="Group_186" data-name="Group 186" transform="translate(1188.967 72.47)">
      <rect id="Rectangle_311" data-name="Rectangle 311" width="162.355" height="360.713" fill="#e7c88c"/>
      <g id="Group_177" data-name="Group 177" transform="translate(16.507 17.606)">
        <rect id="Rectangle_312" data-name="Rectangle 312" width="13.34" height="24.764" fill="#fee1af"/>
        <rect id="Rectangle_313" data-name="Rectangle 313" width="13.34" height="24.764" transform="translate(29)" fill="#fea900"/>
        <rect id="Rectangle_314" data-name="Rectangle 314" width="13.34" height="24.764" transform="translate(58)" fill="#fee1af"/>
        <rect id="Rectangle_315" data-name="Rectangle 315" width="13.34" height="24.764" transform="translate(87)" fill="#c5a56a"/>
        <rect id="Rectangle_316" data-name="Rectangle 316" width="13.34" height="24.764" transform="translate(116)" fill="#fee1af"/>
      </g>
      <g id="Group_178" data-name="Group 178" transform="translate(16.507 83.574)">
        <rect id="Rectangle_317" data-name="Rectangle 317" width="13.34" height="24.764" fill="#fee1af"/>
        <rect id="Rectangle_318" data-name="Rectangle 318" width="13.34" height="24.764" transform="translate(29)" fill="#c5a56a"/>
        <rect id="Rectangle_319" data-name="Rectangle 319" width="13.34" height="24.764" transform="translate(58)" fill="#fee1af"/>
        <rect id="Rectangle_320" data-name="Rectangle 320" width="13.34" height="24.764" transform="translate(87)" fill="#ffd408"/>
        <rect id="Rectangle_321" data-name="Rectangle 321" width="13.34" height="24.764" transform="translate(116)" fill="#fee1af"/>
      </g>
      <g id="Group_179" data-name="Group 179" transform="translate(16.507 149.542)">
        <rect id="Rectangle_322" data-name="Rectangle 322" width="13.34" height="24.764" fill="#fee1af"/>
        <rect id="Rectangle_323" data-name="Rectangle 323" width="13.34" height="24.764" transform="translate(29)" fill="#fee1af"/>
        <rect id="Rectangle_324" data-name="Rectangle 324" width="13.34" height="24.764" transform="translate(58)" fill="#c5a56a"/>
        <rect id="Rectangle_325" data-name="Rectangle 325" width="13.34" height="24.764" transform="translate(87)" fill="#fea900"/>
        <rect id="Rectangle_326" data-name="Rectangle 326" width="13.34" height="24.764" transform="translate(116)" fill="#fee1af"/>
      </g>
      <g id="Group_180" data-name="Group 180" transform="translate(16.507 215.511)">
        <rect id="Rectangle_327" data-name="Rectangle 327" width="13.34" height="24.764" fill="#fee1af"/>
        <rect id="Rectangle_328" data-name="Rectangle 328" width="13.34" height="24.764" transform="translate(29)" fill="#c5a56a"/>
        <rect id="Rectangle_329" data-name="Rectangle 329" width="13.34" height="24.764" transform="translate(58)" fill="#fee1af"/>
        <rect id="Rectangle_330" data-name="Rectangle 330" width="13.34" height="24.764" transform="translate(87)" fill="#fee1af"/>
        <rect id="Rectangle_331" data-name="Rectangle 331" width="13.34" height="24.764" transform="translate(116)" fill="#fee1af"/>
      </g>
      <g id="Group_181" data-name="Group 181" transform="translate(16.507 281.479)">
        <rect id="Rectangle_332" data-name="Rectangle 332" width="13.34" height="24.764" fill="#fee1af"/>
        <rect id="Rectangle_333" data-name="Rectangle 333" width="13.34" height="24.764" transform="translate(29)" fill="#fee1af"/>
        <rect id="Rectangle_334" data-name="Rectangle 334" width="13.34" height="24.764" transform="translate(58)" fill="#fee1af"/>
        <rect id="Rectangle_335" data-name="Rectangle 335" width="13.34" height="24.764" transform="translate(87)" fill="#fee1af"/>
        <rect id="Rectangle_336" data-name="Rectangle 336" width="13.34" height="24.764" transform="translate(116)" fill="#c5a56a"/>
      </g>
      <rect id="Rectangle_337" data-name="Rectangle 337" width="129.34" height="4.121" transform="translate(16.507 58.734)" fill="#fee1af"/>
      <rect id="Rectangle_338" data-name="Rectangle 338" width="129.34" height="4.121" transform="translate(16.507 127.717)" fill="#fee1af"/>
      <path id="Path_370" data-name="Path 370" d="M1273.981,312.993h22.555V60.113L1273.981,49.1Z" transform="translate(-1111.626 -49.104)" fill="#cea864"/>
      <g id="Group_182" data-name="Group 182" transform="translate(167.901 17.606)">
        <rect id="Rectangle_339" data-name="Rectangle 339" width="4" height="24.764" fill="#e7c88c"/>
        <rect id="Rectangle_340" data-name="Rectangle 340" width="4" height="24.764" transform="translate(8.696)" fill="#e7c88c"/>
      </g>
      <g id="Group_183" data-name="Group 183" transform="translate(167.901 84.38)">
        <rect id="Rectangle_341" data-name="Rectangle 341" width="4" height="24.764" fill="#e7c88c"/>
        <rect id="Rectangle_342" data-name="Rectangle 342" width="4" height="24.764" transform="translate(8.696)" fill="#e7c88c"/>
      </g>
      <g id="Group_184" data-name="Group 184" transform="translate(167.901 149.542)">
        <rect id="Rectangle_343" data-name="Rectangle 343" width="4" height="24.764" fill="#e7c88c"/>
        <rect id="Rectangle_344" data-name="Rectangle 344" width="4" height="24.764" transform="translate(8.696)" fill="#e7c88c"/>
      </g>
      <g id="Group_185" data-name="Group 185" transform="translate(167.901 214.705)">
        <rect id="Rectangle_345" data-name="Rectangle 345" width="4" height="24.764" fill="#e7c88c"/>
        <rect id="Rectangle_346" data-name="Rectangle 346" width="4" height="24.764" transform="translate(8.696)" fill="#e7c88c"/>
      </g>
      <rect id="Rectangle_347" data-name="Rectangle 347" width="15.732" height="4.121" transform="translate(166.097 58.734)" fill="#fee1af"/>
      <rect id="Rectangle_348" data-name="Rectangle 348" width="15.732" height="4.121" transform="translate(166.097 127.717)" fill="#fee1af"/>
    </g>
    <path id="Path_371" data-name="Path 371" d="M1097.5,190.734V333.041h65.8V190.734Zm41.947,6.945h5.406v5.339h-5.406Zm0,12.253h5.406v5.339h-5.406Zm0,12.253h5.406v5.337h-5.406ZM1127.7,197.679h5.406v5.339H1127.7Zm0,12.253h5.406v5.339H1127.7Zm0,12.253h5.406v5.337H1127.7Zm-11.753-24.505h5.406v5.339h-5.406Zm0,12.253h5.406v5.339h-5.406Zm0,12.253h5.406v5.337h-5.406Zm-11.753-24.505h5.406v5.339h-5.406Zm0,12.253h5.406v5.339h-5.406Zm0,12.253h5.406v5.337h-5.406Zm5.406,62.138h-5.406v-5.337h5.406Zm0-12.253h-5.406v-5.337h5.406Zm0-12.568h-5.406v-9.77h5.406Zm11.753,24.821h-5.406v-5.337h5.406Zm0-12.253h-5.406v-5.337h5.406Zm0-12.568h-5.406v-9.77h5.406Zm11.753,24.821H1127.7v-5.337h5.406Zm0-12.253H1127.7v-5.337h5.406Zm0-12.568H1127.7v-9.77h5.406Zm11.753,24.821h-5.406v-5.337h5.406Zm0-12.253h-5.406v-5.337h5.406Zm0-12.568h-5.406v-9.77h5.406Zm11.753,24.821H1151.2v-5.337h5.406Zm0-12.253H1151.2v-5.337h5.406Zm0-12.568H1151.2v-9.77h5.406Zm0-16.755h-52.416V241.12h52.416Zm0-5.73h-52.416v-1.626h52.416Zm0-9.494H1151.2v-5.337h5.406Zm0-12.251H1151.2v-5.339h5.406Zm0-12.253H1151.2v-5.339h5.406Z" transform="translate(16.62 72.096)" fill="#f2d6a2"/>
    <g id="Group_193" data-name="Group 193" transform="translate(1049.198 -18.806)">
      <g id="Group_192" data-name="Group 192" clip-path="url(#clip-path)">
        <g id="Group_191" data-name="Group 191" transform="translate(10.803 417.463)">
          <path id="Path_372" data-name="Path 372" d="M1546.892,330.433l-489.656-3.043V292.239l489.656-.448Z" transform="translate(-1057.236 -291.791)" fill="#97b8ba"/>
          <path id="Path_373" data-name="Path 373" d="M1545.548,328.278l-488.312.563V298.616l488.312-.563Z" transform="translate(-1057.236 -289.637)" fill="#ced9db"/>
          <g id="Group_190" data-name="Group 190" transform="translate(0 8.417)">
            <g id="Group_189" data-name="Group 189" clip-path="url(#clip-path-2)">
              <g id="Group_187" data-name="Group 187" transform="translate(-24.52 -8.846)">
                <path id="Path_374" data-name="Path 374" d="M1082.288,291.472l-43.3,49.512h32.744l43.5-49.512Z" transform="translate(-1038.992 -291.472)" fill="#838889"/>
                <path id="Path_375" data-name="Path 375" d="M1128.232,291.472l-43.3,49.512h32.744l43.5-49.512Z" transform="translate(-1023.184 -291.472)" fill="#838889"/>
                <path id="Path_376" data-name="Path 376" d="M1170.379,294.884l-43.3,49.512h32.744l43.5-49.512Z" transform="translate(-1008.683 -290.298)" fill="#838889"/>
                <path id="Path_377" data-name="Path 377" d="M1216.323,294.884l-43.3,49.512h32.744l43.5-49.512Z" transform="translate(-992.875 -290.298)" fill="#838889"/>
                <path id="Path_378" data-name="Path 378" d="M1262.985,294.884l-46.1,52.717,24.494,9.375,54.55-62.092Z" transform="translate(-977.785 -290.298)" fill="#838889"/>
                <path id="Path_379" data-name="Path 379" d="M1311.981,294.884l-58.022,66.693H1286.7l58.225-66.693Z" transform="translate(-965.03 -290.298)" fill="#838889"/>
              </g>
              <g id="Group_188" data-name="Group 188" transform="translate(341.996 -8.846)">
                <path id="Path_380" data-name="Path 380" d="M1354.98,291.472l-43.3,49.512h32.744l43.5-49.512Z" transform="translate(-1311.685 -291.472)" fill="#838889"/>
                <path id="Path_381" data-name="Path 381" d="M1400.924,291.472l-43.3,49.512h32.744l43.5-49.512Z" transform="translate(-1295.877 -291.472)" fill="#838889"/>
                <path id="Path_382" data-name="Path 382" d="M1443.071,294.884l-43.3,49.512h32.744l43.5-49.512Z" transform="translate(-1281.375 -290.298)" fill="#838889"/>
                <path id="Path_383" data-name="Path 383" d="M1489.015,294.884l-43.3,49.512h32.744l43.5-49.512Z" transform="translate(-1265.568 -290.298)" fill="#838889"/>
                <path id="Path_384" data-name="Path 384" d="M1535.677,294.884l-46.1,52.717,24.494,9.375,54.55-62.092Z" transform="translate(-1250.477 -290.298)" fill="#838889"/>
                <path id="Path_385" data-name="Path 385" d="M1584.674,294.884l-58.022,66.693h32.744l58.225-66.693Z" transform="translate(-1237.722 -290.298)" fill="#838889"/>
              </g>
            </g>
          </g>
        </g>
      </g>
    </g>
    <path id="Path_387" data-name="Path 387" d="M1155.52,326.914h-9.112V190.734l9.112,4.744Z" transform="translate(33.447 72.095)" fill="#cea864"/>
    <g id="Group_203" data-name="Group 203" transform="translate(1206.96 166.333)">
      <path id="Path_388" data-name="Path 388" d="M1166.574,405.843,1427.1,453.317l249.05-100.781-106.165-13.2-286.162,38.359Z" transform="translate(-1166.574 -43.109)" fill="#97b8ba"/>
      <g id="Group_194" data-name="Group 194" transform="translate(217.381 0.135)">
        <path id="Path_389" data-name="Path 389" d="M1330.954,154.342a2.626,2.626,0,0,1-1.164-.274,2.709,2.709,0,0,1-1.211-3.6l7.31-15.137,114.368-16.262a3.229,3.229,0,0,1,2.972,1.195,3.343,3.343,0,0,1,.511,3.2l-5.583,15.265a2.637,2.637,0,0,1-3.4,1.585,2.7,2.7,0,0,1-1.56-3.456l4.38-11.981-108.168,15.381-6.072,12.575A2.642,2.642,0,0,1,1330.954,154.342Z" transform="translate(-1328.308 -119.04)" fill="#997e7c"/>
      </g>
      <g id="Group_195" data-name="Group 195" transform="translate(338.025)">
        <path id="Path_390" data-name="Path 390" d="M1507.538,168.419a2.649,2.649,0,0,1-2.477-1.737l-6.735-18.079L1419.943,124.2a2.7,2.7,0,0,1-1.757-3.357,2.641,2.641,0,0,1,3.308-1.782l80.866,25.178,7.656,20.543a2.7,2.7,0,0,1-1.54,3.466A2.612,2.612,0,0,1,1507.538,168.419Z" transform="translate(-1418.069 -118.939)" fill="#997e7c"/>
      </g>
      <path id="Path_391" data-name="Path 391" d="M1263.3,289.327h-8.763a4.952,4.952,0,0,1-4.649-6.661l34.244-67.608a4.956,4.956,0,0,1,4.651-3.245H1299.7" transform="translate(-1138.014 -86.985)" fill="none" stroke="#3b2825" stroke-miterlimit="10" stroke-width="3"/>
      <path id="Path_392" data-name="Path 392" d="M1578.881,202.826l-88.68-19.535,4.6,9.767,8.493,5.521,75.591,15.571Z" transform="translate(-1055.226 -96.798)" fill="#c8a5a5"/>
      <path id="Path_393" data-name="Path 393" d="M1590.222,220.171c-6.422,2.305-115.751-11.275-115.751-11.275l28.787,39.784,28.21,2.894Z" transform="translate(-1060.638 -87.988)" fill="#a95f1b"/>
      <path id="Path_394" data-name="Path 394" d="M1416.965,132.995,1605.4,189.013a11.794,11.794,0,0,1,8.39,12.291l-3.782,44.982-10.981,3.942,3.884-44.78a6.653,6.653,0,0,0-4.66-6.93l-85.746-26.572Z" transform="translate(-1080.423 -114.103)" fill="#d8bcb9"/>
      <g id="Group_196" data-name="Group 196" transform="translate(32.913 256.661)">
        <ellipse id="Ellipse_157" data-name="Ellipse 157" cx="57.223" cy="19.732" rx="57.223" ry="19.732" transform="translate(0 113.8) rotate(-83.911)" fill="#3b2825"/>
        <path id="Path_395" data-name="Path 395" d="M1211.607,315.674l6.07-4.219,35.649,5.814-12.14,113.8-35.169-5.782Z" transform="translate(-1185.917 -309.362)" fill="#3b2825"/>
        <ellipse id="Ellipse_158" data-name="Ellipse 158" cx="57.223" cy="19.732" rx="57.223" ry="19.732" transform="translate(35.649 119.614) rotate(-83.911)" fill="#714943"/>
        <ellipse id="Ellipse_159" data-name="Ellipse 159" cx="40.534" cy="11.747" rx="40.534" ry="11.747" transform="translate(48.049 103.867) rotate(-83.911)" fill="#97625c"/>
        <ellipse id="Ellipse_160" data-name="Ellipse 160" cx="15.269" cy="5.265" rx="15.269" ry="5.265" transform="translate(57.174 79.432) rotate(-83.911)" fill="#cc928d"/>
        <ellipse id="Ellipse_161" data-name="Ellipse 161" cx="1.679" cy="0.579" rx="1.679" ry="0.579" transform="translate(64.203 61.93) rotate(-83.911)" fill="#714943"/>
        <ellipse id="Ellipse_162" data-name="Ellipse 162" cx="1.679" cy="0.579" rx="1.679" ry="0.579" transform="translate(63.159 71.272) rotate(-83.911)" fill="#714943"/>
        <ellipse id="Ellipse_163" data-name="Ellipse 163" cx="1.679" cy="0.579" rx="1.679" ry="0.579" transform="translate(66.273 66.712) rotate(-83.911)" fill="#714943"/>
        <ellipse id="Ellipse_164" data-name="Ellipse 164" cx="1.679" cy="0.579" rx="1.679" ry="0.579" transform="translate(60.675 66.082) rotate(-83.911)" fill="#714943"/>
      </g>
      <path id="Path_396" data-name="Path 396" d="M1593.331,267.394l-40.095-106.5-94.163-27.9-70.289,188.132-.978,3.341S1299.181,392.845,1294.9,462.9a28.384,28.384,0,0,0-.176,7.044c145.163-19.828,296.837-61.889,296.837-61.889S1652.794,321.127,1593.331,267.394Z" transform="translate(-1122.532 -114.103)" fill="#dc8315"/>
      <path id="Path_397" data-name="Path 397" d="M1363.9,316.532c-62.046,51.737-64.648,83.454-64.03,92.1A102.769,102.769,0,0,0,1294.9,433.9a28.384,28.384,0,0,0-.176,7.044c145.163-19.828,296.837-61.889,296.837-61.889L1640,306.632l12.114-89.347-58.785,21.107-204.547,53.733-.978,3.341S1377.574,303.366,1363.9,316.532Z" transform="translate(-1122.532 -85.102)" fill="#dc8315"/>
      <path id="Path_398" data-name="Path 398" d="M1510.492,310.778l67.337-45.108-2.506,21.173L1512.362,368.8Z" transform="translate(-1048.244 -68.454)" fill="#0c0d0c"/>
      <path id="Path_399" data-name="Path 399" d="M1401,321.126l-141.932-14.592,76.644-157.41,135.578-16.13Z" transform="translate(-1134.75 -114.103)" fill="#ffd591"/>
      <path id="Path_400" data-name="Path 400" d="M1558.682,284.287c-19.275-4.263-41.029,17.75-52.478,51-36.013,19.721-74.39,32.376-102.908,39.977-2.251-23.307-11.762-40.635-26.283-43.848-22.195-4.908-47.683,25.009-56.932,66.824a145.062,145.062,0,0,0-2.562,15.478c29.061-4.254,57.995-8.864,85.523-13.482,0-.04.011-.082.015-.122l95.369-16.79h0c43.344-8.075,74.781-24.189,84.156-26.11C1591.1,316.168,1580.537,289.12,1558.682,284.287Z" transform="translate(-1114.639 -62.23)" fill="#0c0d0c"/>
      <path id="Path_401" data-name="Path 401" d="M1489.952,289.375c-11.235,8.73-21.507,24.36-28.227,43.878-4.722,2.586-9.485,5.032-14.262,7.375-.022.169-.051.336-.073.507-3.431,28.485,8.3,51.341,26.2,51.05s35.2-23.617,38.63-52.1C1515.4,313.746,1505.6,292.238,1489.952,289.375Z" transform="translate(-1070.16 -60.298)" fill="#3b2825"/>
      <path id="Path_402" data-name="Path 402" d="M1283.888,262.11s-39.981,16.431-77.828,61.875c-3.8,4.562-7.176,8.933-10.166,13.125a133.457,133.457,0,0,0-8.449,59.261l144.317,29.146a28.384,28.384,0,0,1,.176-7.044,102.77,102.77,0,0,1,4.969-25.262c4.53-20.834,8.771-46.865,64.03-92.1,13.674-13.167,23.905-21.064,23.907-21.066l.978-3.341Z" transform="translate(-1159.569 -69.679)" fill="#f9a113"/>
      <ellipse id="Ellipse_165" data-name="Ellipse 165" cx="57.223" cy="19.732" rx="57.223" ry="19.732" transform="translate(200.995 400.662) rotate(-83.911)" fill="#3b2825"/>
      <path id="Path_403" data-name="Path 403" d="M1338.426,343.287l5.124-9.275,34.954,7.337-12.14,113.8-35.649-7.454Z" transform="translate(-1110.099 -44.94)" fill="#3b2825"/>
      <ellipse id="Ellipse_166" data-name="Ellipse 166" cx="57.223" cy="19.732" rx="57.223" ry="19.732" transform="translate(236.644 408.115) rotate(-83.911)" fill="#714943"/>
      <ellipse id="Ellipse_167" data-name="Ellipse 167" cx="31.781" cy="9.211" rx="31.781" ry="9.211" transform="translate(252.495 383.933) rotate(-83.911)" fill="#97625c"/>
      <ellipse id="Ellipse_168" data-name="Ellipse 168" cx="27.717" cy="7.556" rx="27.717" ry="7.556" transform="translate(254.572 380.068) rotate(-83.911)" fill="#cc928d"/>
      <ellipse id="Ellipse_169" data-name="Ellipse 169" cx="2.43" cy="0.695" rx="2.43" ry="0.695" transform="translate(265.276 349.08) rotate(-83.911)" fill="#714943"/>
      <ellipse id="Ellipse_170" data-name="Ellipse 170" cx="2.43" cy="0.695" rx="2.43" ry="0.695" transform="translate(263.776 362.602) rotate(-83.911)" fill="#714943"/>
      <ellipse id="Ellipse_171" data-name="Ellipse 171" cx="2.43" cy="0.695" rx="2.43" ry="0.695" transform="translate(267.642 355.934) rotate(-83.911)" fill="#714943"/>
      <ellipse id="Ellipse_172" data-name="Ellipse 172" cx="2.43" cy="0.695" rx="2.43" ry="0.695" transform="translate(260.923 355.169) rotate(-83.911)" fill="#714943"/>
      <path id="Path_404" data-name="Path 404" d="M1471.27,307.875l12.735-18.5,28.263,5.231-18.677,102.768-29.514-5.449Z" transform="translate(-1064.214 -60.298)" fill="#3b2825"/>
      <ellipse id="Ellipse_173" data-name="Ellipse 173" cx="52.246" cy="31.938" rx="52.246" ry="31.938" transform="matrix(0.202, -0.979, 0.979, 0.202, 396.879, 330.426)" fill="#714943"/>
      <ellipse id="Ellipse_174" data-name="Ellipse 174" cx="32.487" cy="16.767" rx="32.487" ry="16.767" transform="translate(421.092 314.541) rotate(-80.257)" fill="#97625c"/>
      <ellipse id="Ellipse_175" data-name="Ellipse 175" cx="28.444" cy="13.801" rx="28.444" ry="13.801" transform="translate(424.699 311.058) rotate(-80.257)" fill="#cc928d"/>
      <ellipse id="Ellipse_176" data-name="Ellipse 176" cx="2.741" cy="1.228" rx="2.741" ry="1.228" transform="matrix(0.129, -0.992, 0.992, 0.129, 443.156, 280.428)" fill="#714943"/>
      <ellipse id="Ellipse_177" data-name="Ellipse 177" cx="2.741" cy="1.228" rx="2.741" ry="1.228" transform="matrix(0.129, -0.992, 0.992, 0.129, 441.588, 295.678)" fill="#714943"/>
      <ellipse id="Ellipse_178" data-name="Ellipse 178" cx="2.741" cy="1.228" rx="2.741" ry="1.228" transform="matrix(0.129, -0.992, 0.992, 0.129, 447.947, 287.595)" fill="#714943"/>
      <ellipse id="Ellipse_179" data-name="Ellipse 179" cx="2.741" cy="1.228" rx="2.741" ry="1.228" transform="matrix(0.129, -0.992, 0.992, 0.129, 437.146, 287.959)" fill="#714943"/>
      <path id="Path_405" data-name="Path 405" d="M1336.927,157,1275.8,289.954l102.911,9.768,65.663-155.2Z" transform="translate(-1128.993 -110.139)" fill="#ffe3ba"/>
      <path id="Path_406" data-name="Path 406" d="M1422.351,180.189l15.092-35.671L1329.994,157l-34.043,74.048Z" transform="translate(-1122.06 -110.139)" fill="#fff6ea"/>
      <path id="Path_407" data-name="Path 407" d="M1563.074,265.954l-8.668-1.108-1.031,7.606Z" transform="translate(-1033.489 -68.738)" fill="#714943"/>
      <path id="Path_408" data-name="Path 408" d="M1382.3,309.489l161.142-42.33-34.792-101.021-65.48-17.408Z" transform="translate(-1092.352 -108.69)" fill="#ffe3ba"/>
      <path id="Path_409" data-name="Path 409" d="M1436.35,148.729l-34.239,90.427c26.434-11.966,83.152-39.506,107.22-51.237l-7.5-21.782Z" transform="translate(-1085.534 -108.69)" fill="#fff6ea"/>
      <path id="Path_410" data-name="Path 410" d="M1459.851,154.463l20.676,128.649-18.706,5.251-12.471-136.2Z" transform="translate(-1069.281 -107.507)" fill="#dc8315"/>
      <ellipse id="Ellipse_180" data-name="Ellipse 180" cx="9.285" cy="5.281" rx="9.285" ry="5.281" transform="translate(294.865 149.654) rotate(-73.534)" fill="#3b2825"/>
      <ellipse id="Ellipse_181" data-name="Ellipse 181" cx="9.285" cy="5.281" rx="9.285" ry="5.281" transform="translate(267.879 227.169) rotate(-73.534)" fill="#3b2825"/>
      <path id="Path_411" data-name="Path 411" d="M1382.3,281.086l161.142-42.33-2.575-7.476-155.4,41.439Z" transform="translate(-1092.352 -80.287)" fill="#714943"/>
      <path id="Path_412" data-name="Path 412" d="M1517.489,238.4l-2.48-6.588,50.629-14.545,10.636.025Z" transform="translate(-1046.69 -85.109)" fill="#714943"/>
      <path id="Path_413" data-name="Path 413" d="M1398.592,224.772h8.762a4.955,4.955,0,0,1,4.65,6.663l-24.837,67.608a4.953,4.953,0,0,1-4.649,3.245H1371.6" transform="translate(-1096.03 -82.526)" fill="none" stroke="#3b2825" stroke-miterlimit="10" stroke-width="3"/>
      <path id="Path_414" data-name="Path 414" d="M1282.417,350.244s57.392-63.994,106.941-76.253l-104.824-10.777s-42.819,13.951-57.557,77.26Z" transform="translate(-1145.792 -69.299)" fill="#ffb049"/>
      <g id="Group_197" data-name="Group 197" transform="translate(81.185 271.174)">
        <path id="Path_415" data-name="Path 415" d="M1279.094,335.862l3.323-5.4-55.44-9.77.828,5.864Z" transform="translate(-1226.977 -320.696)" fill="#0c0d0c"/>
        <path id="Path_416" data-name="Path 416" d="M1276.739,336.682l-48.758-8.878.635,4.5,45.715,8.292Z" transform="translate(-1226.631 -318.25)" fill="#0c0d0c"/>
        <path id="Path_417" data-name="Path 417" d="M1228.841,333.9l.568,4.02,40.061,7.994,2.556-4.151Z" transform="translate(-1226.335 -316.154)" fill="#0c0d0c"/>
      </g>
      <path id="Path_418" data-name="Path 418" d="M1367.1,374.344l-33.4,9.391-145.685-28.759-7.15-1.76,4.542,11.269,159.413,31.879,22.3-6.65Z" transform="translate(-1161.656 -38.332)" fill="#0c0d0c"/>
      <g id="Group_198" data-name="Group 198" transform="translate(10.308 286.535)">
        <path id="Path_419" data-name="Path 419" d="M1347.668,393.08a14.925,14.925,0,0,1-2.524-.278l-158.976-31.383a14.785,14.785,0,0,1,5.726-29.01l158.975,31.383a14.786,14.786,0,0,1-3.2,29.289Z" transform="translate(-1174.244 -332.125)" fill="#c1a29e"/>
      </g>
      <g id="Group_199" data-name="Group 199" transform="translate(139.044 274.88)">
        <ellipse id="Ellipse_182" data-name="Ellipse 182" cx="18.424" cy="19.56" rx="18.424" ry="19.56" transform="translate(0 0)" fill="#0c0d0c"/>
        <ellipse id="Ellipse_183" data-name="Ellipse 183" cx="13.937" cy="19.56" rx="13.937" ry="19.56" transform="translate(0 0)" fill="#97625c"/>
        <ellipse id="Ellipse_184" data-name="Ellipse 184" cx="10.678" cy="14.987" rx="10.678" ry="14.987" transform="translate(3.259 4.574)" fill="#ebd0ce"/>
      </g>
      <path id="Path_420" data-name="Path 420" d="M1174.579,340.841c-.016.071-.039.138-.054.211a14.786,14.786,0,0,0,11.642,17.368L1345.144,389.8a14.769,14.769,0,0,0,17.367-11.642c.031-.156.043-.312.068-.469Z" transform="translate(-1163.936 -42.591)" fill="#997e7c"/>
      <path id="Path_421" data-name="Path 421" d="M1328.658,266.029c4.333-15.953.242-31.088-10.484-35.72-12.333-5.324-28.762,5.255-36.693,23.629a53.614,53.614,0,0,0-2.563,7.37l6.439.612a39.287,39.287,0,0,1,2.6-8.649c5.957-13.8,18.293-21.74,27.553-17.743,8.746,3.775,11.611,16.848,6.891,29.908Z" transform="translate(-1127.921 -81.095)" fill="#ffd591"/>
      <path id="Path_422" data-name="Path 422" d="M1449.782,355.81l0-.009,19.064-113.068-5.035,7.656-13.247,80.878-4.758,26.49C1447.134,357.115,1448.459,356.47,1449.782,355.81Z" transform="translate(-1070.499 -76.347)" fill="#714943"/>
      <path id="Path_423" data-name="Path 423" d="M1571.234,198.01l-65.969,5.643,3.995,10.611,61.073-5.871Z" transform="translate(-1050.042 -91.734)" fill="#d8bcb9"/>
      <g id="Group_200" data-name="Group 200" transform="translate(168.749 292.22)">
        <ellipse id="Ellipse_185" data-name="Ellipse 185" cx="7.142" cy="7.582" rx="7.142" ry="7.582" fill="#0c0d0c"/>
        <ellipse id="Ellipse_186" data-name="Ellipse 186" cx="5.402" cy="7.582" rx="5.402" ry="7.582" fill="#c89a9b"/>
        <ellipse id="Ellipse_187" data-name="Ellipse 187" cx="4.139" cy="5.809" rx="4.139" ry="5.809" transform="translate(1.263 1.773)" fill="#e50019"/>
        <path id="Path_424" data-name="Path 424" d="M1297.052,337.674c-1.512,0-2.821,1.149-3.543,2.848a15.342,15.342,0,0,0,7.064,5.98,7.563,7.563,0,0,0,.618-3.019C1301.192,340.275,1299.338,337.674,1297.052,337.674Z" transform="translate(-1291.65 -335.901)" fill="url(#linear-gradient)"/>
      </g>
      <g id="Group_201" data-name="Group 201" transform="translate(26.656 266.552)">
        <ellipse id="Ellipse_188" data-name="Ellipse 188" cx="7.142" cy="7.582" rx="7.142" ry="7.582" fill="#0c0d0c"/>
        <ellipse id="Ellipse_189" data-name="Ellipse 189" cx="5.402" cy="7.582" rx="5.402" ry="7.582" fill="#c89a9b"/>
        <ellipse id="Ellipse_190" data-name="Ellipse 190" cx="4.139" cy="5.809" rx="4.139" ry="5.809" transform="translate(1.263 1.773)" fill="#e50019"/>
        <path id="Path_425" data-name="Path 425" d="M1191.333,318.576c-1.512,0-2.821,1.151-3.543,2.849a15.349,15.349,0,0,0,7.064,5.98,7.57,7.57,0,0,0,.618-3.019C1195.473,321.177,1193.619,318.576,1191.333,318.576Z" transform="translate(-1185.93 -316.803)" fill="url(#linear-gradient-2)"/>
      </g>
      <g id="Group_202" data-name="Group 202" transform="translate(37.578 257.106)">
        <ellipse id="Ellipse_191" data-name="Ellipse 191" cx="18.424" cy="19.56" rx="18.424" ry="19.56" fill="#0c0d0c"/>
        <ellipse id="Ellipse_192" data-name="Ellipse 192" cx="13.937" cy="19.56" rx="13.937" ry="19.56" fill="#97625c"/>
        <ellipse id="Ellipse_193" data-name="Ellipse 193" cx="10.678" cy="14.987" rx="10.678" ry="14.987" transform="translate(3.259 4.574)" fill="#ebd0ce"/>
      </g>
    </g>
    <rect id="Rectangle_349" data-name="Rectangle 349" width="25.179" height="20.568" transform="translate(1134.43 373.478)" fill="#fffacb"/>
    <rect id="Rectangle_350" data-name="Rectangle 350" width="74.783" height="4.962" transform="translate(1114.184 394.047)" fill="#f7e695"/>
    <rect id="Rectangle_351" data-name="Rectangle 351" width="5.261" height="64.636" transform="translate(1111.491 373.225)" fill="#9d7b42"/>
    <g id="Group_205" data-name="Group 205" transform="translate(1123.514 225.051)">
      <g id="Group_204" data-name="Group 204" transform="translate(4.351)">
        <path id="Path_426" data-name="Path 426" d="M1109.41,363.459h-1.683V173.306a10.678,10.678,0,1,1,21.356,0V184.4H1127.4V173.306a9,9,0,1,0-17.99,0Z" transform="translate(-1107.727 -162.626)" fill="#8a6528"/>
      </g>
      <path id="Rectangle_352" data-name="Rectangle 352" d="M3.88,0H6.55a3.88,3.88,0,0,1,3.88,3.88V44.943a0,0,0,0,1,0,0H0a0,0,0,0,1,0,0V3.88A3.88,3.88,0,0,1,3.88,0Z" transform="translate(0 167.583)" fill="#8a6528"/>
      <circle id="Ellipse_194" data-name="Ellipse 194" cx="9.276" cy="9.276" r="9.276" transform="translate(15.589 14.461)" fill="#ffee71"/>
    </g>
    <circle id="Ellipse_195" data-name="Ellipse 195" cx="35.497" cy="35.497" r="35.497" transform="translate(1078.01 316.409)" fill="#c2d56e"/>
  </g>
</svg>
