<svg xmlns="http://www.w3.org/2000/svg" width="359.571" height="208" viewBox="0 0 359.571 208">
  <g id="Group_644" data-name="Group 644" transform="translate(-160 -890)">
    <g id="Group_90" data-name="Group 90" transform="translate(-75.321 330.153)">
      <path id="Path_212" data-name="Path 212" d="M409.76,683.3h-9.1V575.811l9.1,5.3Z" transform="translate(-4.442 -1.45)" fill="#cea864"/>
      <path id="Path_213" data-name="Path 213" d="M351.75,575.811V680.743h44.507V575.811Zm28.375,5.122h3.657v3.935h-3.657Zm0,9.034h3.657V593.9h-3.657Zm0,9.034h3.657v3.935h-3.657Zm-7.95-18.069h3.657v3.935h-3.657Zm0,9.034h3.657V593.9h-3.657Zm0,9.034h3.657v3.935h-3.657Zm-7.95-18.069h3.657v3.935h-3.657Zm0,9.034h3.657V593.9h-3.657Zm0,9.034h3.657v3.935h-3.657Zm-7.95-18.069h3.657v3.935h-3.657Zm0,9.034h3.657V593.9h-3.657Zm0,9.034h3.657v3.935h-3.657Zm3.657,45.818h-3.657v-3.936h3.657Zm0-9.035h-3.657v-3.935h3.657Zm0-9.267h-3.657v-7.2h3.657Zm7.95,18.3h-3.657v-3.936h3.657Zm0-9.035h-3.657v-3.935h3.657Zm0-9.267h-3.657v-7.2h3.657Zm7.95,18.3h-3.657v-3.936h3.657Zm0-9.035h-3.657v-3.935h3.657Zm0-9.267h-3.657v-7.2h3.657Zm7.95,18.3h-3.657v-3.936h3.657Zm0-9.035h-3.657v-3.935h3.657Zm0-9.267h-3.657v-7.2h3.657Zm7.95,18.3h-3.657v-3.936h3.657Zm0-9.035h-3.657v-3.935h3.657Zm0-9.267h-3.657v-7.2h3.657Zm0-12.355H356.276v-1.2h35.456Zm0-4.226H356.276v-1.2h35.456Zm0-7h-3.657V599h3.657Zm0-9.034h-3.657v-3.935h3.657Zm0-9.034h-3.657v-3.935h3.657Z" transform="translate(0 -1.45)" fill="#f2d6a2"/>
      <path id="Path_214" data-name="Path 214" d="M533.327,727.566v47.948h6.313l16.212.77V727.566Zm14.36,2.378h1.851v1.827h-1.851Zm0,4.195h1.851v1.827h-1.851Zm0,4.195h1.851v1.827h-1.851Zm-4.023-8.39h1.85v1.827h-1.85Zm0,4.195h1.85v1.827h-1.85Zm0,4.195h1.85v1.827h-1.85Zm-4.024-8.39h1.851v1.827H539.64Zm0,4.195h1.851v1.827H539.64Zm0,4.195h1.851v1.827H539.64Zm-4.023-8.39h1.851v1.827h-1.851Zm0,4.195h1.851v1.827h-1.851Zm0,4.195h1.851v1.827h-1.851Zm1.851,21.272h-1.851v-1.827h1.851Zm0-4.194h-1.851v-1.827h1.851Zm0-4.3h-1.851v-3.345h1.851Zm4.023,8.5H539.64v-1.827h1.851Zm0-4.194H539.64v-1.827h1.851Zm0-4.3H539.64v-3.345h1.851Zm4.023,8.5h-1.85v-1.827h1.85Zm0-4.194h-1.85v-1.827h1.85Zm0-4.3h-1.85v-3.345h1.85Zm4.024,8.5h-1.851v-1.827h1.851Zm0-4.194h-1.851v-1.827h1.851Zm0-4.3h-1.851v-3.345h1.851Zm4.023,8.5h-1.851v-1.827h1.851Zm0-4.194h-1.851v-1.827h1.851Zm0-4.3h-1.851v-3.345h1.851Zm0-5.736H535.617v-.556h17.945Zm0-1.962H535.617v-.556h17.945Zm0-3.25h-1.851v-1.827h1.851Zm0-4.194h-1.851v-1.827h1.851Zm0-4.195h-1.851v-1.827h1.851Z" transform="translate(-16.491 -16.232)" fill="#f2d6a2"/>
      <path id="Path_215" data-name="Path 215" d="M533.327,691.225V725.86h22.525V691.225Zm14.36,2.378h1.851v1.827h-1.851Zm0,4.195h1.851v1.827h-1.851Zm0,4.194h1.851v1.827h-1.851Zm-4.023-8.389h1.85v1.827h-1.85Zm0,4.195h1.85v1.827h-1.85Zm0,4.194h1.85v1.827h-1.85ZM539.64,693.6h1.851v1.827H539.64Zm0,4.195h1.851v1.827H539.64Zm0,4.194h1.851v1.827H539.64Zm-4.023-8.389h1.851v1.827h-1.851Zm0,4.195h1.851v1.827h-1.851Zm0,4.194h1.851v1.827h-1.851Zm1.851,21.273h-1.851v-1.827h1.851Zm0-4.195h-1.851v-1.827h1.851Zm0-4.3h-1.851v-3.344h1.851Zm4.023,8.5H539.64v-1.827h1.851Zm0-4.195H539.64v-1.827h1.851Zm0-4.3H539.64v-3.344h1.851Zm4.023,8.5h-1.85v-1.827h1.85Zm0-4.195h-1.85v-1.827h1.85Zm0-4.3h-1.85v-3.344h1.85Zm4.024,8.5h-1.851v-1.827h1.851Zm0-4.195h-1.851v-1.827h1.851Zm0-4.3h-1.851v-3.344h1.851Zm4.023,8.5h-1.851v-1.827h1.851Zm0-4.195h-1.851v-1.827h1.851Zm0-4.3h-1.851v-3.344h1.851Zm0-5.735H535.617v-.557h17.945Zm0-1.962H535.617v-.556h17.945Zm0-3.25h-1.851v-1.827h1.851Zm0-4.2h-1.851V697.8h1.851Zm0-4.194h-1.851V693.6h1.851Z" transform="translate(-16.491 -11.932)" fill="#f2d6a2"/>
      <path id="Path_216" data-name="Path 216" d="M558.111,739.144v38.192h47.35V739.144Zm30.187,1.864h3.89v1.433H588.3Zm0,3.289h3.89v1.432H588.3Zm0,3.288h3.89v1.433H588.3Zm-8.458-6.576h3.891v1.433H579.84Zm0,3.289h3.891v1.432H579.84Zm0,3.288h3.891v1.433H579.84Zm-8.457-6.576h3.89v1.433h-3.89Zm0,3.289h3.89v1.432h-3.89Zm0,3.288h3.89v1.433h-3.89Zm-8.458-6.576h3.89v1.433h-3.89Zm0,3.289h3.89v1.432h-3.89Zm0,3.288h3.89v1.433h-3.89Zm3.89,16.677h-3.89v-1.433h3.89Zm0-3.288h-3.89V759.54h3.89Zm0-3.373h-3.89v-2.622h3.89Zm8.458,6.662h-3.89v-1.433h3.89Zm0-3.288h-3.89V759.54h3.89Zm0-3.373h-3.89v-2.622h3.89Zm8.458,6.662H579.84v-1.433h3.891Zm0-3.288H579.84V759.54h3.891Zm0-3.373H579.84v-2.622h3.891Zm8.457,6.662H588.3v-1.433h3.89Zm0-3.288H588.3V759.54h3.89Zm0-3.373H588.3v-2.622h3.89Zm8.458,6.662h-3.89v-1.433h3.89Zm0-3.288h-3.89V759.54h3.89Zm0-3.373h-3.89v-2.622h3.89Zm0-4.5H562.925v-.436h37.722Zm0-1.537H562.925v-.436h37.722Zm0-2.548h-3.89v-1.433h3.89Zm0-3.289h-3.89V744.3h3.89Zm0-3.288h-3.89v-1.433h3.89Z" transform="translate(-18.742 -16.284)" fill="#f6e2be"/>
      <path id="Path_217" data-name="Path 217" d="M558.111,710.654v27.153h47.35V710.654Zm30.187,1.864h3.89v1.433H588.3Zm0,3.288h3.89v1.433H588.3Zm0,3.289h3.89v1.432H588.3Zm-8.458-6.577h3.891v1.433H579.84Zm0,3.288h3.891v1.433H579.84Zm0,3.289h3.891v1.432H579.84Zm-8.457-6.577h3.89v1.433h-3.89Zm0,3.288h3.89v1.433h-3.89Zm0,3.289h3.89v1.432h-3.89Zm-8.458-6.577h3.89v1.433h-3.89Zm0,3.288h3.89v1.433h-3.89Zm0,3.289h3.89v1.432h-3.89Zm3.89,16.676h-3.89v-1.432h3.89Zm0-3.289h-3.89v-1.432h3.89Zm0-3.373h-3.89v-2.622h3.89Zm8.458,6.662h-3.89v-1.432h3.89Zm0-3.289h-3.89v-1.432h3.89Zm0-3.373h-3.89v-2.622h3.89Zm8.458,6.662H579.84v-1.432h3.891Zm0-3.289H579.84v-1.432h3.891Zm0-3.373H579.84v-2.622h3.891Zm8.457,6.662H588.3v-1.432h3.89Zm0-3.289H588.3v-1.432h3.89Zm0-3.373H588.3v-2.622h3.89Zm8.458,6.662h-3.89v-1.432h3.89Zm0-3.289h-3.89v-1.432h3.89Zm0-3.373h-3.89v-2.622h3.89Zm0-4.5H562.925v-.436h37.722Zm0-1.538H562.925v-.436h37.722Zm0-2.548h-3.89v-1.432h3.89Zm0-3.288h-3.89v-1.433h3.89Zm0-3.288h-3.89v-1.433h3.89Z" transform="translate(-18.742 -13.696)" fill="#f6e2be"/>
      <path id="Path_218" data-name="Path 218" d="M558.111,681.193v27.153h20.318V681.193Zm12.954,1.864h1.669v1.433h-1.669Zm0,3.289h1.669v1.433h-1.669Zm0,3.289h1.669v1.432h-1.669Zm-3.629-6.577H569.1v1.433h-1.669Zm0,3.289H569.1v1.433h-1.669Zm0,3.289H569.1v1.432h-1.669Zm-3.629-6.577h1.669v1.433h-1.669Zm0,3.289h1.669v1.433h-1.669Zm0,3.289h1.669v1.432h-1.669Zm-3.629-6.577h1.669v1.433h-1.669Zm0,3.289h1.669v1.433h-1.669Zm0,3.289h1.669v1.432h-1.669Zm1.669,16.676h-1.669v-1.432h1.669Zm0-3.288h-1.669v-1.432h1.669Zm0-3.373h-1.669v-2.622h1.669Zm3.629,6.662h-1.669v-1.432h1.669Zm0-3.288h-1.669v-1.432h1.669Zm0-3.373h-1.669v-2.622h1.669Zm3.629,6.662h-1.669v-1.432H569.1Zm0-3.288h-1.669v-1.432H569.1Zm0-3.373h-1.669v-2.622H569.1Zm3.629,6.662h-1.669v-1.432h1.669Zm0-3.288h-1.669v-1.432h1.669Zm0-3.373h-1.669v-2.622h1.669Zm3.629,6.662h-1.67v-1.432h1.67Zm0-3.288h-1.67v-1.432h1.67Zm0-3.373h-1.67v-2.622h1.67Zm0-4.5H560.177v-.435h16.187Zm0-1.537H560.177v-.436h16.187Zm0-2.548h-1.67v-1.432h1.67Zm0-3.288h-1.67v-1.433h1.67Zm0-3.289h-1.67v-1.433h1.67Z" transform="translate(-18.742 -11.021)" fill="#f6e2be"/>
      <g id="Group_89" data-name="Group 89" transform="translate(402.379 559.847)">
        <path id="Path_1001" data-name="Path 1001" d="M0,0H112.813V199.785l-14.73-1.857L0,185.563Z" fill="#e7c88c"/>
        <g id="Group_80" data-name="Group 80" transform="translate(11.47 11.909)">
          <rect id="Rectangle_165" data-name="Rectangle 165" width="9.27" height="16.751" fill="#fee1af"/>
          <rect id="Rectangle_166" data-name="Rectangle 166" width="9.27" height="16.751" transform="translate(20.151)" fill="#fea900"/>
          <rect id="Rectangle_167" data-name="Rectangle 167" width="9.27" height="16.751" transform="translate(40.302)" fill="#fee1af"/>
          <rect id="Rectangle_168" data-name="Rectangle 168" width="9.27" height="16.751" transform="translate(60.452)" fill="#c5a56a"/>
          <rect id="Rectangle_169" data-name="Rectangle 169" width="9.27" height="16.751" transform="translate(80.603)" fill="#fee1af"/>
        </g>
        <g id="Group_81" data-name="Group 81" transform="translate(11.47 56.533)">
          <rect id="Rectangle_170" data-name="Rectangle 170" width="9.27" height="16.751" fill="#fee1af"/>
          <rect id="Rectangle_171" data-name="Rectangle 171" width="9.27" height="16.751" transform="translate(20.151)" fill="#c5a56a"/>
          <rect id="Rectangle_172" data-name="Rectangle 172" width="9.27" height="16.751" transform="translate(40.302)" fill="#fee1af"/>
          <rect id="Rectangle_173" data-name="Rectangle 173" width="9.27" height="16.751" transform="translate(60.452)" fill="#ffd408"/>
          <rect id="Rectangle_174" data-name="Rectangle 174" width="9.27" height="16.751" transform="translate(80.603)" fill="#fee1af"/>
        </g>
        <g id="Group_82" data-name="Group 82" transform="translate(11.47 101.156)">
          <rect id="Rectangle_175" data-name="Rectangle 175" width="9.27" height="16.751" fill="#fee1af"/>
          <rect id="Rectangle_176" data-name="Rectangle 176" width="9.27" height="16.751" transform="translate(20.151)" fill="#fee1af"/>
          <rect id="Rectangle_177" data-name="Rectangle 177" width="9.27" height="16.751" transform="translate(40.302)" fill="#c5a56a"/>
          <rect id="Rectangle_178" data-name="Rectangle 178" width="9.27" height="16.751" transform="translate(60.452)" fill="#fea900"/>
          <rect id="Rectangle_179" data-name="Rectangle 179" width="9.27" height="16.751" transform="translate(80.603)" fill="#fee1af"/>
        </g>
        <g id="Group_83" data-name="Group 83" transform="translate(11.47 145.78)">
          <rect id="Rectangle_180" data-name="Rectangle 180" width="9.27" height="16.751" fill="#fee1af"/>
          <rect id="Rectangle_181" data-name="Rectangle 181" width="9.27" height="16.751" transform="translate(20.151)" fill="#c5a56a"/>
          <rect id="Rectangle_182" data-name="Rectangle 182" width="9.27" height="16.751" transform="translate(40.302)" fill="#fee1af"/>
          <rect id="Rectangle_183" data-name="Rectangle 183" width="9.27" height="16.751" transform="translate(60.452)" fill="#fee1af"/>
          <rect id="Rectangle_184" data-name="Rectangle 184" width="9.27" height="16.751" transform="translate(80.603)" fill="#fee1af"/>
        </g>
        <rect id="Rectangle_190" data-name="Rectangle 190" width="89.873" height="2.787" transform="translate(11.47 39.73)" fill="#fee1af"/>
        <rect id="Rectangle_191" data-name="Rectangle 191" width="89.873" height="2.787" transform="translate(11.47 86.393)" fill="#fee1af"/>
        <path id="Path_219" data-name="Path 219" d="M531.519,759.632h15.673V568.182l-15.673-8.335Z" transform="translate(-418.706 -559.847)" fill="#cea864"/>
        <g id="Group_85" data-name="Group 85" transform="translate(116.667 11.909)">
          <rect id="Rectangle_192" data-name="Rectangle 192" width="2.78" height="16.751" fill="#e7c88c"/>
          <rect id="Rectangle_193" data-name="Rectangle 193" width="2.78" height="16.751" transform="translate(6.042)" fill="#e7c88c"/>
        </g>
        <g id="Group_86" data-name="Group 86" transform="translate(116.667 57.078)">
          <rect id="Rectangle_194" data-name="Rectangle 194" width="2.78" height="16.751" fill="#e7c88c"/>
          <rect id="Rectangle_195" data-name="Rectangle 195" width="2.78" height="16.751" transform="translate(6.042)" fill="#e7c88c"/>
        </g>
        <g id="Group_87" data-name="Group 87" transform="translate(116.667 101.156)">
          <rect id="Rectangle_196" data-name="Rectangle 196" width="2.78" height="16.751" fill="#e7c88c"/>
          <rect id="Rectangle_197" data-name="Rectangle 197" width="2.78" height="16.751" transform="translate(6.042)" fill="#e7c88c"/>
        </g>
        <g id="Group_88" data-name="Group 88" transform="translate(116.667 145.235)">
          <rect id="Rectangle_198" data-name="Rectangle 198" width="2.78" height="16.751" fill="#e7c88c"/>
          <rect id="Rectangle_199" data-name="Rectangle 199" width="2.78" height="16.751" transform="translate(6.042)" fill="#e7c88c"/>
        </g>
        <rect id="Rectangle_200" data-name="Rectangle 200" width="10.932" height="2.787" transform="translate(115.413 39.73)" fill="#fee1af"/>
        <rect id="Rectangle_201" data-name="Rectangle 201" width="10.932" height="2.787" transform="translate(115.413 86.393)" fill="#fee1af"/>
      </g>
      <path id="Path_220" data-name="Path 220" d="M618.364,770.726h-8.173V710.654l8.173,4.205Z" transform="translate(-23.472 -13.696)" fill="#dfc49e"/>
      <path id="Path_221" data-name="Path 221" d="M588.632,707.978h-8.173V681.193l8.173,3.955Z" transform="translate(-20.772 -11.021)" fill="#dfc49e"/>
      <circle id="Ellipse_119" data-name="Ellipse 119" cx="16.51" cy="16.51" r="16.51" transform="translate(534.492 714.581)" fill="#a9ba50"/>
      <circle id="Ellipse_120" data-name="Ellipse 120" cx="14.603" cy="14.603" r="14.603" transform="translate(516.637 731.856)" fill="#c2d56e"/>
      <circle id="Ellipse_121" data-name="Ellipse 121" cx="7.213" cy="7.213" r="7.213" transform="translate(524.643 720.477)" fill="#afc342"/>
    </g>
    <g id="Group_69" data-name="Group 69" transform="translate(-1110.059 333.234)">
      <path id="Path_172" data-name="Path 172" d="M1294.107,899.282l146.017,8.519a18.112,18.112,0,0,0,4.607-.321l70.821-14.149a.9.9,0,0,0-.152-1.787s-133.747-6.954-134.5-6.855l-86.878,12.266A1.17,1.17,0,0,0,1294.107,899.282Z" transform="translate(-11.714 -143.066)" fill="#97b8ba"/>
      <g id="Group_66" data-name="Group 66" transform="translate(1417.251 663.106)">
        <path id="Path_173" data-name="Path 173" d="M1576.238,737.992c-3.324,0-5.5-3.065-5.5-6.846s2.174-6.847,5.5-6.847,6.019,3.065,6.019,6.847S1579.562,737.992,1576.238,737.992Z" transform="translate(-1570.739 -724.299)" fill="#ced9db"/>
        <ellipse id="Ellipse_97" data-name="Ellipse 97" cx="4.865" cy="6.846" rx="4.865" ry="6.846" transform="translate(1.789 0)" fill="#a8c0c3"/>
        <path id="Path_174" data-name="Path 174" d="M1582.869,724.909c.428,2.342.394,6.905-4.186,12.177a3.957,3.957,0,0,0,2.765,1.217c2.687,0,4.865-3.065,4.865-6.847C1586.312,728.372,1584.862,725.765,1582.869,724.909Z" transform="translate(-1574.794 -724.61)" fill="#88a4a7"/>
      </g>
      <ellipse id="Ellipse_98" data-name="Ellipse 98" cx="19.442" cy="25.376" rx="19.442" ry="25.376" transform="translate(1454.795 697.171)" fill="#674541"/>
      <rect id="Rectangle_150" data-name="Rectangle 150" width="9.778" height="50.752" transform="translate(1465.054 697.171)" fill="#674541"/>
      <ellipse id="Ellipse_99" data-name="Ellipse 99" cx="19.442" cy="25.376" rx="19.442" ry="25.376" transform="translate(1445.612 697.171)" fill="#3b2825"/>
      <ellipse id="Ellipse_100" data-name="Ellipse 100" cx="10.342" cy="13.498" rx="10.342" ry="13.498" transform="translate(1453.554 709.049)" fill="#9c8887"/>
      <ellipse id="Ellipse_101" data-name="Ellipse 101" cx="8.572" cy="11.189" rx="8.572" ry="11.189" transform="translate(1455.323 711.358)" fill="#c3a8a7"/>
      <path id="Path_175" data-name="Path 175" d="M1450.9,694.161c-.623-4.585-2.4-49.621-2.574-53.969a.287.287,0,0,1,.325-.294l39.167,4.937,28.827,49.326Z" transform="translate(-91 -18.107)" fill="#50bfd0"/>
      <path id="Path_176" data-name="Path 176" d="M1365.765,750.747l-77.915,7.313-5.305,8.868-1,39.146,165.719,2.948V769.408Z" transform="translate(-5.865 -74.694)" fill="#2a94ae"/>
      <path id="Path_177" data-name="Path 177" d="M1365.941,750.747l-77.915,7.313-5.305,8.868-.829,32.534,87.149-28.41,78.4,4.052v-5.7Z" transform="translate(-6.041 -74.694)" fill="#39aec2"/>
      <path id="Path_178" data-name="Path 178" d="M1365.005,604.424" transform="translate(-48.467)" fill="#fff"/>
      <path id="Path_179" data-name="Path 179" d="M1354.223,652l-19.654,47.8,58.262-5.676-2.031-54.306Z" transform="translate(-32.93 -18.065)" fill="#3198a3"/>
      <path id="Path_180" data-name="Path 180" d="M1453.585,750.747l81.5,18.661,58.715-2.142-74.471-16.52Z" transform="translate(-93.685 -74.694)" fill="#add9e5"/>
      <path id="Path_181" data-name="Path 181" d="M1374.718,852.449l61.831,1.24-1.384,6.213-60.447-1.1Z" transform="translate(-53.425 -126.609)" fill="#64c7e1"/>
      <path id="Path_182" data-name="Path 182" d="M1620.073,786.634l58.715-2.141,4.118,30.842-62.833,10.913Z" transform="translate(-178.672 -91.92)" fill="#39abbe"/>
      <path id="Path_183" data-name="Path 183" d="M1488.517,837.294l50.581.9c-1.316-16.749-12.151-29.818-25.331-29.818C1500.823,808.376,1490.144,820.979,1488.517,837.294Z" transform="translate(-111.516 -104.111)" fill="#211311"/>
      <ellipse id="Ellipse_102" data-name="Ellipse 102" cx="19.442" cy="25.376" rx="19.442" ry="25.376" transform="translate(1387.859 712.136)" fill="#674541"/>
      <rect id="Rectangle_151" data-name="Rectangle 151" width="9.778" height="50.752" transform="translate(1398.119 712.136)" fill="#674541"/>
      <ellipse id="Ellipse_103" data-name="Ellipse 103" cx="19.442" cy="25.376" rx="19.442" ry="25.376" transform="translate(1378.676 712.136)" fill="#3b2825"/>
      <ellipse id="Ellipse_104" data-name="Ellipse 104" cx="10.342" cy="13.498" rx="10.342" ry="13.498" transform="translate(1386.618 724.014)" fill="#9c8887"/>
      <ellipse id="Ellipse_105" data-name="Ellipse 105" cx="8.572" cy="11.189" rx="8.572" ry="11.189" transform="translate(1388.387 726.323)" fill="#c3a8a7"/>
      <ellipse id="Ellipse_106" data-name="Ellipse 106" cx="1.092" cy="1.425" rx="1.092" ry="1.425" transform="translate(1391.837 736.087)" fill="#9c8887"/>
      <ellipse id="Ellipse_107" data-name="Ellipse 107" cx="1.092" cy="1.425" rx="1.092" ry="1.425" transform="translate(1399.683 736.087)" fill="#9c8887"/>
      <ellipse id="Ellipse_108" data-name="Ellipse 108" cx="1.092" cy="1.425" rx="1.092" ry="1.425" transform="translate(1395.973 731.31)" fill="#9c8887"/>
      <ellipse id="Ellipse_109" data-name="Ellipse 109" cx="1.092" cy="1.425" rx="1.092" ry="1.425" transform="translate(1395.973 741.161)" fill="#9c8887"/>
      <path id="Path_184" data-name="Path 184" d="M1336.981,836.387c-1.57-15.83-11.153-28.011-22.745-28.011-11.394,0-20.841,11.77-22.653,27.2Z" transform="translate(-10.988 -104.111)" fill="#211311"/>
      <ellipse id="Ellipse_110" data-name="Ellipse 110" cx="17.536" cy="22.888" rx="17.536" ry="22.888" transform="translate(1290.268 711.364)" fill="#674541"/>
      <rect id="Rectangle_152" data-name="Rectangle 152" width="8.819" height="45.775" transform="translate(1299.522 711.364)" fill="#674541"/>
      <ellipse id="Ellipse_111" data-name="Ellipse 111" cx="17.536" cy="22.888" rx="17.536" ry="22.888" transform="translate(1281.986 711.364)" fill="#3b2825"/>
      <ellipse id="Ellipse_112" data-name="Ellipse 112" cx="9.328" cy="12.174" rx="9.328" ry="12.174" transform="translate(1289.149 722.077)" fill="#9c8887"/>
      <ellipse id="Ellipse_113" data-name="Ellipse 113" cx="7.732" cy="10.092" rx="7.732" ry="10.092" transform="translate(1290.745 724.16)" fill="#c3a8a7"/>
      <path id="Path_185" data-name="Path 185" d="M1346.638,664.7l-26.927,48.275,8.883-.834Z" transform="translate(-25.346 -30.768)" fill="#3198a3"/>
      <path id="Path_186" data-name="Path 186" d="M1492.569,658.75l22.942,39.09h-52.684Z" transform="translate(-98.402 -27.732)" fill="#d3eef8"/>
      <path id="Path_187" data-name="Path 187" d="M1491.084,656.48l-31.166-2.177,1.424,41.267Z" transform="translate(-96.917 -25.462)" fill="#fff"/>
      <path id="Path_188" data-name="Path 188" d="M1397.128,654.3l-28.872,9.372-14.126,37.841,43-5.055Z" transform="translate(-42.916 -25.462)" fill="#d3eef8"/>
      <path id="Path_189" data-name="Path 189" d="M1368.256,673.447l-14.126,37.841,43-5.055Z" transform="translate(-42.916 -35.234)" fill="#d3eef8"/>
      <g id="Group_67" data-name="Group 67" transform="translate(1433.32 701.944)">
        <path id="Path_190" data-name="Path 190" d="M1611.478,810.781l-5.612-1.245a2.937,2.937,0,0,1,1.273-5.735l4.676,1.037,11.259-1.187a2.937,2.937,0,0,1,.615,5.842Z" transform="translate(-1603.564 -803.635)" fill="#fea900"/>
      </g>
      <path id="Path_191" data-name="Path 191" d="M1620.073,810.764l12.043-1.27a2.937,2.937,0,0,0-.615-5.842l-11.259,1.188-.169-.037Z" transform="translate(-178.672 -101.691)" fill="#fff"/>
      <path id="Path_192" data-name="Path 192" d="M1727.464,800.419c.089,0,.179,0,.269-.012l6.545-.665c.041,0,.081-.012.122-.017l-.777-5.8-6.421.636a2.937,2.937,0,0,0,.262,5.863Z" transform="translate(-231.994 -96.732)" fill="#fff"/>
      <path id="Path_193" data-name="Path 193" d="M1740.472,799.9l1.547-.141c.041,0,.081-.012.122-.018l-.777-5.822-1.668.165Z" transform="translate(-239.736 -96.732)" fill="#fea900"/>
      <path id="Path_194" data-name="Path 194" d="M1657.751,800.548l6.813,10.514a2.788,2.788,0,0,0,2.686,1.137l13.865-1.743a2.46,2.46,0,0,0,2.231-1.955l1.359-9.459a2.427,2.427,0,0,0-2.711-2.527l-22.037.688C1657.994,797.263,1656.8,799.077,1657.751,800.548Z" transform="translate(-197.735 -98.055)" fill="#fff"/>
      <path id="Path_195" data-name="Path 195" d="M1619.073,836.985l67.147-8.38-2.833,14-64.314,9.346Z" transform="translate(-178.161 -114.438)" fill="#35b7dc"/>
      <path id="Path_196" data-name="Path 196" d="M1598.282,845.723h10.667v14.965l-8.257-1.012Z" transform="translate(-167.548 -123.176)" fill="#64c7e1"/>
      <path id="Path_197" data-name="Path 197" d="M1658.056,808" transform="translate(-198.061 -103.92)" fill="#fff"/>
      <path id="Path_198" data-name="Path 198" d="M1659.958,797.271c-1.964.061-3.16,1.875-2.207,3.346l6.813,10.514a2.789,2.789,0,0,0,2.686,1.137l1.38-.173,11.3-15.447Z" transform="translate(-197.735 -98.124)" fill="#ced9db"/>
      <path id="Path_199" data-name="Path 199" d="M1466,726.465a13.023,13.023,0,0,1,.7-2.113c2.152-5,6.936-7.739,10.683-6.125,2.815,1.213,4.245,4.539,3.869,8.238H1484c.354-4.957-1.631-9.357-5.43-10.993-5.22-2.249-11.883,1.571-14.882,8.532a18.208,18.208,0,0,0-.857,2.462Z" transform="translate(-98.402 -56.357)" fill="#add9e5"/>
      <path id="Path_200" data-name="Path 200" d="M1515.484,735.313l-.774-1.319-18.213-.362-3.107-1.7h-24.636l-1.974,1.974h-4.042l.025,1.409Z" transform="translate(-98.357 -65.088)" fill="#2a94ae"/>
      <path id="Path_201" data-name="Path 201" d="M1271.42,827.141h7.561l1.615,18.017h-10.537Z" transform="translate(0 -113.69)" fill="#64c7e1"/>
      <path id="Path_202" data-name="Path 202" d="M1282.175,782.408h7.139l-5.6,14.793h-2.9l.356-14.793Z" transform="translate(-5.494 -90.855)" fill="#fea900"/>
      <path id="Path_203" data-name="Path 203" d="M1443.492,743.833s.354,5.431-2.587,6.833-7.092-11.419-7.092-11.419l1.252-2.045,3.025,7.065Z" transform="translate(-83.592 -67.78)" fill="#0d4049"/>
      <g id="Group_68" data-name="Group 68" transform="translate(1343.211 663.106)">
        <path id="Path_204" data-name="Path 204" d="M1424.991,737.992c-3.324,0-5.5-3.065-5.5-6.846s2.175-6.847,5.5-6.847,6.019,3.065,6.019,6.847S1428.315,737.992,1424.991,737.992Z" transform="translate(-1419.492 -724.299)" fill="#ced9db"/>
        <ellipse id="Ellipse_114" data-name="Ellipse 114" cx="4.865" cy="6.846" rx="4.865" ry="6.846" transform="translate(1.789 0)" fill="#a8c0c3"/>
        <path id="Path_205" data-name="Path 205" d="M1431.622,724.909c.429,2.342.394,6.905-4.186,12.177a3.958,3.958,0,0,0,2.765,1.217c2.687,0,4.865-3.065,4.865-6.847C1435.065,728.372,1433.615,725.765,1431.622,724.909Z" transform="translate(-1423.547 -724.61)" fill="#88a4a7"/>
      </g>
      <path id="Path_206" data-name="Path 206" d="M1374.718,805.823l41.708-9.72,78.4.176-78.4-4.052Z" transform="translate(-53.425 -95.868)" fill="#4bbdcb"/>
      <path id="Path_207" data-name="Path 207" d="M1668.973,803.088l5.854-.263a1.677,1.677,0,0,1,1.688,1.215l1.92,6.713a1.678,1.678,0,0,1-1.4,2.126l-3.239.405a1.678,1.678,0,0,1-1.607-.739l-4.535-6.855A1.677,1.677,0,0,1,1668.973,803.088Z" transform="translate(-202.815 -101.276)" fill="#39aec2"/>
      <path id="Path_208" data-name="Path 208" d="M1690.97,804.135l1.857,6.559a1.289,1.289,0,0,0,1.352.934l2.94-.255a1.289,1.289,0,0,0,1.163-1.085l1.02-6.505a1.29,1.29,0,0,0-1.319-1.489l-5.817.2A1.29,1.29,0,0,0,1690.97,804.135Z" transform="translate(-214.837 -101.006)" fill="#39aec2"/>
      <path id="Path_209" data-name="Path 209" d="M1397.128,654.3V661.5l-32.92,38.833-10.078,1.185,14.126-37.841Z" transform="translate(-42.916 -25.462)" fill="#aed3db"/>
      <ellipse id="Ellipse_115" data-name="Ellipse 115" cx="0.847" cy="1.105" rx="0.847" ry="1.105" transform="translate(1294.587 732.94)" fill="#9c8887"/>
      <ellipse id="Ellipse_116" data-name="Ellipse 116" cx="0.847" cy="1.105" rx="0.847" ry="1.105" transform="translate(1300.673 732.94)" fill="#9c8887"/>
      <ellipse id="Ellipse_117" data-name="Ellipse 117" cx="0.847" cy="1.105" rx="0.847" ry="1.105" transform="translate(1297.795 729.235)" fill="#9c8887"/>
      <ellipse id="Ellipse_118" data-name="Ellipse 118" cx="0.847" cy="1.105" rx="0.847" ry="1.105" transform="translate(1297.795 736.875)" fill="#9c8887"/>
      <path id="Path_210" data-name="Path 210" d="M1383.839,861.643l52.826,1.127v1.824l-52.59-1.017Z" transform="translate(-58.081 -131.302)" fill="#211311"/>
    </g>
  </g>
</svg>
