<svg xmlns="http://www.w3.org/2000/svg" width="53.844" height="52.535" viewBox="0 0 53.844 52.535">
  <g id="Group_371" data-name="Group 371" transform="translate(-85.043 -169.474)">
    <path id="Path_740" data-name="Path 740" d="M373.158,186.269v.806q0,16.362,0,32.724c0,1.567-.639,2.208-2.2,2.209q-4.133,0-8.266,0a1.806,1.806,0,0,1-2.027-2.03q0-16.474,0-32.947V186.3c-.2-.01-.377-.025-.553-.025-.987,0-1.973.009-2.96-.006a4.088,4.088,0,0,1-.992-.125,1.3,1.3,0,0,1-.962-1.85,3.739,3.739,0,0,1,.506-.924q4.825-6.5,9.667-12.986a1.787,1.787,0,0,1,3.113.009q4.805,6.444,9.6,12.9a4.283,4.283,0,0,1,.588,1.067,1.234,1.234,0,0,1-.842,1.721,4.206,4.206,0,0,1-1.2.186C375.493,186.284,374.361,186.269,373.158,186.269Z" transform="translate(-239.885)" fill="#bbe8f9"/>
    <path id="Path_741" data-name="Path 741" d="M257.6,398.306q0,6.113,0,12.227a1.822,1.822,0,0,1-2.06,2.06q-4.188,0-8.376,0a1.829,1.829,0,0,1-2.058-2.062q0-12.227,0-24.454a1.818,1.818,0,0,1,2.059-2.059q4.216,0,8.432,0a1.812,1.812,0,0,1,2,2Q257.6,392.164,257.6,398.306Z" transform="translate(-142.188 -190.585)" fill="#bbe8f9"/>
    <path id="Path_742" data-name="Path 742" d="M85.044,458.74q0-4.327,0-8.653a1.818,1.818,0,0,1,2.057-2.06q4.216,0,8.431,0a1.811,1.811,0,0,1,2.005,2q0,8.709,0,17.418a1.8,1.8,0,0,1-2,2.006q-4.244,0-8.487,0a1.812,1.812,0,0,1-2-2Q85.041,463.094,85.044,458.74Z" transform="translate(0 -247.445)" fill="#bbe8f9"/>
  </g>
</svg>
