<svg xmlns="http://www.w3.org/2000/svg" width="52.155" height="52.161" viewBox="0 0 52.155 52.161">
  <g id="Group_372" data-name="Group 372" transform="translate(-119.584 -194.561)">
    <path id="Path_739" data-name="Path 739" d="M145.788,246.717c-.846,0-1.692.014-2.538,0A2.177,2.177,0,0,1,140.9,245c-.451-1.341-.9-2.682-1.321-4.032a1.065,1.065,0,0,0-.75-.756c-.735-.261-1.436-.615-2.174-.864a1.364,1.364,0,0,0-.923.019c-1.3.606-2.575,1.272-3.863,1.907a2.2,2.2,0,0,1-2.876-.468q-1.711-1.7-3.409-3.411a2.181,2.181,0,0,1-.482-2.77c.609-1.3,1.22-2.6,1.857-3.887a1.033,1.033,0,0,0,.012-1.006c-.343-.724-.593-1.491-.943-2.211a1.348,1.348,0,0,0-.657-.646c-1.368-.5-2.76-.928-4.138-1.4a2.079,2.079,0,0,1-1.632-2.206q-.03-2.57,0-5.14a2.121,2.121,0,0,1,1.681-2.243c1.362-.452,2.735-.875,4.085-1.361a1.349,1.349,0,0,0,.659-.647,22,22,0,0,0,.947-2.278,1.289,1.289,0,0,0,0-.872c-.577-1.291-1.207-2.559-1.815-3.837a2.246,2.246,0,0,1,.517-2.979q1.635-1.641,3.276-3.275a2.244,2.244,0,0,1,2.981-.5c1.279.605,2.546,1.236,3.838,1.812a1.292,1.292,0,0,0,.872,0,23.509,23.509,0,0,0,2.278-.943,1.259,1.259,0,0,0,.611-.615c.474-1.31.893-2.639,1.329-3.962a2.223,2.223,0,0,1,2.5-1.859c1.565-.01,3.131-.014,4.7,0a2.177,2.177,0,0,1,2.39,1.75c.45,1.341.865,2.694,1.345,4.023a1.348,1.348,0,0,0,.645.659,22.061,22.061,0,0,0,2.278.945,1.291,1.291,0,0,0,.873,0c1.272-.568,2.521-1.187,3.778-1.79a2.274,2.274,0,0,1,3.079.537q1.64,1.636,3.275,3.275a2.2,2.2,0,0,1,.468,2.878c-.646,1.307-1.318,2.6-1.941,3.918a1.164,1.164,0,0,0-.012.809,23.579,23.579,0,0,0,.95,2.277,1.352,1.352,0,0,0,.647.657c1.408.512,2.839.958,4.258,1.44a2.08,2.08,0,0,1,1.641,2.2c.025,1.734.015,3.469,0,5.2a2.08,2.08,0,0,1-1.532,2.095c-1.4.478-2.8.949-4.208,1.392a1.053,1.053,0,0,0-.751.747c-.257.736-.617,1.436-.867,2.173a1.36,1.36,0,0,0,.016.924c.606,1.3,1.275,2.574,1.909,3.863a2.19,2.19,0,0,1-.472,2.875q-1.7,1.713-3.411,3.41a2.181,2.181,0,0,1-2.827.446c-1.288-.636-2.56-1.3-3.861-1.912a1.353,1.353,0,0,0-.922-.025c-.757.259-1.477.627-2.231.894a1,1,0,0,0-.7.713c-.439,1.388-.9,2.768-1.376,4.146a2.082,2.082,0,0,1-2.161,1.611c-.845.025-1.692,0-2.538,0Zm-.134-15.22a10.856,10.856,0,1,0-10.846-10.847A10.827,10.827,0,0,0,145.654,231.5Z" fill="#3df5ca"/>
  </g>
</svg>
