<svg xmlns="http://www.w3.org/2000/svg" xmlns:xlink="http://www.w3.org/1999/xlink" width="398.119" height="87.027" viewBox="0 0 398.119 87.027">
  <defs>
    <linearGradient id="linear-gradient" x1="0.935" y1="1" x2="0" y2="1" gradientUnits="objectBoundingBox">
      <stop offset="0" stop-color="#bbe8f9"/>
      <stop offset="0.207" stop-color="#77efe0"/>
      <stop offset="0.425" stop-color="#50f3d1"/>
      <stop offset="0.79" stop-color="#fecb45"/>
      <stop offset="1" stop-color="#ffae7e"/>
    </linearGradient>
  </defs>
  <path id="Union_3" data-name="Union 3" d="M-18790.57,1442.979a6.752,6.752,0,0,1-2.52-5.514,5.323,5.323,0,0,1,1.377-3.821,4.51,4.51,0,0,1,3.428-1.458,5.684,5.684,0,0,1,2.684.626,4.707,4.707,0,0,1,1.889,1.894,5.862,5.862,0,0,0-1.186,3.467,3.539,3.539,0,0,0,1.027,2.6,3.523,3.523,0,0,0,2.6,1.023,4.7,4.7,0,0,0,3.27-1.262,10.9,10.9,0,0,0,2.482-4.414l4.725-13.547-18.277-38.915-5.273-.789v-1.578h19.615v1.578l-5.514.947,13.15,28.123,9.377-27.1-6.775-1.97v-1.578h14.184v1.578l-5.361,1.97-17.641,51.281a16.724,16.724,0,0,1-3.982,6.776q-2.326,2.123-6.656,2.128A10.193,10.193,0,0,1-18790.57,1442.979Zm95.992-23.006q-3.27-2.833-3.271-8.426v-27.969l-5.512-.789v-1.573h13.393v30.174a10.583,10.583,0,0,0,1.65,6.3,5.909,5.909,0,0,0,5.121,2.286,11.777,11.777,0,0,0,6.973-2.4,26.73,26.73,0,0,0,5.953-5.949v-28.046l-5.518-.789v-1.573h13.389v38.442l5.518.789v1.578h-13.389v-7.565a20.812,20.812,0,0,1-6.818,6.145,17.361,17.361,0,0,1-8.545,2.2Q-18691.31,1422.809-18694.578,1419.973Zm-44.232.2a19.183,19.183,0,0,1-7.369-7.484,22.21,22.21,0,0,1-2.717-11.07,22.007,22.007,0,0,1,2.717-11.027,19.34,19.34,0,0,1,7.369-7.445,20.507,20.507,0,0,1,10.318-2.635,20.524,20.524,0,0,1,10.32,2.635,19.34,19.34,0,0,1,7.369,7.445,22.066,22.066,0,0,1,2.711,11.027,22.269,22.269,0,0,1-2.711,11.07,19.183,19.183,0,0,1-7.369,7.484,20.478,20.478,0,0,1-10.32,2.64A20.46,20.46,0,0,1-18738.811,1420.169Zm1.535-33.713q-2.947,4.211-2.955,11.223v7.881q0,7.008,2.955,11.261t8.783,4.256q5.833,0,8.785-4.256t2.951-11.261v-7.881q0-7.008-2.951-11.223t-8.785-4.218Q-18734.322,1382.239-18737.275,1386.457Zm-181.895,34.262q-2.481-2.08-2.559-6.494a14.18,14.18,0,0,1-5.8,6.3,16.74,16.74,0,0,1-8.621,2.281,12.612,12.612,0,0,1-8.273-2.64q-3.234-2.632-3.227-7.838,0-7.4,6.221-10.515a31.807,31.807,0,0,1,14.418-3.113h5.279v-6.063a17.636,17.636,0,0,0-.908-6.346,5.677,5.677,0,0,0-2.8-3.151,12.1,12.1,0,0,0-5.121-.9q-3.7,0-5.514,1.458a4.743,4.743,0,0,0-1.812,3.9,2.885,2.885,0,0,0,2.209,2.994,4.764,4.764,0,0,1-1.5,3.467,4.845,4.845,0,0,1-3.549,1.5,5.066,5.066,0,0,1-3.543-1.219,4.815,4.815,0,0,1-1.338-3.744q0-4.569,4.566-7.326a21.787,21.787,0,0,1,11.424-2.754q15.759,0,15.756,13.705v22.532a4.083,4.083,0,0,0,.746,2.64,2.655,2.655,0,0,0,2.166.9,2.68,2.68,0,0,0,2.129-.9,3.658,3.658,0,0,0,.789-2.482h1.654a5.51,5.51,0,0,1-1.773,4.332,7.147,7.147,0,0,1-4.926,1.573A9.14,9.14,0,0,1-18919.17,1420.719Zm-17.488-17.406q-3.19,2.876-3.193,8.077c0,2.884.684,4.935,2.051,6.14s3.361,1.812,5.986,1.812a8.881,8.881,0,0,0,4.371-1.258,11.048,11.048,0,0,0,3.82-3.663,12.493,12.493,0,0,0,1.895-5.791v-8.191h-5.279Q-18933.471,1400.439-18936.658,1403.313Zm107.172,18.712v-1.578l4.73-.789-14.811-19.534-2.047,1.731v17.8l4.725.789v1.578h-18.117v-1.578l5.514-.789v-58.3l-5.514-.784V1359h13.393v40.412l18.039-14.81-6.854-1.812v-1.573h14.811v1.573l-5.041,1.812-13.078,10.712,18.434,24.426,4.252.708v1.578Zm-46.633,0v-1.578l4.725-.789v-27.73a10.525,10.525,0,0,0-1.654-6.341,5.928,5.928,0,0,0-5.117-2.243,11.117,11.117,0,0,0-6.971,2.64,28.24,28.24,0,0,0-5.949,6.494v27.18l4.725.789v1.578h-18.119v-1.578l5.514-.789v-36.08l-5.514-.789v-1.573h13.395v8.507a23.447,23.447,0,0,1,6.852-6.733,15.621,15.621,0,0,1,8.508-2.482q5.675,0,8.941,2.836t3.271,8.431v27.883l5.514.789v1.578Zm-94.691,0v-1.578l4.729-.789v-27.73a10.538,10.538,0,0,0-1.658-6.341,5.924,5.924,0,0,0-5.117-2.243,11.126,11.126,0,0,0-6.973,2.64,28.276,28.276,0,0,0-5.947,6.494v27.18l4.729.789v1.578h-18.123v-1.578l5.514-.789v-58.3l-5.514-.784V1359h13.395v30.724a23.394,23.394,0,0,1,6.857-6.733,15.588,15.588,0,0,1,8.5-2.482q5.672,0,8.941,2.836t3.271,8.431v27.883l5.514.789v1.578Zm-69.166,0v-1.659l7.244-1.181v-58.215h-13l-5.988,15.6H-19054V1359h51.287v17.569h-2.363l-5.9-15.6h-13.084v58.215l7.25,1.181v1.659Z" transform="translate(19054.502 -1358.499)" stroke="rgba(0,0,0,0)" stroke-miterlimit="10" stroke-width="1" fill="url(#linear-gradient)"/>
</svg>
