<svg xmlns="http://www.w3.org/2000/svg" xmlns:xlink="http://www.w3.org/1999/xlink" width="462.087" height="462.088" viewBox="0 0 462.087 462.088">
  <defs>
    <clipPath id="clip-path">
      <circle id="Ellipse_206" data-name="Ellipse 206" cx="228.91" cy="228.91" r="228.91" transform="translate(341.29 -86.884)" fill="none"/>
    </clipPath>
    <clipPath id="clip-path-2">
      <path id="Path_457" data-name="Path 457" d="M692.119,252.463l-342.791.419V230.394l342.791-.419Z" fill="none"/>
    </clipPath>
    <linearGradient id="linear-gradient" y1="0.5" x2="1" y2="0.5" gradientUnits="objectBoundingBox">
      <stop offset="0" stop-color="#97b8ba" stop-opacity="0"/>
      <stop offset="0.068" stop-color="#97b8ba" stop-opacity="0.173"/>
      <stop offset="0.168" stop-color="#97b8ba" stop-opacity="0.392"/>
      <stop offset="0.275" stop-color="#97b8ba" stop-opacity="0.58"/>
      <stop offset="0.388" stop-color="#97b8ba" stop-opacity="0.733"/>
      <stop offset="0.508" stop-color="#97b8ba" stop-opacity="0.851"/>
      <stop offset="0.639" stop-color="#97b8ba" stop-opacity="0.933"/>
      <stop offset="0.788" stop-color="#97b8ba" stop-opacity="0.984"/>
      <stop offset="1" stop-color="#97b8ba"/>
    </linearGradient>
    <linearGradient id="linear-gradient-2" x1="0.072" y1="0.5" x2="1.233" y2="0.5" gradientUnits="objectBoundingBox">
      <stop offset="0" stop-color="#fff"/>
      <stop offset="1" stop-color="#bfe4de" stop-opacity="0.2"/>
    </linearGradient>
    <clipPath id="clip-path-3">
      <path id="Path_477" data-name="Path 477" d="M684.928,261.519c0-21.4-8.619-38.747-19.252-38.747-9.07,0-16.67,12.628-18.709,29.623h-6.244v30.754h42.894V261.723h1.308C684.926,261.655,684.928,261.587,684.928,261.519Z" fill="none"/>
    </clipPath>
    <linearGradient id="linear-gradient-3" y1="0.5" x2="1" y2="0.5" gradientUnits="objectBoundingBox">
      <stop offset="0" stop-color="#fff"/>
      <stop offset="1" stop-color="#bfe4de" stop-opacity="0"/>
    </linearGradient>
    <clipPath id="clip-path-4">
      <path id="Path_524" data-name="Path 524" d="M565.385,222.772c-9.754,0-17.662,17.347-17.662,38.747h-4.472V290.3h39.8V261.519C583.048,240.119,575.14,222.772,565.385,222.772Z" fill="none"/>
    </clipPath>
    <linearGradient id="linear-gradient-5" x1="0.021" y1="1.025" x2="1.466" y2="-0.414" gradientUnits="objectBoundingBox">
      <stop offset="0.291" stop-color="#fff"/>
      <stop offset="1" stop-color="#bfe4de" stop-opacity="0.2"/>
    </linearGradient>
    <linearGradient id="linear-gradient-6" x1="0.129" y1="0.982" x2="1.757" y2="-2.895" xlink:href="#linear-gradient-5"/>
    <linearGradient id="linear-gradient-7" x1="0" y1="0.5" x2="1" y2="0.5" xlink:href="#linear-gradient-5"/>
    <linearGradient id="linear-gradient-8" y1="0.5" x2="1" y2="0.5" gradientUnits="objectBoundingBox">
      <stop offset="0" stop-color="#fff" stop-opacity="0.8"/>
      <stop offset="1" stop-color="#bfe4de" stop-opacity="0.2"/>
    </linearGradient>
    <linearGradient id="linear-gradient-9" x1="0" y1="0.5" x2="1" y2="0.5" xlink:href="#linear-gradient-3"/>
    <linearGradient id="linear-gradient-11" x1="0.5" y1="0.003" x2="0.5" y2="0.955" xlink:href="#linear-gradient-8"/>
    <linearGradient id="linear-gradient-13" x1="0.5" y1="0.003" x2="0.5" y2="0.955" xlink:href="#linear-gradient-8"/>
    <linearGradient id="linear-gradient-14" x1="0.5" y1="1" x2="0.5" gradientUnits="objectBoundingBox">
      <stop offset="0.166" stop-color="#8f9697" stop-opacity="0"/>
      <stop offset="1" stop-color="#8f9697"/>
    </linearGradient>
  </defs>
  <g id="Group_291" data-name="Group 291" transform="translate(-339.156 91.152)">
    <circle id="Ellipse_205" data-name="Ellipse 205" cx="231.044" cy="231.044" r="231.044" transform="translate(339.156 -91.152)" fill="#e0e7e7"/>
    <path id="Path_433" data-name="Path 433" d="M570.2-91.152c-127.6,0-231.044,103.442-231.044,231.044a229.994,229.994,0,0,0,28.572,111.357H772.671a229.983,229.983,0,0,0,28.572-111.357C801.243,12.29,697.8-91.152,570.2-91.152Z" fill="#fffacb"/>
    <path id="Path_434" data-name="Path 434" d="M580.514,121.994v74.473h34.432V121.994Zm21.952,3.635h2.829v2.793h-2.829Zm0,6.412h2.829v2.793h-2.829Zm0,6.412h2.829v2.793h-2.829Zm-6.151-12.824h2.83v2.793h-2.83Zm0,6.412h2.83v2.793h-2.83Zm0,6.412h2.83v2.793h-2.83Zm-6.15-12.824h2.829v2.793h-2.829Zm0,6.412h2.829v2.793h-2.829Zm0,6.412h2.829v2.793h-2.829Zm-6.15-12.824h2.829v2.793h-2.829Zm0,6.412h2.829v2.793h-2.829Zm0,6.412h2.829v2.793h-2.829Zm2.829,32.518h-2.829v-2.793h2.829Zm0-6.412h-2.829v-2.793h2.829Zm0-6.577h-2.829v-5.113h2.829Zm6.15,12.989h-2.829v-2.793h2.829Zm0-6.412h-2.829v-2.793h2.829Zm0-6.577h-2.829v-5.113h2.829Zm6.151,12.989h-2.83v-2.793h2.83Zm0-6.412h-2.83v-2.793h2.83Zm0-6.577h-2.83v-5.113h2.83Zm6.15,12.989h-2.829v-2.793h2.829Zm0-6.412h-2.829v-2.793h2.829Zm0-6.577h-2.829v-5.113h2.829Zm6.151,12.989h-2.83v-2.793h2.83Zm0-6.412h-2.83v-2.793h2.83Zm0-6.577h-2.83v-5.113h2.83Zm0-8.769H584.015v-.85h27.431Zm0-3H584.015v-.851h27.431Zm0-4.969h-2.83v-2.793h2.83Zm0-6.412h-2.83v-2.793h2.83Zm0-6.412h-2.83v-2.793h2.83Z" fill="#f2d6a2"/>
    <path id="Path_435" data-name="Path 435" d="M580.514,71.486v52.946h34.432V71.486Zm21.952,3.635h2.829v2.793h-2.829Zm0,6.412h2.829v2.793h-2.829Zm0,6.412h2.829v2.793h-2.829Zm-6.151-12.824h2.83v2.793h-2.83Zm0,6.412h2.83v2.793h-2.83Zm0,6.412h2.83v2.793h-2.83Zm-6.15-12.824h2.829v2.793h-2.829Zm0,6.412h2.829v2.793h-2.829Zm0,6.412h2.829v2.793h-2.829Zm-6.15-12.824h2.829v2.793h-2.829Zm0,6.412h2.829v2.793h-2.829Zm0,6.412h2.829v2.793h-2.829Zm2.829,32.518h-2.829V117.67h2.829Zm0-6.412h-2.829v-2.793h2.829Zm0-6.577h-2.829v-5.113h2.829Zm6.15,12.989h-2.829V117.67h2.829Zm0-6.412h-2.829v-2.793h2.829Zm0-6.577h-2.829v-5.113h2.829Zm6.151,12.989h-2.83V117.67h2.83Zm0-6.412h-2.83v-2.793h2.83Zm0-6.577h-2.83v-5.113h2.83Zm6.15,12.989h-2.829V117.67h2.829Zm0-6.412h-2.829v-2.793h2.829Zm0-6.577h-2.829v-5.113h2.829Zm6.151,12.989h-2.83V117.67h2.83Zm0-6.412h-2.83v-2.793h2.83Zm0-6.577h-2.83v-5.113h2.83Zm0-8.768H584.015v-.851h27.431Zm0-3H584.015v-.851h27.431Zm0-4.969h-2.83V87.945h2.83Zm0-6.412h-2.83V81.533h2.83Zm0-6.412h-2.83V75.121h2.83Z" fill="#f2d6a2"/>
    <path id="Path_436" data-name="Path 436" d="M614.959,150.68v77.937H689.03V150.68Zm47.223,3.8h6.086v2.923h-6.086Zm0,6.71h6.086v2.924h-6.086Zm0,6.71h6.086v2.924h-6.086Zm-13.231-13.42h6.087v2.923h-6.087Zm0,6.71h6.087v2.924h-6.087Zm0,6.71h6.087v2.924h-6.087Zm-13.23-13.42h6.086v2.923h-6.086Zm0,6.71h6.086v2.924h-6.086Zm0,6.71h6.086v2.924h-6.086Zm-13.231-13.42h6.086v2.923H622.49Zm0,6.71h6.086v2.924H622.49Zm0,6.71h6.086v2.924H622.49Zm6.086,34.031H622.49v-2.923h6.086Zm0-6.71H622.49V192.3h6.086Zm0-6.884H622.49v-5.35h6.086Zm13.231,13.594h-6.086v-2.923h6.086Zm0-6.71h-6.086V192.3h6.086Zm0-6.884h-6.086v-5.35h6.086Zm13.231,13.594h-6.087v-2.923h6.087Zm0-6.71h-6.087V192.3h6.087Zm0-6.884h-6.087v-5.35h6.087Zm13.23,13.594h-6.086v-2.923h6.086Zm0-6.71h-6.086V192.3h6.086Zm0-6.884h-6.086v-5.35h6.086ZM681.5,201.935h-6.086v-2.923H681.5Zm0-6.71h-6.086V192.3H681.5Zm0-6.884h-6.086v-5.35H681.5Zm0-9.176H622.49v-.89H681.5Zm0-3.138H622.49v-.89H681.5Zm0-5.2h-6.086V167.9H681.5Zm0-6.71h-6.086v-2.924H681.5Zm0-6.711h-6.086v-2.923H681.5Z" fill="#f6e2be"/>
    <path id="Path_437" data-name="Path 437" d="M614.959,97.824v55.408H689.03V97.824Zm47.223,3.8h6.086v2.923h-6.086Zm0,6.71h6.086v2.923h-6.086Zm0,6.71h6.086v2.923h-6.086Zm-13.231-13.42h6.087v2.923h-6.087Zm0,6.71h6.087v2.923h-6.087Zm0,6.71h6.087v2.923h-6.087Zm-13.23-13.42h6.086v2.923h-6.086Zm0,6.71h6.086v2.923h-6.086Zm0,6.71h6.086v2.923h-6.086Zm-13.231-13.42h6.086v2.923H622.49Zm0,6.71h6.086v2.923H622.49Zm0,6.71h6.086v2.923H622.49Zm6.086,34.03H622.49v-2.923h6.086Zm0-6.71H622.49v-2.923h6.086Zm0-6.883H622.49v-5.351h6.086Zm13.231,13.593h-6.086v-2.923h6.086Zm0-6.71h-6.086v-2.923h6.086Zm0-6.883h-6.086v-5.351h6.086Zm13.231,13.593h-6.087v-2.923h6.087Zm0-6.71h-6.087v-2.923h6.087Zm0-6.883h-6.087v-5.351h6.087Zm13.23,13.593h-6.086v-2.923h6.086Zm0-6.71h-6.086v-2.923h6.086Zm0-6.883h-6.086v-5.351h6.086ZM681.5,149.078h-6.086v-2.923H681.5Zm0-6.71h-6.086v-2.923H681.5Zm0-6.883h-6.086v-5.351H681.5Zm0-9.176H622.49v-.89H681.5Zm0-3.138H622.49v-.891H681.5Zm0-5.2h-6.086v-2.923H681.5Zm0-6.71h-6.086v-2.923H681.5Zm0-6.71h-6.086v-2.923H681.5Z" fill="#f6e2be"/>
    <path id="Path_438" data-name="Path 438" d="M614.959,55.923V98.4h31.785V55.923Zm20.264,2.916h2.611V61.08h-2.611Zm0,5.144h2.611v2.241h-2.611Zm0,5.144h2.611v2.241h-2.611Zm-5.678-10.288h2.612V61.08h-2.612Zm0,5.144h2.612v2.241h-2.612Zm0,5.144h2.612v2.241h-2.612Zm-5.677-10.288h2.612V61.08h-2.612Zm0,5.144h2.612v2.241h-2.612Zm0,5.144h2.612v2.241h-2.612ZM618.19,58.839H620.8V61.08H618.19Zm0,5.144H620.8v2.241H618.19Zm0,5.144H620.8v2.241H618.19ZM620.8,95.214H618.19V92.973H620.8Zm0-5.144H618.19V87.829H620.8Zm0-5.277H618.19v-4.1H620.8Zm5.678,10.421h-2.612V92.973h2.612Zm0-5.144h-2.612V87.829h2.612Zm0-5.277h-2.612v-4.1h2.612Zm5.677,10.421h-2.612V92.973h2.612Zm0-5.144h-2.612V87.829h2.612Zm0-5.277h-2.612v-4.1h2.612Zm5.677,10.421h-2.611V92.973h2.611Zm0-5.144h-2.611V87.829h2.611Zm0-5.277h-2.611v-4.1h2.611Zm5.678,10.421H640.9V92.973h2.612Zm0-5.144H640.9V87.829h2.612Zm0-5.277H640.9v-4.1h2.612Zm0-7.034H618.19v-.682h25.322Zm0-2.406H618.19v-.682h25.322Zm0-3.985H640.9V69.127h2.612Zm0-5.144H640.9V63.983h2.612Zm0-5.144H640.9V58.839h2.612Z" fill="#f6e2be"/>
    <path id="Path_439" data-name="Path 439" d="M701.634,228.617H689.14V97.824l12.493,6.428Z" fill="#dfc49e"/>
    <path id="Path_440" data-name="Path 440" d="M659.237,97.824H646.744v-41.9l12.493,6.187Z" fill="#dfc49e"/>
    <g id="Group_259" data-name="Group 259">
      <rect id="Rectangle_374" data-name="Rectangle 374" width="120.794" height="268.374" transform="translate(442.943 -27.013)" fill="#e7c88c"/>
      <g id="Group_250" data-name="Group 250">
        <rect id="Rectangle_375" data-name="Rectangle 375" width="9.925" height="18.425" transform="translate(455.225 -13.914)" fill="#fee1af"/>
        <rect id="Rectangle_376" data-name="Rectangle 376" width="9.925" height="18.425" transform="translate(476.801 -13.914)" fill="#fea900"/>
        <rect id="Rectangle_377" data-name="Rectangle 377" width="9.925" height="18.425" transform="translate(498.377 -13.914)" fill="#fee1af"/>
        <rect id="Rectangle_378" data-name="Rectangle 378" width="9.925" height="18.425" transform="translate(519.954 -13.914)" fill="#c5a56a"/>
        <rect id="Rectangle_379" data-name="Rectangle 379" width="9.925" height="18.425" transform="translate(541.53 -13.914)" fill="#fee1af"/>
      </g>
      <g id="Group_251" data-name="Group 251">
        <rect id="Rectangle_380" data-name="Rectangle 380" width="9.925" height="18.425" transform="translate(455.225 35.168)" fill="#fee1af"/>
        <rect id="Rectangle_381" data-name="Rectangle 381" width="9.925" height="18.425" transform="translate(476.801 35.168)" fill="#c5a56a"/>
        <rect id="Rectangle_382" data-name="Rectangle 382" width="9.925" height="18.425" transform="translate(498.377 35.168)" fill="#fee1af"/>
        <rect id="Rectangle_383" data-name="Rectangle 383" width="9.925" height="18.425" transform="translate(519.954 35.168)" fill="#ffd408"/>
        <rect id="Rectangle_384" data-name="Rectangle 384" width="9.925" height="18.425" transform="translate(541.53 35.168)" fill="#fee1af"/>
      </g>
      <g id="Group_252" data-name="Group 252">
        <rect id="Rectangle_385" data-name="Rectangle 385" width="9.925" height="18.425" transform="translate(455.225 84.249)" fill="#fee1af"/>
        <rect id="Rectangle_386" data-name="Rectangle 386" width="9.925" height="18.425" transform="translate(476.801 84.249)" fill="#fee1af"/>
        <rect id="Rectangle_387" data-name="Rectangle 387" width="9.925" height="18.425" transform="translate(498.377 84.249)" fill="#c5a56a"/>
        <rect id="Rectangle_388" data-name="Rectangle 388" width="9.925" height="18.425" transform="translate(519.954 84.249)" fill="#fea900"/>
        <rect id="Rectangle_389" data-name="Rectangle 389" width="9.925" height="18.425" transform="translate(541.53 84.249)" fill="#fee1af"/>
      </g>
      <g id="Group_253" data-name="Group 253">
        <rect id="Rectangle_390" data-name="Rectangle 390" width="9.925" height="18.425" transform="translate(455.225 133.33)" fill="#fee1af"/>
        <rect id="Rectangle_391" data-name="Rectangle 391" width="9.925" height="18.425" transform="translate(476.801 133.33)" fill="#c5a56a"/>
        <rect id="Rectangle_392" data-name="Rectangle 392" width="9.925" height="18.425" transform="translate(498.377 133.33)" fill="#fee1af"/>
        <rect id="Rectangle_393" data-name="Rectangle 393" width="9.925" height="18.425" transform="translate(519.954 133.33)" fill="#fee1af"/>
        <rect id="Rectangle_394" data-name="Rectangle 394" width="9.925" height="18.425" transform="translate(541.53 133.33)" fill="#fee1af"/>
      </g>
      <g id="Group_254" data-name="Group 254">
        <rect id="Rectangle_395" data-name="Rectangle 395" width="9.925" height="18.425" transform="translate(455.225 182.411)" fill="#fee1af"/>
        <rect id="Rectangle_396" data-name="Rectangle 396" width="9.925" height="18.425" transform="translate(476.801 182.411)" fill="#fee1af"/>
        <rect id="Rectangle_397" data-name="Rectangle 397" width="9.925" height="18.425" transform="translate(498.377 182.411)" fill="#fee1af"/>
        <rect id="Rectangle_398" data-name="Rectangle 398" width="9.925" height="18.425" transform="translate(519.954 182.411)" fill="#fee1af"/>
        <rect id="Rectangle_399" data-name="Rectangle 399" width="9.925" height="18.425" transform="translate(541.53 182.411)" fill="#c5a56a"/>
      </g>
      <rect id="Rectangle_400" data-name="Rectangle 400" width="96.231" height="3.066" transform="translate(455.225 16.686)" fill="#fee1af"/>
      <rect id="Rectangle_401" data-name="Rectangle 401" width="96.231" height="3.066" transform="translate(455.225 68.011)" fill="#fee1af"/>
      <path id="Path_441" data-name="Path 441" d="M563.737,169.323h16.781V-18.822l-16.781-8.191Z" fill="#cea864"/>
      <g id="Group_255" data-name="Group 255">
        <rect id="Rectangle_402" data-name="Rectangle 402" width="2.976" height="18.425" transform="translate(567.863 -13.914)" fill="#e7c88c"/>
        <rect id="Rectangle_403" data-name="Rectangle 403" width="2.976" height="18.425" transform="translate(574.333 -13.914)" fill="#e7c88c"/>
      </g>
      <g id="Group_256" data-name="Group 256">
        <rect id="Rectangle_404" data-name="Rectangle 404" width="2.976" height="18.425" transform="translate(567.863 35.767)" fill="#e7c88c"/>
        <rect id="Rectangle_405" data-name="Rectangle 405" width="2.976" height="18.425" transform="translate(574.333 35.767)" fill="#e7c88c"/>
      </g>
      <g id="Group_257" data-name="Group 257">
        <rect id="Rectangle_406" data-name="Rectangle 406" width="2.976" height="18.425" transform="translate(567.863 84.249)" fill="#e7c88c"/>
        <rect id="Rectangle_407" data-name="Rectangle 407" width="2.976" height="18.425" transform="translate(574.333 84.249)" fill="#e7c88c"/>
      </g>
      <g id="Group_258" data-name="Group 258">
        <rect id="Rectangle_408" data-name="Rectangle 408" width="2.976" height="18.425" transform="translate(567.863 132.73)" fill="#e7c88c"/>
        <rect id="Rectangle_409" data-name="Rectangle 409" width="2.976" height="18.425" transform="translate(574.333 132.73)" fill="#e7c88c"/>
      </g>
      <rect id="Rectangle_410" data-name="Rectangle 410" width="11.705" height="3.066" transform="translate(566.521 16.686)" fill="#fee1af"/>
      <rect id="Rectangle_411" data-name="Rectangle 411" width="11.705" height="3.066" transform="translate(566.521 68.011)" fill="#fee1af"/>
    </g>
    <path id="Path_442" data-name="Path 442" d="M387.257,114.617V220.5H436.21V114.617Zm31.21,5.168h4.022v3.971h-4.022Zm0,9.116h4.022v3.971h-4.022Zm0,9.115h4.022v3.972h-4.022Zm-8.744-18.231h4.022v3.971h-4.022Zm0,9.116h4.022v3.971h-4.022Zm0,9.115h4.022v3.972h-4.022Zm-8.744-18.231H405v3.971h-4.022Zm0,9.116H405v3.971h-4.022Zm0,9.115H405v3.972h-4.022Zm-8.744-18.231h4.022v3.971h-4.022Zm0,9.116h4.022v3.971h-4.022Zm0,9.115h4.022v3.972h-4.022Zm4.022,46.232h-4.022v-3.972h4.022Zm0-9.116h-4.022V171.16h4.022Zm0-9.352h-4.022v-7.268h4.022ZM405,184.248h-4.022v-3.972H405Zm0-9.116h-4.022V171.16H405Zm0-9.352h-4.022v-7.268H405Zm8.744,18.468h-4.022v-3.972h4.022Zm0-9.116h-4.022V171.16h4.022Zm0-9.352h-4.022v-7.268h4.022Zm8.744,18.468h-4.022v-3.972h4.022Zm0-9.116h-4.022V171.16h4.022Zm0-9.352h-4.022v-7.268h4.022Zm8.744,18.468h-4.022v-3.972h4.022Zm0-9.116h-4.022V171.16h4.022Zm0-9.352h-4.022v-7.268h4.022Zm0-12.465h-39V152.1h39Zm0-4.264h-39v-1.209h39Zm0-7.063h-4.022v-3.972h4.022Zm0-9.116h-4.022V128.9h4.022Zm0-9.116h-4.022v-3.971h4.022Z" fill="#f2d6a2"/>
    <g id="Group_266" data-name="Group 266">
      <g id="Group_265" data-name="Group 265" clip-path="url(#clip-path)">
        <g id="Group_264" data-name="Group 264">
          <path id="Path_443" data-name="Path 443" d="M692.119,252.463,349.328,250.2V224.047l342.791-.333Z" fill="#97b8ba"/>
          <path id="Path_444" data-name="Path 444" d="M691.178,252.463l-341.85.419V230.394l341.85-.419Z" fill="#ced9db"/>
          <g id="Group_263" data-name="Group 263">
            <g id="Group_262" data-name="Group 262" clip-path="url(#clip-path-2)">
              <g id="Group_260" data-name="Group 260">
                <path id="Path_445" data-name="Path 445" d="M362.472,223.394l-30.31,36.838h22.923l30.451-36.838Z" fill="#838889"/>
                <path id="Path_446" data-name="Path 446" d="M405.7,223.394l-30.31,36.838h22.923l30.451-36.838Z" fill="#838889"/>
                <path id="Path_447" data-name="Path 447" d="M445.36,226.806l-30.31,36.838h22.923l30.451-36.838Z" fill="#838889"/>
                <path id="Path_448" data-name="Path 448" d="M488.59,226.806l-30.31,36.838H481.2l30.451-36.838Z" fill="#838889"/>
                <path id="Path_449" data-name="Path 449" d="M531.82,226.806l-32.272,39.222L516.7,273l38.188-46.2Z" fill="#838889"/>
                <path id="Path_450" data-name="Path 450" d="M575.051,226.806l-40.62,49.62h22.923l40.761-49.62Z" fill="#838889"/>
              </g>
              <g id="Group_261" data-name="Group 261">
                <path id="Path_451" data-name="Path 451" d="M619.057,223.394l-30.31,36.838H611.67l30.451-36.838Z" fill="#838889"/>
                <path id="Path_452" data-name="Path 452" d="M662.287,223.394l-30.31,36.838H654.9l30.451-36.838Z" fill="#838889"/>
                <path id="Path_453" data-name="Path 453" d="M701.944,226.806l-30.31,36.838h22.923l30.451-36.838Z" fill="#838889"/>
                <path id="Path_454" data-name="Path 454" d="M745.175,226.806l-30.31,36.838h22.923l30.451-36.838Z" fill="#838889"/>
                <path id="Path_455" data-name="Path 455" d="M788.4,226.806l-32.272,39.222L773.281,273l38.188-46.2Z" fill="#838889"/>
                <path id="Path_456" data-name="Path 456" d="M831.635,226.806l-40.62,49.62h22.923l40.761-49.62Z" fill="#838889"/>
              </g>
            </g>
          </g>
        </g>
      </g>
    </g>
    <path id="Path_458" data-name="Path 458" d="M442.943,215.936h-6.779V114.617l6.779,3.53Z" fill="#cea864"/>
    <rect id="Rectangle_412" data-name="Rectangle 412" width="18.733" height="15.303" transform="translate(402.367 196.941)" fill="#fffacb"/>
    <rect id="Rectangle_413" data-name="Rectangle 413" width="55.639" height="3.692" transform="translate(387.304 212.244)" fill="#f7e695"/>
    <rect id="Rectangle_414" data-name="Rectangle 414" width="3.914" height="48.09" transform="translate(387.471 204.65)" fill="#9d7b42"/>
    <g id="Group_268" data-name="Group 268">
      <g id="Group_267" data-name="Group 267">
        <path id="Path_459" data-name="Path 459" d="M400.9,244.039h-1.252V102.563a7.945,7.945,0,1,1,15.89,0v8.252h-1.252v-8.252a6.693,6.693,0,0,0-13.386,0Z" fill="#8a6528"/>
      </g>
      <path id="Rectangle_415" data-name="Rectangle 415" d="M3.88,0h0a3.88,3.88,0,0,1,3.88,3.88V33.438a0,0,0,0,1,0,0H0a0,0,0,0,1,0,0V3.88A3.88,3.88,0,0,1,3.88,0Z" transform="translate(396.417 219.301)" fill="#8a6528"/>
      <circle id="Ellipse_207" data-name="Ellipse 207" cx="6.902" cy="6.902" r="6.902" transform="translate(408.015 105.377)" fill="#ffee71"/>
    </g>
    <circle id="Ellipse_208" data-name="Ellipse 208" cx="26.41" cy="26.41" r="26.41" transform="translate(362.561 162.21)" fill="#c2d56e"/>
    <g id="Group_290" data-name="Group 290">
      <path id="Path_460" data-name="Path 460" d="M392.19,281.991l4.35,5.319H652.493l58.871-8.849-101.336-8.488Z" fill="url(#linear-gradient)"/>
      <g id="Group_269" data-name="Group 269">
        <path id="Path_461" data-name="Path 461" d="M635.2,212.936h44.889l-15.8-36.341c-5.309-12.209-16.638-20-29.085-20H612.136c-15.56,0-23.384,3.733-32.047,9.955L524.458,206.5H635.2Z" fill="#5f5c5c"/>
      </g>
      <path id="Path_462" data-name="Path 462" d="M592.839,174.062s7.042-10.153,16.2-10.289,33.221,0,33.221,0a16.057,16.057,0,0,1,13.615,12.173V200.9l-82.862.3Z" fill="url(#linear-gradient-2)"/>
      <g id="Group_270" data-name="Group 270">
        <path id="Path_463" data-name="Path 463" d="M497.513,206.147c4.383,0,7.25-4.041,7.25-9.026s-2.867-9.026-7.25-9.026-7.935,4.041-7.935,9.026S493.131,206.147,497.513,206.147Z" fill="#ced9db"/>
        <ellipse id="Ellipse_209" data-name="Ellipse 209" cx="6.413" cy="9.026" rx="6.413" ry="9.026" transform="translate(489.578 188.095)" fill="#a8c0c3"/>
        <path id="Path_464" data-name="Path 464" d="M494.117,188.489c-.565,3.088-.52,9.1,5.519,16.054a5.22,5.22,0,0,1-3.645,1.6c-3.542,0-6.413-4.041-6.413-9.026C489.578,193.054,491.49,189.617,494.117,188.489Z" fill="#88a4a7"/>
      </g>
      <path id="Rectangle_416" data-name="Rectangle 416" d="M4.318,0H57.336a4.318,4.318,0,0,1,4.318,4.318v.007a0,0,0,0,1,0,0H0a0,0,0,0,1,0,0V4.318A4.318,4.318,0,0,1,4.318,0Z" transform="translate(644.11 263.915) rotate(180)" fill="#3b2825"/>
      <rect id="Rectangle_417" data-name="Rectangle 417" width="6.074" height="12.98" rx="2.69" transform="translate(702.55 229.366) rotate(-4.016)" fill="#ec4016"/>
      <rect id="Rectangle_418" data-name="Rectangle 418" width="6.074" height="16.554" rx="3.037" transform="translate(701.453 227.583) rotate(-4.016)" fill="#c9c9c9"/>
      <path id="Path_465" data-name="Path 465" d="M684.928,261.323V266.1a3.875,3.875,0,0,1-3.875,3.875h-2.886v-6.927l2.185-1.723Z" fill="#1a1818"/>
      <path id="Path_466" data-name="Path 466" d="M684.928,261.519c0-21.4-8.619-38.747-19.252-38.747s-19.251,17.347-19.251,38.747c0,.068,0,.136,0,.2h38.5C684.926,261.655,684.928,261.587,684.928,261.519Z" fill="#1a1818"/>
      <g id="Group_274" data-name="Group 274">
        <g id="Group_273" data-name="Group 273" clip-path="url(#clip-path-3)">
          <g id="Group_271" data-name="Group 271">
            <ellipse id="Ellipse_210" data-name="Ellipse 210" cx="25.833" cy="13.968" rx="25.833" ry="13.968" transform="translate(641.383 280.093) rotate(-85.152)" fill="#262626"/>
            <path id="Path_467" data-name="Path 467" d="M666.233,281.8l-10.932-.53,3.776-51.506,11.523.554Z" fill="#262626"/>
            <ellipse id="Ellipse_211" data-name="Ellipse 211" cx="25.833" cy="13.968" rx="25.833" ry="13.968" transform="translate(652.315 280.623) rotate(-85.152)" fill="#5f5c5c"/>
            <ellipse id="Ellipse_212" data-name="Ellipse 212" cx="13.741" cy="7.43" rx="13.741" ry="7.43" transform="translate(660.682 269.197) rotate(-85.152)" fill="#9c8887"/>
            <ellipse id="Ellipse_213" data-name="Ellipse 213" cx="11.39" cy="6.159" rx="11.39" ry="6.159" transform="translate(662.147 266.962) rotate(-85.152)" fill="#c3a8a7"/>
            <ellipse id="Ellipse_214" data-name="Ellipse 214" cx="1.248" cy="0.675" rx="1.248" ry="0.675" transform="translate(670.904 257.291) rotate(-85.152)" fill="#9c8887"/>
            <ellipse id="Ellipse_215" data-name="Ellipse 215" cx="1.248" cy="0.675" rx="1.248" ry="0.675" transform="translate(666.073 256.882) rotate(-85.152)" fill="#9c8887"/>
            <ellipse id="Ellipse_216" data-name="Ellipse 216" cx="1.248" cy="0.675" rx="1.248" ry="0.675" transform="translate(668.71 252.909) rotate(-85.152)" fill="#9c8887"/>
            <ellipse id="Ellipse_217" data-name="Ellipse 217" cx="1.248" cy="0.675" rx="1.248" ry="0.675" transform="translate(667.982 261.502) rotate(-85.152)" fill="#9c8887"/>
          </g>
          <g id="Group_272" data-name="Group 272">
            <ellipse id="Ellipse_218" data-name="Ellipse 218" cx="16.962" cy="9.02" rx="16.962" ry="9.02" transform="matrix(0.082, -0.997, 0.997, 0.082, 658.88, 272.28)" fill="#303031"/>
            <ellipse id="Ellipse_219" data-name="Ellipse 219" cx="16.962" cy="9.02" rx="16.962" ry="9.02" transform="matrix(0.082, -0.997, 0.997, 0.082, 658.88, 272.28)" fill="#828282"/>
            <ellipse id="Ellipse_220" data-name="Ellipse 220" cx="14.374" cy="7.644" rx="14.374" ry="7.644" transform="matrix(0.082, -0.997, 0.997, 0.082, 660.463, 269.813)" fill="#303031"/>
            <ellipse id="Ellipse_221" data-name="Ellipse 221" cx="6.176" cy="3.284" rx="6.176" ry="3.284" transform="matrix(0.082, -0.997, 0.997, 0.082, 665.477, 261.997)" fill="#828282"/>
            <path id="Path_468" data-name="Path 468" d="M668.049,271.7l.1.005a.3.3,0,0,0,.329-.248l2.308-31.168a.284.284,0,0,0-.289-.282l-.1,0a.3.3,0,0,0-.329.248l-2.308,31.168A.284.284,0,0,0,668.049,271.7Z" fill="#828282"/>
            <path id="Path_469" data-name="Path 469" d="M665.04,270.474h0c.175.139.4-.018.492-.349l8.12-28.041a.883.883,0,0,0-.144-.853h0c-.175-.139-.4.018-.493.349L664.9,269.621A.879.879,0,0,0,665.04,270.474Z" fill="#828282"/>
            <path id="Path_470" data-name="Path 470" d="M662.558,267.323h0c.129.247.359.238.511-.022l12.879-22a1.062,1.062,0,0,0,.041-.922h0c-.129-.247-.359-.238-.511.022l-12.879,22A1.062,1.062,0,0,0,662.558,267.323Z" fill="#828282"/>
            <path id="Path_471" data-name="Path 471" d="M661.1,263.314h0c.075.317.288.437.472.269l15.666-14.31a1,1,0,0,0,.2-.882h0c-.075-.317-.288-.437-.472-.269L661.3,262.432A1,1,0,0,0,661.1,263.314Z" fill="#828282"/>
            <path id="Path_472" data-name="Path 472" d="M660.475,258.554h0c.013.353.187.592.386.531l16.874-5.18c.2-.061.351-.4.337-.754h0c-.013-.353-.187-.592-.386-.531l-16.874,5.18C660.613,257.861,660.461,258.2,660.475,258.554Z" fill="#828282"/>
            <path id="Path_473" data-name="Path 473" d="M660.948,252.2h0c-.066.349.035.7.223.784l15.966,7.008c.188.082.4-.136.462-.485h0c.066-.349-.035-.7-.223-.784l-15.966-7.008C661.222,251.632,661.014,251.85,660.948,252.2Z" fill="#828282"/>
            <path id="Path_474" data-name="Path 474" d="M662.291,247.517h0a.988.988,0,0,0,.066.9l13.39,15.985c.158.188.387.093.509-.212h0a.988.988,0,0,0-.066-.9L662.8,247.3C662.642,247.117,662.413,247.212,662.291,247.517Z" fill="#828282"/>
            <path id="Path_475" data-name="Path 475" d="M664.56,243.4h0a1.065,1.065,0,0,0-.112.916l9.038,23.882c.107.282.332.331.5.109h0a1.065,1.065,0,0,0,.112-.916l-9.038-23.882C664.954,243.226,664.729,243.177,664.56,243.4Z" fill="#828282"/>
            <path id="Path_476" data-name="Path 476" d="M667.172,240.926h0a.91.91,0,0,0-.265.834l4.029,28.625c.048.338.245.515.439.394h0a.91.91,0,0,0,.265-.834l-4.029-28.625C667.564,240.982,667.366,240.8,667.172,240.926Z" fill="#828282"/>
          </g>
        </g>
      </g>
      <g id="Group_275" data-name="Group 275">
        <path id="Path_478" data-name="Path 478" d="M464.961,255.639c-.826,14.626-5.6,26.047-10.67,25.509s-8.567-12.831-7.8-27.457,5.577-26.046,10.705-25.508S465.8,241.014,464.961,255.639Z" fill="#262626"/>
        <path id="Path_479" data-name="Path 479" d="M454.675,229.873l1.98-1.69,16.819.788-2.591,52.965-16.641-.788Z" fill="#262626"/>
        <path id="Path_480" data-name="Path 480" d="M481.553,256.427c-.826,14.626-5.6,26.047-10.67,25.509s-8.567-12.831-7.8-27.457,5.577-26.046,10.7-25.508S482.388,241.8,481.553,256.427Z" fill="#5f5c5c"/>
        <path id="Path_481" data-name="Path 481" d="M478.607,255.908c-.517,8.123-2.85,14.5-5.216,14.253s-3.889-7.039-3.4-15.162,2.843-14.5,5.234-14.254S479.13,247.785,478.607,255.908Z" fill="#97625c"/>
        <path id="Path_482" data-name="Path 482" d="M477.947,255.826c-.467,7.085-2.415,12.661-4.355,12.455s-3.155-6.116-2.708-13.2,2.409-12.66,4.371-12.454S478.419,248.742,477.947,255.826Z" fill="#cc928d"/>
        <path id="Path_483" data-name="Path 483" d="M475.794,252.429c-.04.621-.216,1.109-.4,1.09s-.292-.537-.254-1.158.216-1.109.4-1.09S475.835,251.808,475.794,252.429Z" fill="#714943"/>
        <path id="Path_484" data-name="Path 484" d="M475.1,258.723c-.039.621-.216,1.109-.4,1.09s-.292-.538-.254-1.159.216-1.109.4-1.09S475.137,258.1,475.1,258.723Z" fill="#714943"/>
        <path id="Path_485" data-name="Path 485" d="M476.9,255.619c-.04.621-.217,1.11-.395,1.091s-.293-.538-.255-1.159.216-1.109.4-1.09S476.936,255,476.9,255.619Z" fill="#714943"/>
        <path id="Path_486" data-name="Path 486" d="M473.768,255.264c-.04.621-.216,1.109-.4,1.09s-.293-.538-.255-1.159.216-1.109.4-1.09S473.808,254.643,473.768,255.264Z" fill="#714943"/>
      </g>
      <path id="Path_487" data-name="Path 487" d="M579.885,205.926H488.057a48.819,48.819,0,0,0-48.82,48.82v7.318H552.828Z" fill="#8ecebf"/>
      <path id="Path_488" data-name="Path 488" d="M518.755,222.852s11.736-12.673,51.139-17.019l-1.7,1.162s-29.833,6.691-35.845,37.4c-4.974,6.862-10.994,6.818-12.65,5.507S518.755,222.852,518.755,222.852Z" fill="#a9dad1"/>
      <path id="Path_489" data-name="Path 489" d="M612.136,156.6H560.662c-16.746,0-27,.673-36.2,12.041L493.412,206.5l76.482-.671A156.978,156.978,0,0,1,589.2,173.2C600.436,158.635,612.136,156.6,612.136,156.6Z" fill="#5f5c5c"/>
      <path id="Path_490" data-name="Path 490" d="M529.405,230.685s7.145-17.765,35.341-24.217c-8.371,1.021-39.564,7.41-46.141,17.067C520.073,226.313,529.405,230.685,529.405,230.685Z" fill="url(#linear-gradient-3)"/>
      <path id="Path_491" data-name="Path 491" d="M675.731,205.586h-95.9A48.432,48.432,0,0,0,531.4,254.018v7.7H642.421s4.129.552,4.129-4.641c0-.789.1-1.568.168-2.341,1.593-18.168,9.475-31.969,18.958-31.969,9.8,0,17.686,14.5,19.095,33.78.432,5.9,2.635,5.171,2.635,5.171h9.382a9.362,9.362,0,0,0,9.362-9.362V236.005A30.419,30.419,0,0,0,675.731,205.586Z" fill="#5abaa1"/>
      <ellipse id="Ellipse_222" data-name="Ellipse 222" cx="13.566" cy="9.782" rx="13.566" ry="9.782" transform="translate(509.318 250.178) rotate(-85.21)" fill="#5abaa1"/>
      <ellipse id="Ellipse_223" data-name="Ellipse 223" cx="13.566" cy="9.782" rx="13.566" ry="9.782" transform="translate(509.409 249.097) rotate(-85.21)" fill="#c9c9c9"/>
      <ellipse id="Ellipse_224" data-name="Ellipse 224" cx="10.185" cy="7.344" rx="10.185" ry="7.344" transform="translate(511.053 245.999) rotate(-85.21)" fill="#767676"/>
      <ellipse id="Ellipse_225" data-name="Ellipse 225" cx="9.903" cy="7.17" rx="9.903" ry="7.17" transform="translate(511.4 246.028) rotate(-85.21)" fill="#edeeef"/>
      <ellipse id="Ellipse_226" data-name="Ellipse 226" cx="7.809" cy="5.654" rx="7.809" ry="5.654" transform="translate(514.422 244.786) rotate(-85.21)" fill="#fff"/>
      <path id="Path_492" data-name="Path 492" d="M447.953,222.772s13.06-18.632,45.459-16.939c-34.206,22.925-41.353,24.137-41.353,24.137Z" fill="#8ecebf"/>
      <path id="Path_493" data-name="Path 493" d="M643.532,242.62C639.191,254.177,633.319,256,633.319,256s-21.191,2.125-32.681.707-12-8.54-17.59-21.149-15.434-12.471-15.434-12.471,7.944,34.743,8.168,35.274c.062.147.938,1.486,2.182,3.359h64.457s4.129.552,4.129-4.641c0-.789.1-1.568.168-2.341,1.475-16.828,8.348-29.9,16.89-31.739C653.557,224.643,647.872,231.064,643.532,242.62Z" fill="#48a489"/>
      <path id="Path_494" data-name="Path 494" d="M454.628,242.248s6.633-27.194,38.992-36.621c0,0-28.774-3.144-45.667,17.145,1.323,22.37,3.207,21.622,3.207,21.622Z" fill="#5abaa1"/>
      <ellipse id="Ellipse_227" data-name="Ellipse 227" cx="8.77" cy="12.789" rx="8.77" ry="12.789" transform="translate(439.183 224.377)" fill="#5abaa1"/>
      <path id="Path_495" data-name="Path 495" d="M447.953,222.772c.061,1.023.123,1.982.185,2.911l6.639,1.848s11.968-23.693,38.843-21.9C493.62,205.627,464.846,202.483,447.953,222.772Z" fill="url(#linear-gradient-3)"/>
      <ellipse id="Ellipse_228" data-name="Ellipse 228" cx="8.77" cy="12.789" rx="8.77" ry="12.789" transform="translate(439.183 222.772)" fill="#c9c9c9"/>
      <ellipse id="Ellipse_229" data-name="Ellipse 229" cx="6.585" cy="9.602" rx="6.585" ry="9.602" transform="translate(440.42 226.106)" fill="#767676"/>
      <ellipse id="Ellipse_230" data-name="Ellipse 230" cx="6.459" cy="9.286" rx="6.459" ry="9.286" transform="translate(440.673 226.738)" fill="#edeeef"/>
      <ellipse id="Ellipse_231" data-name="Ellipse 231" cx="4.542" cy="6.824" rx="4.542" ry="6.824" transform="translate(444.098 229.265)" fill="#fff"/>
      <path id="Path_496" data-name="Path 496" d="M461.75,235.275l2.217,8.584a4.729,4.729,0,0,0,4.423,3.573L498.312,249a4.707,4.707,0,0,0,4.39-2.722l3.61-8.921a4.791,4.791,0,0,0-4.135-6.86l-35.75-1.226A4.773,4.773,0,0,0,461.75,235.275Z" fill="#5abaa1"/>
      <path id="Path_497" data-name="Path 497" d="M461.266,234.627l2.217,8.583a4.734,4.734,0,0,0,4.424,3.574l29.922,1.564a4.706,4.706,0,0,0,4.389-2.722l3.61-8.922a4.791,4.791,0,0,0-4.135-6.859l-35.749-1.227A4.774,4.774,0,0,0,461.266,234.627Z" fill="#c9c9c9"/>
      <path id="Path_498" data-name="Path 498" d="M462.715,234.211l2.074,7.989a4.42,4.42,0,0,0,4.138,3.326l27.99,1.456a4.4,4.4,0,0,0,4.105-2.534l3.378-8.3a4.46,4.46,0,0,0-3.868-6.384l-33.442-1.142A4.449,4.449,0,0,0,462.715,234.211Z" fill="#478271"/>
      <path id="Path_499" data-name="Path 499" d="M461.519,234.607a4.7,4.7,0,0,1,4.425-2.852l35.749,1.227a4.685,4.685,0,0,1,4.134,2.727V235.7a4.791,4.791,0,0,0-4.135-6.859l-35.749-1.227a4.774,4.774,0,0,0-4.678,6.009Z" fill="#e5e4e4"/>
      <path id="Path_500" data-name="Path 500" d="M486.47,221.289a22.707,22.707,0,0,1,6.006-.958,51.519,51.519,0,0,0-5.011,2.759Z" fill="#fff"/>
      <path id="Path_501" data-name="Path 501" d="M486.243,226.738s.99-3.96,6.366-6.365c-.661-.236-3.443.519-5.376,2.4.047-1.745-1.084-1.7-1.6-1.226s-1.037,1.839-.424,5.186Z" fill="#5abaa1"/>
      <path id="Path_502" data-name="Path 502" d="M485.206,226.738h1.2s1.6-4.634.323-5.356c-1.23-.7-2.065.526-1.915,2.446A18.1,18.1,0,0,0,485.206,226.738Z" fill="#b3dfd8"/>
      <path id="Path_503" data-name="Path 503" d="M485.206,226.738H486.8a12.457,12.457,0,0,1,5.809-6.365,11.918,11.918,0,0,0-6.2,6.365A3.072,3.072,0,0,1,485.206,226.738Z" fill="#478271"/>
      <path id="Path_504" data-name="Path 504" d="M583.048,261.323V266.1a3.875,3.875,0,0,1-3.876,3.875h-2.885v-6.927l2.184-1.723Z" fill="#1a1818"/>
      <path id="Path_505" data-name="Path 505" d="M565.385,222.772c-9.754,0-17.662,17.347-17.662,38.747,0,.068,0,.136,0,.2h35.32c0-.068,0-.136,0-.2C583.048,240.119,575.14,222.772,565.385,222.772Z" fill="#1a1818"/>
      <g id="Group_279" data-name="Group 279">
        <g id="Group_278" data-name="Group 278" clip-path="url(#clip-path-4)">
          <g id="Group_276" data-name="Group 276">
            <path id="Path_506" data-name="Path 506" d="M561.823,261.943c-.826,14.592-5.6,25.986-10.67,25.449s-8.567-12.8-7.8-27.392,5.578-25.986,10.705-25.449S562.658,247.352,561.823,261.943Z" fill="#262626"/>
            <path id="Path_507" data-name="Path 507" d="M551.538,236.241l1.98-1.69,16.819.788L567.746,288.3l-16.494-.9Z" fill="#262626"/>
            <path id="Path_508" data-name="Path 508" d="M578.415,262.8c-.826,14.626-5.6,26.046-10.67,25.508s-8.567-12.831-7.8-27.457,5.578-26.046,10.705-25.508S579.25,248.17,578.415,262.8Z" fill="#5f5c5c"/>
            <path id="Path_509" data-name="Path 509" d="M575.47,262.276c-.518,8.123-2.851,14.505-5.216,14.254s-3.889-7.04-3.4-15.163,2.843-14.505,5.234-14.254S575.992,254.153,575.47,262.276Z" fill="#97625c"/>
            <path id="Path_510" data-name="Path 510" d="M574.809,262.2c-.467,7.084-2.415,12.66-4.355,12.454s-3.155-6.116-2.708-13.2,2.41-12.66,4.371-12.454S575.281,255.11,574.809,262.2Z" fill="#cc928d"/>
            <path id="Path_511" data-name="Path 511" d="M572.657,258.8c-.04.621-.217,1.109-.395,1.09s-.293-.538-.255-1.159.216-1.109.4-1.09S572.7,258.177,572.657,258.8Z" fill="#714943"/>
            <path id="Path_512" data-name="Path 512" d="M571.959,265.091c-.04.621-.217,1.109-.395,1.09s-.293-.538-.255-1.159.216-1.109.4-1.09S572,264.47,571.959,265.091Z" fill="#714943"/>
            <path id="Path_513" data-name="Path 513" d="M573.758,261.988c-.04.621-.217,1.109-.4,1.09s-.293-.538-.255-1.159.216-1.109.4-1.09S573.8,261.367,573.758,261.988Z" fill="#714943"/>
            <path id="Path_514" data-name="Path 514" d="M570.63,261.632c-.039.621-.216,1.109-.4,1.09s-.292-.538-.254-1.159.216-1.109.4-1.09S570.671,261.011,570.63,261.632Z" fill="#714943"/>
          </g>
          <g id="Group_277" data-name="Group 277">
            <ellipse id="Ellipse_232" data-name="Ellipse 232" cx="16.932" cy="5.244" rx="16.932" ry="5.244" transform="matrix(0.038, -0.999, 0.999, 0.038, 564.788, 278.047)" fill="#303031"/>
            <ellipse id="Ellipse_233" data-name="Ellipse 233" cx="16.932" cy="5.244" rx="16.932" ry="5.244" transform="matrix(0.038, -0.999, 0.999, 0.038, 564.788, 278.047)" fill="#828282"/>
            <ellipse id="Ellipse_234" data-name="Ellipse 234" cx="14.349" cy="4.444" rx="14.349" ry="4.444" transform="matrix(0.038, -0.999, 0.999, 0.038, 565.684, 275.495)" fill="#303031"/>
            <ellipse id="Ellipse_235" data-name="Ellipse 235" cx="6.165" cy="1.909" rx="6.165" ry="1.909" transform="matrix(0.038, -0.999, 0.999, 0.038, 568.525, 267.412)" fill="#828282"/>
            <path id="Path_515" data-name="Path 515" d="M569.966,276.912l.058.005c.1.009.184-.1.191-.248l1.34-31.168c.006-.146-.07-.273-.169-.282l-.058,0c-.1-.009-.184.1-.191.248L569.8,276.63C569.791,276.776,569.867,276.9,569.966,276.912Z" fill="#828282"/>
            <path id="Path_516" data-name="Path 516" d="M568.219,275.687h0c.1.139.23-.018.285-.349l4.713-28.041a1.4,1.4,0,0,0-.084-.853h0c-.1-.139-.23.018-.285.349l-4.713,28.041A1.4,1.4,0,0,0,568.219,275.687Z" fill="#828282"/>
            <path id="Path_517" data-name="Path 517" d="M566.778,272.536h0c.076.247.209.238.3-.022l7.475-22a1.773,1.773,0,0,0,.024-.922h0c-.076-.247-.209-.238-.3.022l-7.475,22A1.773,1.773,0,0,0,566.778,272.536Z" fill="#828282"/>
            <path id="Path_518" data-name="Path 518" d="M565.935,268.527h0c.044.317.167.437.275.269l9.091-14.31a1.585,1.585,0,0,0,.116-.882h0c-.044-.317-.167-.437-.275-.269l-9.091,14.31A1.585,1.585,0,0,0,565.935,268.527Z" fill="#828282"/>
            <path id="Path_519" data-name="Path 519" d="M565.57,263.767h0c.008.353.108.592.224.531l9.793-5.18c.115-.061.2-.4.2-.754h0c-.008-.353-.108-.592-.224-.531l-9.793,5.18C565.65,263.074,565.562,263.413,565.57,263.767Z" fill="#828282"/>
            <path id="Path_520" data-name="Path 520" d="M565.844,257.412h0a1.093,1.093,0,0,0,.13.784l9.265,7.008c.11.082.23-.136.269-.485h0a1.092,1.092,0,0,0-.13-.784l-9.265-7.008C566,256.845,565.883,257.063,565.844,257.412Z" fill="#828282"/>
            <path id="Path_521" data-name="Path 521" d="M566.624,252.73h0a1.624,1.624,0,0,0,.038.9l7.771,15.985c.092.188.224.093.3-.212h0a1.624,1.624,0,0,0-.038-.9l-7.771-15.985C566.827,252.33,566.7,252.425,566.624,252.73Z" fill="#828282"/>
            <path id="Path_522" data-name="Path 522" d="M567.941,248.612h0a1.744,1.744,0,0,0-.066.916l5.246,23.882c.062.282.192.331.29.109h0a1.744,1.744,0,0,0,.066-.916l-5.246-23.882C568.169,248.439,568.039,248.39,567.941,248.612Z" fill="#828282"/>
            <path id="Path_523" data-name="Path 523" d="M569.457,246.139h0a1.351,1.351,0,0,0-.155.834l2.339,28.625c.027.338.142.515.254.394h0a1.351,1.351,0,0,0,.155-.834l-2.339-28.625C569.684,246.2,569.569,246.018,569.457,246.139Z" fill="#828282"/>
          </g>
        </g>
      </g>
      <rect id="Rectangle_419" data-name="Rectangle 419" width="124.426" height="15.229" rx="7.614" transform="translate(428.751 253.188) rotate(2.559)" fill="#c9c9c9"/>
      <g id="Group_280" data-name="Group 280">
        <rect id="Rectangle_420" data-name="Rectangle 420" width="13.901" height="5.063" rx="2.532" transform="translate(512.678 251.346) rotate(2.559)" fill="#5abaa1"/>
        <rect id="Rectangle_421" data-name="Rectangle 421" width="13.901" height="5.063" rx="2.532" transform="translate(511.968 251.346) rotate(2.559)" fill="#828282"/>
        <rect id="Rectangle_422" data-name="Rectangle 422" width="11.466" height="3.646" rx="1.823" transform="translate(513.153 252.108) rotate(2.559)" fill="#fa8708"/>
        <path id="Path_525" data-name="Path 525" d="M518.785,252.36l-3.811-.171a1.823,1.823,0,0,0-.163,3.643l3.823.171Z" fill="#ec4016"/>
      </g>
      <g id="Group_281" data-name="Group 281">
        <rect id="Rectangle_423" data-name="Rectangle 423" width="13.901" height="5.063" rx="2.532" transform="translate(441.477 248.431) rotate(2.559)" fill="#5abaa1"/>
        <rect id="Rectangle_424" data-name="Rectangle 424" width="13.901" height="5.063" rx="2.532" transform="translate(440.768 248.431) rotate(2.559)" fill="#828282"/>
        <rect id="Rectangle_425" data-name="Rectangle 425" width="11.466" height="3.646" rx="1.823" transform="translate(441.953 249.193) rotate(2.559)" fill="#fa8708"/>
        <path id="Path_526" data-name="Path 526" d="M447.584,249.445l-3.81-.171a1.823,1.823,0,0,0-.163,3.643l3.823.171Z" fill="#ec4016"/>
      </g>
      <g id="Group_282" data-name="Group 282">
        <rect id="Rectangle_426" data-name="Rectangle 426" width="36.286" height="1.007" rx="0.486" transform="translate(465.218 234.668) rotate(2.559)" fill="#e5e4e4"/>
        <rect id="Rectangle_427" data-name="Rectangle 427" width="33.05" height="1.007" rx="0.464" transform="translate(466.798 238.081) rotate(2.559)" fill="#e5e4e4"/>
        <rect id="Rectangle_428" data-name="Rectangle 428" width="30.923" height="1.007" rx="0.449" transform="translate(467.823 241.429) rotate(2.559)" fill="#e5e4e4"/>
      </g>
      <path id="Path_527" data-name="Path 527" d="M706.382,259.818l-5.624-.033c-2.792.062-5.09-3.3-5.131-7.5h0c-.041-4.205,2.189-7.664,4.981-7.727l5.624.033c2.792-.062,5.09,3.3,5.131,7.5h0C711.4,256.3,709.174,259.755,706.382,259.818Z" fill="#c9c9c9"/>
      <path id="Path_528" data-name="Path 528" d="M711.363,252.091c-.041-4.205-2.338-7.563-5.131-7.5l-5.624-.033c-2.792.063-5.022,3.522-4.981,7.727h0l15.727.174C711.357,252.335,711.364,252.215,711.363,252.091Z" fill="#fff"/>
      <path id="Path_529" data-name="Path 529" d="M590.646,238.377l.226.4c2.027,2.8,13.005,4.6,16.462,4.651l27.471.391a6.243,6.243,0,0,0,5.422-3h0a.929.929,0,0,0-.782-1.412Z" fill="#48a489"/>
      <path id="Path_530" data-name="Path 530" d="M589.921,237.922h0c2.027,2.8,13.956,4.6,17.413,4.651l27.471.391a6.242,6.242,0,0,0,5.422-3h0a.929.929,0,0,0-.782-1.412Z" fill="#c9c9c9"/>
      <path id="Path_531" data-name="Path 531" d="M565.385,222.772s-18.53-3.077-22.619,35.781c4.515,1.313,5,.323,5,.323S549.319,224.085,565.385,222.772Z" fill="#48a489"/>
      <path id="Path_532" data-name="Path 532" d="M552.714,266.35a7.615,7.615,0,0,0-7.267-7.947l-109.089-4.875a7.614,7.614,0,0,0-7.947,7.267h0l124.268,5.919C552.69,266.593,552.708,266.473,552.714,266.35Z" fill="#fff"/>
      <g id="Group_283" data-name="Group 283">
        <path id="Path_533" data-name="Path 533" d="M483.321,245.094a.5.5,0,0,1-.5-.5V233.669a.5.5,0,0,1,1,0v10.925A.5.5,0,0,1,483.321,245.094Z" fill="#e5e4e4"/>
      </g>
      <g id="Group_284" data-name="Group 284">
        <path id="Path_534" data-name="Path 534" d="M475.029,244.835a.5.5,0,0,1-.55-.444l-1.162-10.863a.5.5,0,0,1,.994-.106l1.162,10.862A.5.5,0,0,1,475.029,244.835Z" fill="#e5e4e4"/>
      </g>
      <g id="Group_285" data-name="Group 285">
        <path id="Path_535" data-name="Path 535" d="M491.79,245.228a.5.5,0,0,0,.564-.427l1.5-10.821a.5.5,0,1,0-.99-.138l-1.5,10.822A.5.5,0,0,0,491.79,245.228Z" fill="#e5e4e4"/>
      </g>
      <path id="Path_536" data-name="Path 536" d="M563.477,199.823,589.06,165.63a2.594,2.594,0,0,0-2.118-4.148l-43.776.7A16.569,16.569,0,0,0,530.813,168l-26.65,31.292a1.614,1.614,0,0,0,1.23,2.661h53.825A5.32,5.32,0,0,0,563.477,199.823Z" fill="url(#linear-gradient-5)"/>
      <path id="Path_537" data-name="Path 537" d="M586.942,161.482l-43.776.7a16.544,16.544,0,0,0-8.987,2.847c2.543,8.445,10.019,23.193,31.868,31.365L589.06,165.63A2.594,2.594,0,0,0,586.942,161.482Z" fill="url(#linear-gradient-6)"/>
      <path id="Path_538" data-name="Path 538" d="M589.583,177.815V202.88h4.4V170.187Z" fill="#5f5c5c"/>
      <rect id="Rectangle_429" data-name="Rectangle 429" width="4.089" height="28.7" transform="translate(521.168 174.181)" fill="#a9a7a8" opacity="0.5" style="mix-blend-mode: multiply;isolation: isolate"/>
      <path id="Path_539" data-name="Path 539" d="M644.835,180.255h-40.36a10.489,10.489,0,0,0-10.488,10.489v10.384l61.885-.226v-9.61A11.037,11.037,0,0,0,644.835,180.255Z" fill="#a9a7a8" opacity="0.5" style="mix-blend-mode: multiply;isolation: isolate"/>
      <path id="Path_540" data-name="Path 540" d="M644.835,180.255a11,11,0,0,1,3.759.671c.017-.188.028-.377.028-.569a6.176,6.176,0,0,0-6.176-6.176H621.319a6.173,6.173,0,0,0-6.171,6.074Z" fill="url(#linear-gradient-7)"/>
      <path id="Path_541" data-name="Path 541" d="M512.652,201.955a11.37,11.37,0,0,1,.61-1.844c1.879-4.361,6.053-6.754,9.324-5.345,2.457,1.058,3.7,3.962,3.377,7.189h2.4c.309-4.326-1.424-8.165-4.739-9.594-4.557-1.962-10.372,1.371-12.988,7.446a15.755,15.755,0,0,0-.748,2.148Z" fill="#e5e4e4"/>
      <path id="Path_542" data-name="Path 542" d="M577.149,181.55H538.97a11.608,11.608,0,0,0-11.608,11.608v8.8h31.856a5.32,5.32,0,0,0,4.259-2.132l12.81-17.121Z" fill="#a9a7a8" opacity="0.5" style="mix-blend-mode: multiply;isolation: isolate"/>
      <path id="Path_543" data-name="Path 543" d="M703.234,223a30.419,30.419,0,0,0-27.5-17.416H580.548l-.663,5.818H681.548S697.669,214.38,703.234,223Z" fill="url(#linear-gradient-8)"/>
      <path id="Path_544" data-name="Path 544" d="M573.882,205.586s-.467,6.737,3.411,8.586,9.349-15.054,9.349-15.054l-1.65-2.7-3.924,9.164Z" fill="#0d4049"/>
      <path id="Path_545" data-name="Path 545" d="M583.048,203.878s-3.344,8.186-6.8,9.6c-.546-.572-2.653-2.065-2.366-7.887h7.186l1.107-2.706Z" fill="#1a5153"/>
      <g id="Group_286" data-name="Group 286">
        <path id="Path_546" data-name="Path 546" d="M588.635,206.147c4.383,0,7.25-4.041,7.25-9.026s-2.867-9.026-7.25-9.026-7.935,4.041-7.935,9.026S584.253,206.147,588.635,206.147Z" fill="#ced9db"/>
        <ellipse id="Ellipse_236" data-name="Ellipse 236" cx="6.413" cy="9.026" rx="6.413" ry="9.026" transform="translate(580.7 188.095)" fill="#a8c0c3"/>
        <path id="Path_547" data-name="Path 547" d="M585.239,188.489c-.565,3.088-.52,9.1,5.519,16.054a5.22,5.22,0,0,1-3.645,1.6c-3.542,0-6.413-4.041-6.413-9.026C580.7,193.054,582.612,189.617,585.239,188.489Z" fill="#88a4a7"/>
      </g>
      <g id="Group_287" data-name="Group 287">
        <path id="Path_548" data-name="Path 548" d="M563,200.37c.02-.02.041-.037.06-.057C563.041,200.333,563.02,200.35,563,200.37Z" fill="#a9a7a8" opacity="0.5" style="mix-blend-mode: multiply;isolation: isolate"/>
        <path id="Path_549" data-name="Path 549" d="M561.506,201.433Z" fill="#a9a7a8" opacity="0.5" style="mix-blend-mode: multiply;isolation: isolate"/>
        <path id="Path_550" data-name="Path 550" d="M562.585,200.751l-.02.014Z" fill="#a9a7a8" opacity="0.5" style="mix-blend-mode: multiply;isolation: isolate"/>
        <path id="Path_551" data-name="Path 551" d="M586.942,161.482l-18.7.3-.98.015-24.094.383A16.567,16.567,0,0,0,530.813,168l-6.355,7.462s7.253-4.725,12.821-5.277c2.483-.247,13.161-.273,24.227-.227v11.59h6.734V170c7,.045,13.5.107,17.443.148l3.377-4.514A2.594,2.594,0,0,0,586.942,161.482Z" fill="#a9a7a8" opacity="0.5" style="mix-blend-mode: multiply;isolation: isolate"/>
      </g>
      <rect id="Rectangle_430" data-name="Rectangle 430" width="6.734" height="40.802" transform="translate(620.394 162.079)" fill="#5f5c5c"/>
      <rect id="Rectangle_431" data-name="Rectangle 431" width="40.36" height="2.233" rx="1.116" transform="translate(462.581 250.555) rotate(2.559)" fill="url(#linear-gradient-9)"/>
      <rect id="Rectangle_432" data-name="Rectangle 432" width="40.36" height="2.233" rx="1.116" transform="translate(462.487 250.171) rotate(2.559)" fill="#478271"/>
      <g id="Group_288" data-name="Group 288">
        <rect id="Rectangle_433" data-name="Rectangle 433" width="6.872" height="10.233" rx="3.436" transform="translate(616.263 211.439)" fill="url(#linear-gradient-8)"/>
        <rect id="Rectangle_434" data-name="Rectangle 434" width="2.256" height="12.277" rx="1.114" transform="translate(618.979 210.081)" fill="#388068"/>
        <rect id="Rectangle_435" data-name="Rectangle 435" width="3.181" height="3.12" rx="1.56" transform="translate(618.645 210.317)" fill="#388068"/>
        <rect id="Rectangle_436" data-name="Rectangle 436" width="3.181" height="3.12" rx="1.56" transform="translate(618.774 209.879)" fill="#b2b4b3"/>
        <rect id="Rectangle_437" data-name="Rectangle 437" width="3.181" height="3.12" rx="1.56" transform="translate(618.774 218.986)" fill="#388068"/>
        <rect id="Rectangle_438" data-name="Rectangle 438" width="3.181" height="3.12" rx="1.56" transform="translate(618.774 219.585)" fill="#b2b4b3"/>
        <rect id="Rectangle_439" data-name="Rectangle 439" width="2.256" height="12.587" rx="1.128" transform="translate(619.699 210.081)" fill="#c9c9c9"/>
        <rect id="Rectangle_440" data-name="Rectangle 440" width="0.352" height="7.95" rx="0.176" transform="translate(621.059 212.077)" fill="url(#linear-gradient-11)"/>
      </g>
      <g id="Group_289" data-name="Group 289">
        <rect id="Rectangle_441" data-name="Rectangle 441" width="6.872" height="10.233" rx="3.436" transform="translate(648.649 211.439)" fill="url(#linear-gradient-8)"/>
        <rect id="Rectangle_442" data-name="Rectangle 442" width="2.256" height="12.427" rx="1.121" transform="translate(651.365 210.081)" fill="#388068"/>
        <rect id="Rectangle_443" data-name="Rectangle 443" width="3.181" height="3.12" rx="1.56" transform="translate(651.031 210.317)" fill="#388068"/>
        <rect id="Rectangle_444" data-name="Rectangle 444" width="3.181" height="3.12" rx="1.56" transform="translate(651.16 209.879)" fill="#b2b4b3"/>
        <rect id="Rectangle_445" data-name="Rectangle 445" width="3.181" height="3.12" rx="1.56" transform="translate(651.16 218.986)" fill="#388068"/>
        <rect id="Rectangle_446" data-name="Rectangle 446" width="3.181" height="3.12" rx="1.56" transform="translate(651.16 219.585)" fill="#b2b4b3"/>
        <rect id="Rectangle_447" data-name="Rectangle 447" width="2.256" height="12.587" rx="1.128" transform="translate(652.085 210.081)" fill="#c9c9c9"/>
        <rect id="Rectangle_448" data-name="Rectangle 448" width="0.352" height="7.95" rx="0.176" transform="translate(653.445 212.077)" fill="url(#linear-gradient-13)"/>
      </g>
      <path id="Path_552" data-name="Path 552" d="M663.534,200.887l-7.662-24.941v24.941Z" fill="#393738"/>
      <path id="Path_553" data-name="Path 553" d="M505.147,199.294,531.489,168a16.305,16.305,0,0,1,12.211-5.825l43.249-.7h-.007l-43.776.7A16.567,16.567,0,0,0,530.813,168l-26.65,31.292a1.614,1.614,0,0,0,1.23,2.661h.969A1.616,1.616,0,0,1,505.147,199.294Z" fill="#393738"/>
    </g>
    <path id="Path_554" data-name="Path 554" d="M695.771,253.979s-.169,4.734,2.98,6.707l1.245.472a8.487,8.487,0,0,0,2.451-1.34l-1.946-.041S696.775,259.718,695.771,253.979Z" fill="#48a489"/>
    <path id="Path_555" data-name="Path 555" d="M706.15,234.955l1.442,8.027a4.867,4.867,0,0,1-1.442.823Z" fill="url(#linear-gradient-14)"/>
  </g>
</svg>
